{"glyphs":{"0":{"ha":864,"x_min":74,"x_max":790,"o":"m 432 983 q 586 949 519 983 q 698 851 653 915 q 767 695 743 788 q 790 486 790 603 q 767 277 790 369 q 698 121 743 185 q 586 23 653 57 q 432 -11 519 -11 q 278 23 344 -11 q 166 121 211 57 q 97 277 121 185 q 74 486 74 369 q 97 695 74 603 q 166 851 121 788 q 278 949 211 915 q 432 983 344 983 m 432 822 q 291 736 336 822 q 246 486 246 650 q 291 236 246 322 q 432 150 336 150 q 573 236 528 150 q 618 486 618 322 q 573 736 618 650 q 432 822 528 822 z "},"1":{"ha":544,"x_min":81,"x_max":442,"o":"m 442 972 l 442 0 l 267 0 l 267 728 l 81 617 l 81 806 l 365 972 l 442 972 z "},"2":{"ha":778,"x_min":76,"x_max":694,"o":"m 76 69 l 424 518 q 483 613 468 574 q 499 694 499 653 q 469 788 499 754 q 379 822 439 822 q 294 790 326 822 q 253 694 261 757 l 92 725 q 119 828 96 781 q 180 910 142 875 q 270 964 218 944 q 383 983 322 983 q 507 963 453 983 q 598 904 561 942 q 654 815 635 867 q 674 701 674 763 q 654 586 674 643 q 590 471 635 529 l 353 161 l 694 161 l 694 0 l 76 0 l 76 69 z "},"3":{"ha":794,"x_min":67,"x_max":721,"o":"m 235 292 q 288 188 250 226 q 392 150 325 150 q 503 194 460 150 q 546 313 546 238 q 503 440 546 397 q 393 483 460 483 q 350 478 369 483 q 308 463 331 474 l 239 560 l 422 811 l 113 811 l 113 972 l 669 972 l 669 911 l 440 601 q 458 603 450 603 q 479 604 467 604 q 580 583 535 604 q 656 524 625 563 q 704 433 688 486 q 721 315 721 379 q 696 180 721 240 q 626 77 671 119 q 522 12 582 35 q 392 -11 463 -11 q 267 10 324 -11 q 167 68 210 31 q 99 157 125 106 q 67 269 72 208 l 235 292 z "},"4":{"ha":833,"x_min":71,"x_max":772,"o":"m 489 181 l 71 181 l 71 269 l 481 972 l 664 972 l 664 342 l 772 342 l 772 181 l 664 181 l 664 0 l 489 0 l 489 181 m 489 342 l 489 713 l 283 342 l 489 342 z "},"5":{"ha":785,"x_min":86,"x_max":717,"o":"m 251 285 q 274 219 260 244 q 308 178 289 193 q 351 156 328 163 q 397 150 374 150 q 505 194 468 150 q 542 322 542 239 q 503 447 542 404 q 389 490 464 490 q 296 466 340 490 q 217 403 251 442 l 107 425 l 161 972 l 661 972 l 661 811 l 304 811 l 282 608 q 344 635 310 625 q 419 644 379 644 q 551 621 496 644 q 644 555 607 597 q 699 453 681 513 q 717 322 717 393 q 694 188 717 249 q 629 82 671 126 q 528 13 588 38 q 397 -11 469 -11 q 281 8 335 -11 q 186 61 228 26 q 118 144 144 96 q 86 254 92 193 l 251 285 z "},"6":{"ha":799,"x_min":83,"x_max":733,"o":"m 419 622 q 544 599 486 622 q 643 535 601 576 q 709 435 685 493 q 733 306 733 376 q 709 180 733 238 q 641 80 685 122 q 538 13 597 38 q 408 -11 478 -11 q 280 13 339 -11 q 177 78 221 36 q 108 179 133 121 q 83 306 83 238 q 97 395 83 350 q 131 476 110 440 l 414 983 l 608 983 l 397 622 l 419 622 m 408 461 q 302 421 346 461 q 258 306 258 381 q 270 241 258 269 q 303 192 282 213 q 351 161 324 172 q 408 150 378 150 q 515 192 471 150 q 558 306 558 235 q 515 421 558 381 q 408 461 471 461 z "},"7":{"ha":676,"x_min":58,"x_max":647,"o":"m 647 900 l 281 0 l 108 0 l 440 811 l 58 811 l 58 972 l 647 972 l 647 900 z "},"8":{"ha":797,"x_min":82,"x_max":715,"o":"m 399 983 q 513 963 461 983 q 601 905 564 942 q 658 820 638 868 q 678 718 678 772 q 654 608 678 658 q 586 524 631 558 q 681 432 646 490 q 715 290 715 374 q 690 163 715 219 q 620 69 664 107 q 519 10 576 31 q 399 -11 463 -11 q 278 10 335 -11 q 177 69 221 31 q 108 163 133 107 q 82 290 82 219 q 116 432 82 374 q 210 524 150 490 q 142 608 165 558 q 119 718 119 658 q 140 820 119 772 q 197 905 160 868 q 285 963 233 942 q 399 983 336 983 m 399 431 q 298 394 339 431 q 257 290 257 358 q 298 186 257 222 q 399 150 339 150 q 499 186 458 150 q 540 290 540 222 q 499 394 540 358 q 399 431 458 431 m 399 836 q 314 803 346 836 q 282 715 282 769 q 314 626 282 660 q 399 592 346 592 q 483 626 451 592 q 515 715 515 660 q 483 803 515 769 q 399 836 451 836 z "},"9":{"ha":799,"x_min":85,"x_max":735,"o":"m 399 350 q 274 373 332 350 q 175 438 217 396 q 109 538 133 479 q 85 667 85 596 q 109 792 85 735 q 177 892 133 850 q 281 959 221 935 q 410 983 340 983 q 538 960 478 983 q 641 894 597 936 q 710 793 685 851 q 735 667 735 735 q 722 577 735 622 q 688 496 708 532 l 404 -11 l 210 -11 l 421 350 l 399 350 m 410 511 q 516 551 472 511 q 560 667 560 592 q 548 731 560 701 q 515 780 536 760 q 467 811 494 800 q 410 822 440 822 q 303 780 347 822 q 260 667 260 738 q 303 551 260 592 q 410 511 347 511 z "},"\r":{"ha":344,"x_min":0,"x_max":0,"o":""},"\u0000":{"ha":0,"x_min":0,"x_max":0,"o":""}," ":{"ha":344,"x_min":0,"x_max":0,"o":""},"!":{"ha":460,"x_min":118,"x_max":349,"o":"m 347 972 l 308 336 l 158 336 l 119 972 l 347 972 m 118 106 q 151 188 118 154 q 233 222 185 222 q 315 188 282 222 q 349 106 349 154 q 315 24 349 57 q 233 -8 282 -8 q 151 24 185 -8 q 118 106 118 57 z "},"\"":{"ha":649,"x_min":94,"x_max":554,"o":"m 94 983 l 290 983 l 247 638 l 138 638 l 94 983 m 358 983 l 554 983 l 511 638 l 401 638 l 358 983 z "},"#":{"ha":997,"x_min":78,"x_max":919,"o":"m 133 704 l 325 704 l 381 972 l 519 972 l 464 704 l 622 704 l 676 972 l 815 972 l 761 704 l 919 704 l 919 568 l 733 568 l 700 404 l 864 404 l 864 268 l 672 268 l 617 0 l 478 0 l 533 268 l 375 268 l 321 0 l 182 0 l 236 268 l 78 268 l 78 404 l 264 404 l 297 568 l 133 568 l 133 704 m 403 404 l 561 404 l 594 568 l 436 568 l 403 404 z "},"$":{"ha":732,"x_min":42,"x_max":688,"o":"m 500 714 q 440 792 472 768 q 365 817 408 817 q 299 792 325 817 q 272 728 272 767 q 303 657 272 686 q 380 603 333 628 q 480 554 426 579 q 580 495 533 529 q 657 413 626 461 q 688 292 688 364 q 626 94 688 169 q 460 -3 564 19 l 460 -125 l 290 -125 l 290 0 q 199 38 240 13 q 125 97 157 63 q 72 174 93 132 q 42 261 51 215 l 188 353 q 215 278 199 314 q 256 215 232 242 q 310 172 279 188 q 381 156 340 156 q 472 185 438 156 q 507 282 507 215 q 477 349 507 322 q 401 398 447 375 q 303 445 356 421 q 206 505 251 469 q 130 591 160 540 q 100 719 100 642 q 152 881 100 811 q 290 974 204 950 l 290 1097 l 460 1097 l 460 971 q 646 807 586 935 l 500 714 z "},"%":{"ha":1144,"x_min":63,"x_max":1082,"o":"m 63 761 q 80 849 63 808 q 127 919 97 889 q 199 966 157 949 q 290 983 240 983 q 382 966 340 983 q 453 919 424 949 q 501 849 483 889 q 518 761 518 808 q 501 674 518 714 q 453 603 483 633 q 382 556 424 574 q 290 539 340 539 q 199 556 240 539 q 127 603 157 574 q 80 674 97 633 q 63 761 63 714 m 204 761 q 227 697 204 722 q 290 671 250 671 q 353 697 331 671 q 376 761 376 722 q 353 826 376 800 q 290 851 331 851 q 227 826 250 851 q 204 761 204 800 m 626 211 q 644 299 626 258 q 691 369 661 339 q 763 416 721 399 q 854 433 804 433 q 946 416 904 433 q 1017 369 988 399 q 1065 299 1047 339 q 1082 211 1082 258 q 1065 124 1082 164 q 1017 53 1047 83 q 946 6 988 24 q 854 -11 904 -11 q 763 6 804 -11 q 691 53 721 24 q 644 124 661 83 q 626 211 626 164 m 768 211 q 791 147 768 172 q 854 121 814 121 q 917 147 894 121 q 940 211 940 172 q 917 276 940 250 q 854 301 894 301 q 791 276 814 301 q 768 211 768 250 m 1000 946 l 253 -53 l 153 28 l 900 1025 l 1000 946 z "},"&":{"ha":947,"x_min":79,"x_max":904,"o":"m 388 -11 q 266 9 322 -11 q 168 67 210 29 q 103 160 126 106 q 79 286 79 215 q 94 387 79 340 q 135 471 110 433 q 194 537 161 508 q 264 586 228 565 q 216 676 235 626 q 197 776 197 725 q 213 857 197 819 q 258 922 229 894 q 329 967 288 950 q 424 983 371 983 q 519 967 478 983 q 590 923 561 950 q 634 861 619 896 q 649 789 649 826 q 635 707 649 744 q 601 638 622 669 q 550 583 579 607 q 490 542 521 558 l 650 332 q 686 410 669 369 q 721 507 703 450 l 821 390 q 792 294 810 342 q 749 203 774 246 l 904 0 l 700 0 l 643 75 q 530 12 593 35 q 388 -11 467 -11 m 389 149 q 478 162 442 149 q 547 203 514 175 l 351 464 q 274 388 301 433 q 246 289 246 342 q 284 190 246 231 q 389 149 322 149 m 424 836 q 371 817 392 836 q 350 765 350 797 q 363 708 350 733 q 394 658 375 683 q 428 676 411 665 q 460 700 446 686 q 484 731 475 714 q 493 771 493 749 q 474 818 493 800 q 424 836 456 836 z "},"'":{"ha":385,"x_min":94,"x_max":290,"o":"m 94 983 l 290 983 l 247 638 l 138 638 l 94 983 z "},"(":{"ha":400,"x_min":76,"x_max":371,"o":"m 371 1042 q 317 926 340 985 q 276 800 293 867 q 251 656 260 733 q 243 486 243 578 q 251 311 243 389 q 276 167 260 233 q 317 44 293 101 q 371 -69 340 -14 l 222 -69 q 168 35 194 -19 q 122 154 142 89 q 89 301 101 219 q 76 486 76 382 q 89 672 76 590 q 122 818 101 753 q 168 938 142 883 q 222 1042 194 992 l 371 1042 z "},")":{"ha":400,"x_min":29,"x_max":324,"o":"m 178 1042 q 232 938 206 992 q 278 818 258 883 q 311 672 299 753 q 324 486 324 590 q 311 301 324 382 q 278 154 299 219 q 232 35 258 89 q 178 -69 206 -19 l 29 -69 q 83 44 60 -14 q 124 167 107 101 q 149 311 140 233 q 157 486 157 389 q 149 656 157 578 q 124 800 140 733 q 83 926 107 867 q 29 1042 60 985 l 178 1042 z "},"*":{"ha":656,"x_min":60,"x_max":596,"o":"m 399 826 l 550 876 l 596 739 l 444 688 l 538 561 l 419 474 l 328 603 l 236 474 l 118 561 l 211 688 l 60 739 l 106 876 l 257 826 l 257 983 l 399 983 l 399 826 z "},"+":{"ha":790,"x_min":65,"x_max":726,"o":"m 471 771 l 471 515 l 726 515 l 726 365 l 471 365 l 471 110 l 321 110 l 321 365 l 65 365 l 65 515 l 321 515 l 321 771 l 471 771 z "},",":{"ha":481,"x_min":68,"x_max":404,"o":"m 172 203 l 404 203 l 189 -217 l 68 -217 l 172 203 z "},"-":{"ha":674,"x_min":78,"x_max":596,"o":"m 78 515 l 596 515 l 596 365 l 78 365 l 78 515 z "},".":{"ha":422,"x_min":94,"x_max":328,"o":"m 94 108 q 128 192 94 158 q 211 225 161 225 q 294 192 261 225 q 328 108 328 158 q 294 25 328 58 q 211 -8 261 -8 q 128 25 161 -8 q 94 108 94 58 z "},"/":{"ha":760,"x_min":10,"x_max":782,"o":"m 782 1042 l 176 -69 l 10 -69 l 615 1042 l 782 1042 z "},":":{"ha":435,"x_min":97,"x_max":331,"o":"m 97 108 q 131 192 97 158 q 214 225 164 225 q 297 192 264 225 q 331 108 331 158 q 297 25 331 58 q 214 -8 264 -8 q 131 25 164 -8 q 97 108 97 58 m 97 594 q 131 678 97 644 q 214 711 164 711 q 297 678 264 711 q 331 594 331 644 q 297 511 331 544 q 214 478 264 478 q 131 511 164 478 q 97 594 97 544 z "},";":{"ha":451,"x_min":15,"x_max":351,"o":"m 119 203 l 351 203 l 136 -217 l 15 -217 l 119 203 m 111 594 q 144 678 111 644 q 228 711 178 711 q 311 678 278 711 q 344 594 344 644 q 311 511 344 544 q 228 478 278 478 q 144 511 178 478 q 111 594 111 544 z "},"<":{"ha":658,"x_min":54,"x_max":597,"o":"m 54 511 l 597 794 l 597 613 l 247 431 l 597 249 l 597 67 l 54 350 l 54 511 z "},"=":{"ha":821,"x_min":107,"x_max":714,"o":"m 107 631 l 714 631 l 714 481 l 107 481 l 107 631 m 107 381 l 714 381 l 714 231 l 107 231 l 107 381 z "},">":{"ha":658,"x_min":61,"x_max":604,"o":"m 604 350 l 61 67 l 61 249 l 411 431 l 61 613 l 61 794 l 604 511 l 604 350 z "},"?":{"ha":622,"x_min":50,"x_max":572,"o":"m 514 439 q 439 334 490 372 q 313 296 388 296 q 175 344 229 296 q 121 474 121 393 q 163 587 121 544 q 271 654 204 629 q 338 683 311 669 q 381 710 365 697 q 403 738 397 724 q 410 769 410 753 q 383 822 410 806 q 319 839 357 839 q 201 746 229 839 l 50 771 q 79 853 58 814 q 133 921 100 892 q 213 967 167 950 q 315 983 258 983 q 502 924 432 983 q 572 764 572 864 q 559 692 572 722 q 522 638 546 661 q 462 597 497 615 q 381 561 426 579 q 323 537 346 547 q 287 516 300 526 q 268 494 274 506 q 263 469 263 483 q 277 433 263 446 q 313 421 292 421 q 361 438 342 421 q 392 485 381 456 l 514 439 m 197 106 q 231 188 197 154 q 313 222 264 222 q 394 188 361 222 q 428 106 428 154 q 394 24 428 57 q 313 -8 361 -8 q 231 24 264 -8 q 197 106 197 57 z "},"@":{"ha":1236,"x_min":71,"x_max":1179,"o":"m 331 411 q 351 528 331 472 q 410 625 371 583 q 504 692 449 667 q 631 717 560 717 q 710 703 675 717 q 775 664 746 690 l 790 707 l 906 707 l 878 403 q 876 378 876 388 q 875 363 875 369 q 888 308 875 325 q 929 292 901 292 q 969 307 953 292 q 994 349 985 322 q 1008 414 1004 376 q 1013 496 1013 451 q 985 656 1013 588 q 908 768 957 724 q 790 834 858 813 q 642 856 722 856 q 494 828 567 856 q 365 747 422 801 q 272 611 307 693 q 238 418 238 529 q 274 238 238 314 q 369 111 311 161 q 498 36 426 61 q 640 11 569 11 q 707 13 672 11 q 781 22 742 15 q 867 44 821 29 q 971 88 914 60 l 1025 -47 q 930 -87 975 -71 q 839 -112 885 -103 q 744 -126 793 -122 q 640 -131 696 -131 q 408 -89 513 -131 q 228 26 303 -47 q 112 199 153 99 q 71 418 71 300 q 114 657 71 550 q 233 840 157 764 q 416 956 310 915 q 649 997 522 997 q 878 960 779 997 q 1044 854 978 922 q 1145 693 1111 786 q 1179 489 1179 600 q 1160 349 1179 411 q 1106 242 1140 286 q 1022 174 1071 199 q 915 150 974 150 q 820 178 861 150 q 764 246 779 207 q 683 176 729 203 q 578 150 636 150 q 473 169 519 150 q 395 224 426 189 q 347 306 364 258 q 331 411 331 354 m 624 575 q 574 563 597 575 q 531 530 550 551 q 501 476 513 508 q 490 404 490 444 q 590 292 490 292 q 648 304 621 292 q 694 340 675 317 q 725 392 714 363 q 736 458 736 422 q 707 544 736 514 q 624 575 678 575 z "},"A":{"ha":853,"x_min":7,"x_max":846,"o":"m 581 229 l 272 229 l 201 0 l 7 0 l 336 972 l 517 972 l 846 0 l 651 0 l 581 229 m 324 396 l 529 396 l 426 733 l 324 396 z "},"B":{"ha":840,"x_min":107,"x_max":790,"o":"m 463 972 q 576 956 525 972 q 663 908 626 940 q 720 826 700 875 q 740 710 740 776 q 715 602 740 650 q 644 531 690 554 q 752 444 714 503 q 790 293 790 386 q 705 75 790 150 q 469 0 619 0 l 107 0 l 107 972 l 463 972 m 288 806 l 288 594 l 453 594 q 537 617 507 594 q 567 700 567 640 q 537 783 567 760 q 449 806 507 806 l 288 806 m 288 428 l 288 167 l 453 167 q 574 201 538 167 q 610 297 610 235 q 574 394 610 360 q 453 428 538 428 l 288 428 z "},"C":{"ha":957,"x_min":57,"x_max":919,"o":"m 757 647 q 674 769 729 721 q 517 817 618 817 q 410 797 460 817 q 322 735 360 776 q 263 633 285 694 q 240 486 240 571 q 263 340 240 401 q 322 237 285 278 q 410 176 360 196 q 517 156 460 156 q 674 203 618 156 q 757 325 729 251 l 919 283 q 781 66 885 143 q 517 -11 676 -11 q 342 21 425 -11 q 196 115 260 53 q 94 271 132 178 q 57 486 57 364 q 94 701 57 608 q 196 857 132 794 q 342 951 260 919 q 517 983 425 983 q 781 906 676 983 q 919 689 885 829 l 757 647 z "},"D":{"ha":921,"x_min":107,"x_max":864,"o":"m 107 0 l 107 972 l 411 972 q 578 944 497 972 q 724 857 660 917 q 826 706 788 797 q 864 486 864 614 q 826 267 864 358 q 724 115 788 175 q 578 28 660 56 q 411 0 497 0 l 107 0 m 354 167 q 471 181 413 167 q 576 230 529 194 q 651 327 622 265 q 681 486 681 389 q 651 645 681 583 q 576 742 622 707 q 471 792 529 778 q 354 806 413 806 l 288 806 l 288 167 l 354 167 z "},"E":{"ha":772,"x_min":107,"x_max":722,"o":"m 708 972 l 708 806 l 288 806 l 288 601 l 625 601 l 625 435 l 288 435 l 288 167 l 722 167 l 722 0 l 107 0 l 107 972 l 708 972 z "},"F":{"ha":757,"x_min":107,"x_max":722,"o":"m 722 972 l 722 806 l 288 806 l 288 583 l 638 583 l 638 417 l 288 417 l 288 0 l 107 0 l 107 972 l 722 972 z "},"G":{"ha":994,"x_min":57,"x_max":924,"o":"m 742 104 q 656 25 714 61 q 506 -11 599 -11 q 337 20 418 -11 q 193 113 256 51 q 94 268 131 175 q 57 486 57 361 q 95 704 57 611 q 198 859 133 797 q 346 952 263 921 q 519 983 429 983 q 667 960 600 983 q 784 897 733 938 q 869 799 835 856 q 924 676 904 743 l 758 633 q 666 767 724 717 q 519 817 608 817 q 410 797 461 817 q 322 736 360 776 q 262 633 283 696 q 240 486 240 571 q 262 336 240 399 q 321 233 283 274 q 408 174 358 193 q 515 156 458 156 q 608 172 569 156 q 674 215 647 189 q 715 274 700 242 q 733 340 729 307 l 553 340 l 553 490 l 908 490 l 908 0 l 757 0 l 742 104 z "},"H":{"ha":964,"x_min":107,"x_max":857,"o":"m 107 972 l 288 972 l 288 603 l 676 603 l 676 972 l 857 972 l 857 0 l 676 0 l 676 436 l 288 436 l 288 0 l 107 0 l 107 972 z "},"I":{"ha":394,"x_min":107,"x_max":288,"o":"m 288 0 l 107 0 l 107 972 l 288 972 l 288 0 z "},"J":{"ha":700,"x_min":3,"x_max":613,"o":"m 181 278 q 224 184 193 213 q 303 156 254 156 q 356 163 332 156 q 396 190 379 171 q 422 242 413 210 q 432 322 432 274 l 432 972 l 613 972 l 613 342 q 591 176 613 243 q 529 67 569 108 q 432 7 489 25 q 303 -11 375 -11 q 97 56 175 -11 q 3 240 18 122 l 181 278 z "},"K":{"ha":875,"x_min":107,"x_max":869,"o":"m 288 972 l 288 611 l 619 972 l 842 972 l 447 538 l 869 0 l 640 0 l 288 464 l 288 0 l 107 0 l 107 972 l 288 972 z "},"L":{"ha":717,"x_min":107,"x_max":700,"o":"m 288 972 l 288 167 l 700 167 l 700 0 l 107 0 l 107 972 l 288 972 z "},"M":{"ha":1078,"x_min":107,"x_max":971,"o":"m 107 972 l 310 972 l 539 365 l 768 972 l 971 972 l 971 0 l 790 0 l 790 600 l 604 89 l 474 89 l 288 600 l 288 0 l 107 0 l 107 972 z "},"N":{"ha":942,"x_min":107,"x_max":835,"o":"m 835 972 l 835 0 l 644 0 l 288 642 l 288 0 l 107 0 l 107 972 l 297 972 l 654 331 l 654 972 l 835 972 z "},"O":{"ha":1031,"x_min":57,"x_max":974,"o":"m 515 983 q 690 953 607 983 q 837 861 774 922 q 937 706 900 800 q 974 486 974 613 q 937 266 974 360 q 837 111 900 172 q 690 19 774 50 q 515 -11 607 -11 q 340 19 424 -11 q 194 111 257 50 q 94 266 131 172 q 57 486 57 360 q 94 706 57 613 q 194 861 131 800 q 340 953 257 922 q 515 983 424 983 m 515 817 q 411 797 461 817 q 323 738 361 778 q 263 635 285 697 q 240 486 240 572 q 263 338 240 400 q 323 235 285 275 q 411 175 361 194 q 515 156 461 156 q 619 175 569 156 q 708 235 669 194 q 768 338 746 275 q 790 486 790 400 q 768 635 790 572 q 708 738 746 697 q 619 797 669 778 q 515 817 569 817 z "},"P":{"ha":801,"x_min":107,"x_max":778,"o":"m 288 381 l 288 0 l 107 0 l 107 972 l 474 972 q 608 950 550 972 q 703 888 665 928 q 759 794 740 849 q 778 676 778 740 q 759 558 778 613 q 703 465 740 504 q 608 403 665 425 q 474 381 550 381 l 288 381 m 467 547 q 560 578 526 547 q 594 676 594 610 q 560 774 594 743 q 467 806 526 806 l 288 806 l 288 547 l 467 547 z "},"Q":{"ha":1035,"x_min":57,"x_max":1001,"o":"m 515 983 q 690 953 607 983 q 837 861 774 922 q 937 706 900 800 q 974 486 974 613 q 957 331 974 400 q 908 206 940 261 l 1001 114 l 875 -11 l 790 72 q 662 9 732 29 q 515 -11 592 -11 q 340 19 424 -11 q 194 111 257 50 q 94 266 131 172 q 57 486 57 360 q 94 706 57 613 q 194 861 131 800 q 340 953 257 922 q 515 983 424 983 m 664 450 l 769 343 q 790 486 790 403 q 768 635 790 572 q 708 738 746 697 q 619 797 669 778 q 515 817 569 817 q 411 797 461 817 q 323 738 361 778 q 263 635 285 697 q 240 486 240 572 q 263 338 240 400 q 323 235 285 275 q 411 175 361 194 q 515 156 461 156 q 664 197 599 156 l 538 325 l 664 450 z "},"R":{"ha":883,"x_min":107,"x_max":844,"o":"m 757 696 q 710 531 757 600 q 575 435 664 463 l 844 0 l 643 0 l 382 419 l 288 419 l 288 0 l 107 0 l 107 972 l 461 972 q 589 951 533 972 q 682 894 644 931 q 738 807 719 858 q 757 696 757 756 m 463 586 q 544 611 511 586 q 576 696 576 636 q 544 781 576 756 q 463 806 511 806 l 288 806 l 288 586 l 463 586 z "},"S":{"ha":732,"x_min":42,"x_max":688,"o":"m 500 714 q 440 792 472 768 q 365 817 408 817 q 299 792 325 817 q 272 728 272 767 q 303 657 272 686 q 380 603 333 628 q 480 554 426 579 q 580 495 533 529 q 657 413 626 461 q 688 292 688 364 q 665 165 688 221 q 602 69 643 108 q 503 10 561 31 q 376 -11 446 -11 q 253 10 310 -11 q 154 69 197 32 q 82 156 111 107 q 42 261 53 206 l 188 353 q 215 278 199 314 q 256 215 232 242 q 310 172 279 188 q 381 156 340 156 q 472 185 438 156 q 507 282 507 215 q 477 349 507 322 q 401 398 447 375 q 303 445 356 421 q 206 505 251 469 q 130 591 160 540 q 100 719 100 642 q 120 823 100 775 q 176 906 140 871 q 260 963 211 942 q 365 983 308 983 q 534 938 463 983 q 646 807 606 892 l 500 714 z "},"T":{"ha":739,"x_min":10,"x_max":729,"o":"m 10 972 l 729 972 l 729 806 l 460 806 l 460 0 l 279 0 l 279 806 l 10 806 l 10 972 z "},"U":{"ha":883,"x_min":79,"x_max":804,"o":"m 804 369 q 777 201 804 272 q 702 82 750 129 q 588 12 654 35 q 442 -11 521 -11 q 296 12 363 -11 q 181 82 229 35 q 106 201 133 129 q 79 369 79 272 l 79 972 l 260 972 l 260 367 q 442 156 260 156 q 624 367 624 156 l 624 972 l 804 972 l 804 369 z "},"V":{"ha":839,"x_min":1,"x_max":838,"o":"m 328 0 l 1 972 l 201 972 l 419 253 l 638 972 l 838 972 l 511 0 l 328 0 z "},"W":{"ha":1272,"x_min":22,"x_max":1250,"o":"m 1250 972 l 996 0 l 813 0 l 636 572 l 460 0 l 276 0 l 22 972 l 214 972 l 376 257 l 558 869 l 714 869 l 896 257 l 1058 972 l 1250 972 z "},"X":{"ha":819,"x_min":8,"x_max":811,"o":"m 765 972 l 508 525 l 811 0 l 611 0 l 410 351 l 208 0 l 8 0 l 311 525 l 54 972 l 251 972 l 410 697 l 568 972 l 765 972 z "},"Y":{"ha":742,"x_min":0,"x_max":742,"o":"m 194 972 l 371 594 l 547 972 l 742 972 l 461 414 l 461 0 l 281 0 l 281 414 l 0 972 l 194 972 z "},"Z":{"ha":764,"x_min":36,"x_max":724,"o":"m 60 972 l 704 972 l 704 889 l 288 167 l 724 167 l 724 0 l 36 0 l 36 83 l 457 806 l 60 806 l 60 972 z "},"[":{"ha":465,"x_min":107,"x_max":426,"o":"m 107 1042 l 426 1042 l 426 892 l 274 892 l 274 81 l 426 81 l 426 -69 l 107 -69 l 107 1042 z "},"\\":{"ha":760,"x_min":-22,"x_max":750,"o":"m 144 1042 l 750 -69 l 583 -69 l -22 1042 l 144 1042 z "},"]":{"ha":465,"x_min":39,"x_max":358,"o":"m 358 -69 l 39 -69 l 39 81 l 192 81 l 192 892 l 39 892 l 39 1042 l 358 1042 l 358 -69 z "},"^":{"ha":813,"x_min":61,"x_max":751,"o":"m 481 972 l 751 560 l 585 560 l 407 822 l 228 560 l 61 560 l 332 972 l 481 972 z "},"_":{"ha":693,"x_min":31,"x_max":663,"o":"m 31 0 l 663 0 l 663 -150 l 31 -150 l 31 0 z "},"`":{"ha":357,"x_min":17,"x_max":339,"o":"m 339 778 l 207 778 l 17 983 l 250 983 l 339 778 z "},"a":{"ha":835,"x_min":51,"x_max":740,"o":"m 51 350 q 74 497 51 431 q 139 611 96 564 q 244 685 182 658 q 385 711 306 711 q 494 687 443 711 q 568 633 544 663 l 568 700 l 740 700 l 740 0 l 568 0 l 568 72 q 497 13 543 38 q 385 -11 450 -11 q 244 15 306 -11 q 139 89 182 42 q 74 203 96 136 q 51 350 51 269 m 232 350 q 247 258 232 297 q 286 191 261 218 q 343 150 311 164 q 408 136 375 136 q 474 150 442 136 q 530 191 506 164 q 569 258 554 218 q 583 350 583 297 q 569 442 583 401 q 530 509 554 482 q 474 550 506 536 q 408 564 442 564 q 343 550 375 564 q 286 509 311 536 q 247 442 261 482 q 232 350 232 401 z "},"b":{"ha":807,"x_min":94,"x_max":756,"o":"m 756 350 q 735 203 756 269 q 675 89 715 136 q 575 15 635 42 q 436 -11 515 -11 q 376 -3 404 -11 q 326 17 349 4 q 289 44 304 29 q 267 72 274 58 l 267 0 l 94 0 l 94 983 l 267 983 l 267 636 q 337 688 290 665 q 436 711 383 711 q 575 685 515 711 q 675 611 635 658 q 735 497 715 564 q 756 350 756 431 m 575 350 q 528 509 575 454 q 413 564 481 564 q 298 509 344 564 q 251 350 251 454 q 298 191 251 246 q 413 136 344 136 q 528 191 481 136 q 575 350 575 246 z "},"c":{"ha":751,"x_min":51,"x_max":711,"o":"m 711 189 q 591 39 671 89 q 393 -11 511 -11 q 243 17 307 -11 q 137 95 179 46 q 73 210 94 144 q 51 350 51 276 q 73 490 51 424 q 137 605 94 556 q 243 683 179 654 q 393 711 307 711 q 591 661 511 711 q 711 511 671 611 l 557 449 q 490 534 529 504 q 393 564 451 564 q 272 503 311 564 q 232 350 232 443 q 272 197 232 257 q 393 136 311 136 q 490 166 451 136 q 557 251 529 196 l 711 189 z "},"d":{"ha":807,"x_min":51,"x_max":713,"o":"m 51 350 q 72 497 51 431 q 132 611 92 564 q 232 685 172 658 q 371 711 292 711 q 470 688 424 711 q 540 636 517 665 l 540 983 l 713 983 l 713 0 l 540 0 l 540 72 q 518 44 533 58 q 481 17 503 29 q 431 -3 458 4 q 371 -11 403 -11 q 232 15 292 -11 q 132 89 172 42 q 72 203 92 136 q 51 350 51 269 m 232 350 q 279 191 232 246 q 394 136 326 136 q 509 191 463 136 q 556 350 556 246 q 509 509 556 454 q 394 564 463 564 q 279 509 326 564 q 232 350 232 454 z "},"e":{"ha":757,"x_min":51,"x_max":714,"o":"m 714 294 l 232 294 q 244 237 233 265 q 276 186 256 208 q 327 150 297 164 q 397 136 357 136 q 494 162 457 136 q 563 236 532 188 l 701 185 q 653 106 681 142 q 588 44 625 69 q 501 3 550 18 q 388 -11 451 -11 q 233 22 297 -11 q 129 108 169 56 q 70 224 89 160 q 51 350 51 288 q 70 476 51 413 q 129 592 89 540 q 233 678 169 644 q 388 711 297 711 q 537 678 475 711 q 638 595 599 646 q 696 483 678 544 q 714 365 714 422 l 714 294 m 388 564 q 328 552 354 564 q 284 522 303 540 q 253 479 265 503 q 236 431 240 456 l 538 431 q 521 481 532 457 q 492 523 510 504 q 448 553 474 542 q 388 564 422 564 z "},"f":{"ha":500,"x_min":39,"x_max":463,"o":"m 39 700 l 128 700 l 128 736 q 194 924 128 864 q 369 983 261 983 q 420 981 397 983 q 463 972 443 979 l 463 817 q 421 831 440 826 q 379 836 401 836 q 322 816 343 836 q 300 749 300 796 l 300 700 l 447 700 l 447 553 l 300 553 l 300 0 l 128 0 l 128 553 l 39 553 l 39 700 z "},"g":{"ha":707,"x_min":47,"x_max":692,"o":"m 106 475 q 126 573 106 529 q 181 647 146 617 q 263 694 215 678 q 363 711 310 711 q 492 681 431 711 l 624 750 l 692 636 l 592 586 q 619 475 619 538 q 599 376 619 419 q 544 303 579 333 q 463 258 510 274 q 363 242 415 242 q 261 257 310 242 q 228 204 228 238 q 293 153 228 153 l 436 153 q 615 101 547 153 q 682 -53 682 49 q 654 -164 682 -118 q 581 -239 626 -210 q 479 -281 536 -268 q 364 -294 422 -294 q 239 -280 297 -294 q 138 -236 181 -265 q 72 -164 96 -207 q 47 -64 47 -121 q 62 15 47 -21 q 104 75 76 50 q 78 122 88 94 q 68 183 68 150 q 92 270 68 233 q 154 331 115 307 q 118 394 131 358 q 106 475 106 431 m 303 8 q 261 10 281 8 q 222 14 242 11 q 207 -50 207 -10 q 251 -125 207 -100 q 364 -150 296 -150 q 468 -131 426 -150 q 510 -64 510 -111 q 478 -6 510 -19 q 397 8 446 8 l 303 8 m 267 475 q 294 406 267 432 q 363 381 321 381 q 431 406 404 381 q 458 475 458 432 q 431 546 458 519 q 363 572 404 572 q 294 546 321 572 q 267 475 267 519 z "},"h":{"ha":793,"x_min":94,"x_max":707,"o":"m 267 983 l 267 588 q 356 676 300 640 q 489 711 413 711 q 648 660 589 711 q 707 500 707 608 l 707 0 l 535 0 l 535 439 q 431 564 535 564 q 372 549 401 564 q 319 501 342 533 q 281 417 296 468 q 267 296 267 367 l 267 0 l 94 0 l 94 983 l 267 983 z "},"i":{"ha":342,"x_min":60,"x_max":282,"o":"m 60 901 q 91 981 60 949 q 171 1013 122 1013 q 251 981 219 1013 q 282 901 282 949 q 251 822 282 854 q 171 790 219 790 q 91 822 122 790 q 60 901 60 854 m 257 700 l 257 0 l 85 0 l 85 700 l 257 700 z "},"j":{"ha":346,"x_min":-35,"x_max":286,"o":"m 261 700 l 261 -6 q 250 -126 261 -72 q 214 -217 239 -179 q 149 -274 189 -254 q 50 -294 108 -294 q -1 -291 18 -294 q -35 -282 -21 -287 l -35 -132 q 14 -143 -6 -143 q 72 -115 54 -143 q 89 -31 89 -87 l 89 700 l 261 700 m 64 901 q 95 981 64 949 q 175 1013 126 1013 q 255 981 224 1013 q 286 901 286 949 q 255 822 286 854 q 175 790 224 790 q 95 822 126 790 q 64 901 64 854 z "},"k":{"ha":729,"x_min":94,"x_max":725,"o":"m 267 983 l 267 425 l 494 700 l 707 700 l 426 378 l 725 0 l 514 0 l 267 331 l 267 0 l 94 0 l 94 983 l 267 983 z "},"l":{"ha":356,"x_min":93,"x_max":265,"o":"m 265 983 l 265 0 l 93 0 l 93 983 l 265 983 z "},"m":{"ha":1172,"x_min":94,"x_max":1086,"o":"m 504 0 l 504 467 q 481 542 504 519 q 418 564 457 564 q 310 489 354 564 q 267 257 267 414 l 267 0 l 94 0 l 94 700 l 267 700 l 267 588 q 353 678 306 646 q 468 711 400 711 q 587 677 533 711 q 664 567 640 643 q 757 673 701 635 q 878 711 813 711 q 1031 654 976 711 q 1086 496 1086 597 l 1086 0 l 914 0 l 914 467 q 890 542 914 519 q 828 564 867 564 q 721 492 765 564 q 676 272 676 421 l 676 0 l 504 0 z "},"n":{"ha":785,"x_min":94,"x_max":699,"o":"m 267 700 l 267 588 q 360 677 306 643 q 483 711 415 711 q 638 658 578 711 q 699 500 699 606 l 699 0 l 526 0 l 526 449 q 499 538 526 511 q 426 564 471 564 q 366 545 394 564 q 315 490 338 526 q 280 401 293 454 q 267 279 267 349 l 267 0 l 94 0 l 94 700 l 267 700 z "},"o":{"ha":814,"x_min":51,"x_max":763,"o":"m 51 350 q 75 492 51 426 q 144 607 99 558 q 256 683 190 656 q 407 711 322 711 q 558 683 492 711 q 669 607 624 656 q 739 492 715 558 q 763 350 763 426 q 739 208 763 274 q 669 93 715 142 q 558 17 624 44 q 407 -11 492 -11 q 256 17 322 -11 q 144 93 190 44 q 75 208 99 142 q 51 350 51 274 m 232 350 q 244 268 232 307 q 278 200 256 229 q 333 153 300 171 q 407 136 365 136 q 481 153 449 136 q 536 200 514 171 q 570 268 558 229 q 582 350 582 307 q 570 432 582 393 q 536 500 558 471 q 481 547 514 529 q 407 564 449 564 q 333 547 365 564 q 278 500 300 529 q 244 432 256 471 q 232 350 232 393 z "},"p":{"ha":807,"x_min":94,"x_max":756,"o":"m 756 350 q 735 203 756 269 q 675 89 715 136 q 575 15 635 42 q 436 -11 515 -11 q 337 12 383 -11 q 267 64 290 35 l 267 -283 l 94 -283 l 94 700 l 267 700 l 267 628 q 289 656 274 642 q 326 683 304 671 q 376 703 349 696 q 436 711 404 711 q 575 685 515 711 q 675 611 635 658 q 735 497 715 564 q 756 350 756 431 m 575 350 q 528 509 575 454 q 413 564 481 564 q 298 509 344 564 q 251 350 251 454 q 298 191 251 246 q 413 136 344 136 q 528 191 481 136 q 575 350 575 246 z "},"q":{"ha":807,"x_min":51,"x_max":713,"o":"m 51 350 q 72 497 51 431 q 132 611 92 564 q 232 685 172 658 q 371 711 292 711 q 431 703 403 711 q 481 683 458 696 q 518 656 503 671 q 540 628 533 642 l 540 700 l 713 700 l 713 -283 l 540 -283 l 540 64 q 470 12 517 35 q 371 -11 424 -11 q 232 15 292 -11 q 132 89 172 42 q 72 203 92 136 q 51 350 51 269 m 232 350 q 279 191 232 246 q 394 136 326 136 q 509 191 463 136 q 556 350 556 246 q 509 509 556 454 q 394 564 463 564 q 279 509 326 564 q 232 350 232 454 z "},"r":{"ha":564,"x_min":94,"x_max":526,"o":"m 94 0 l 94 700 l 267 700 l 267 586 q 359 680 304 649 q 474 711 414 711 q 499 710 485 711 q 526 706 514 708 l 526 538 q 454 557 494 557 q 383 540 417 557 q 323 488 349 524 q 282 392 297 451 q 267 249 267 333 l 267 0 l 94 0 z "},"s":{"ha":618,"x_min":43,"x_max":569,"o":"m 314 711 q 443 680 385 711 q 533 597 501 649 l 431 503 q 375 549 407 535 q 314 564 343 564 q 269 549 289 564 q 250 506 250 535 q 267 465 250 482 q 317 438 285 449 q 397 410 353 425 q 479 373 440 396 q 544 314 518 350 q 569 222 569 278 q 552 133 569 175 q 502 58 535 90 q 424 8 469 26 q 321 -11 378 -11 q 221 6 267 -11 q 140 51 175 24 q 81 112 106 78 q 43 178 56 146 l 181 251 q 235 168 200 200 q 321 136 269 136 q 384 154 361 136 q 407 211 407 172 q 392 247 407 233 q 351 273 376 261 q 295 294 326 285 q 232 318 264 304 q 177 346 203 331 q 132 383 151 361 q 101 436 113 406 q 90 507 90 467 q 106 584 90 547 q 151 649 122 621 q 222 694 181 678 q 314 711 263 711 z "},"t":{"ha":535,"x_min":22,"x_max":488,"o":"m 479 4 q 437 -6 461 -1 q 375 -11 413 -11 q 198 53 265 -11 q 131 247 131 117 l 131 553 l 22 553 l 22 700 l 131 700 l 131 875 l 303 983 l 303 700 l 488 700 l 488 553 l 303 553 l 303 250 q 326 160 303 185 q 394 136 350 136 q 438 142 418 136 q 479 158 457 147 l 479 4 z "},"u":{"ha":785,"x_min":86,"x_max":690,"o":"m 518 0 l 518 113 q 424 23 479 57 q 301 -11 369 -11 q 147 42 207 -11 q 86 200 86 94 l 86 700 l 258 700 l 258 251 q 286 163 258 189 q 358 136 314 136 q 418 155 389 136 q 469 210 447 174 q 505 299 492 246 q 518 421 518 351 l 518 700 l 690 700 l 690 0 l 518 0 z "},"v":{"ha":644,"x_min":7,"x_max":638,"o":"m 181 700 l 322 213 l 464 700 l 638 700 l 400 0 l 244 0 l 7 700 l 181 700 z "},"w":{"ha":1056,"x_min":31,"x_max":1025,"o":"m 1025 700 l 801 0 l 649 0 l 528 453 l 407 0 l 254 0 l 31 700 l 204 700 l 329 219 l 447 700 l 608 700 l 726 219 l 851 700 l 1025 700 z "},"x":{"ha":667,"x_min":10,"x_max":657,"o":"m 628 700 l 425 374 l 657 0 l 476 0 l 333 228 l 190 0 l 10 0 l 242 374 l 39 700 l 219 700 l 333 518 l 447 700 l 628 700 z "},"y":{"ha":668,"x_min":4,"x_max":665,"o":"m 178 700 l 340 261 l 493 700 l 665 700 l 304 -283 l 138 -283 l 258 44 l 4 700 l 178 700 z "},"z":{"ha":631,"x_min":49,"x_max":585,"o":"m 71 700 l 565 700 l 565 633 l 265 147 l 585 147 l 585 0 l 49 0 l 49 67 l 351 553 l 71 553 l 71 700 z "},"{":{"ha":465,"x_min":67,"x_max":439,"o":"m 178 300 q 153 388 178 365 q 67 411 129 411 l 67 561 q 153 584 129 561 q 178 672 178 607 l 178 903 q 216 1003 178 965 q 317 1042 254 1042 l 439 1042 l 439 892 l 401 892 q 356 878 368 892 q 344 829 344 865 l 344 622 q 336 556 344 581 q 314 516 328 531 q 281 495 300 501 q 242 486 263 489 q 281 477 263 483 q 314 456 300 471 q 336 417 328 442 q 344 350 344 392 l 344 143 q 356 94 344 107 q 401 81 368 81 l 439 81 l 439 -69 l 317 -69 q 216 -31 254 -69 q 178 69 178 7 l 178 300 z "},"|":{"ha":383,"x_min":107,"x_max":276,"o":"m 276 1042 l 276 -69 l 107 -69 l 107 1042 l 276 1042 z "},"}":{"ha":465,"x_min":26,"x_max":399,"o":"m 288 69 q 249 -31 288 7 q 149 -69 211 -69 l 26 -69 l 26 81 l 64 81 q 109 94 97 81 q 121 143 121 107 l 121 350 q 129 417 121 392 q 151 456 138 442 q 184 477 165 471 q 224 486 203 483 q 184 495 203 489 q 151 516 165 501 q 129 556 138 531 q 121 622 121 581 l 121 829 q 109 878 121 865 q 64 892 97 892 l 26 892 l 26 1042 l 149 1042 q 249 1003 211 1042 q 288 903 288 965 l 288 672 q 312 584 288 607 q 399 561 336 561 l 399 411 q 312 388 336 411 q 288 300 288 365 l 288 69 z "},"~":{"ha":878,"x_min":88,"x_max":790,"o":"m 88 442 q 121 499 100 471 q 169 548 142 526 q 229 583 197 569 q 297 596 261 596 q 377 583 342 596 q 444 555 413 571 q 508 526 476 539 q 575 514 539 514 q 647 535 615 514 q 701 585 678 556 l 790 489 q 757 432 778 460 q 708 383 736 404 q 648 348 681 361 q 581 335 615 335 q 501 347 536 335 q 433 376 465 360 q 370 404 401 392 q 303 417 339 417 q 231 396 263 417 q 176 346 200 375 l 88 442 z "}," ":{"ha":344,"x_min":0,"x_max":0,"o":""},"¡":{"ha":460,"x_min":111,"x_max":342,"o":"m 113 -283 l 151 353 l 301 353 l 340 -283 l 113 -283 m 111 583 q 144 665 111 632 q 226 697 178 697 q 308 665 275 697 q 342 583 342 632 q 308 501 342 535 q 226 467 275 467 q 144 501 178 467 q 111 583 111 535 z "},"¢":{"ha":788,"x_min":64,"x_max":724,"o":"m 724 325 q 490 133 658 165 l 490 -69 l 321 -69 l 321 133 q 208 180 256 147 q 128 259 160 213 q 80 364 96 306 q 64 486 64 422 q 80 608 64 550 q 128 713 96 667 q 208 792 160 760 q 321 839 256 825 l 321 1042 l 490 1042 l 490 839 q 724 647 658 807 l 569 585 q 503 670 542 640 q 406 700 464 700 q 284 640 324 700 q 244 486 244 579 q 284 333 244 393 q 406 272 324 272 q 503 302 464 272 q 569 388 542 332 l 724 325 z "},"£":{"ha":764,"x_min":44,"x_max":742,"o":"m 67 586 l 133 586 q 118 637 125 610 q 111 694 111 664 q 132 808 111 756 q 191 900 153 861 q 284 961 229 939 q 407 983 339 983 q 590 931 518 983 q 694 792 663 879 l 551 724 q 407 822 506 822 q 361 815 383 822 q 322 790 339 807 q 294 748 304 774 q 283 685 283 722 q 286 629 283 653 q 294 586 289 606 l 535 586 l 535 425 l 343 425 q 347 372 347 400 q 338 296 347 329 q 313 235 329 263 q 277 187 297 208 q 235 146 257 165 q 299 177 264 164 q 372 190 335 190 q 415 184 397 190 q 448 169 432 178 q 481 155 464 161 q 522 149 497 149 q 572 163 549 149 q 622 226 594 178 l 742 151 q 640 28 694 68 q 513 -11 586 -11 q 449 -3 475 -11 q 401 15 424 6 q 356 32 379 24 q 301 40 333 40 q 219 26 256 40 q 140 -11 182 13 l 44 94 q 101 148 74 121 q 149 205 128 175 q 182 268 169 235 q 194 340 194 301 q 191 385 194 364 q 182 425 188 406 l 67 425 l 67 586 z "},"¤":{"ha":783,"x_min":24,"x_max":760,"o":"m 147 289 q 113 426 113 351 q 147 564 113 501 l 24 660 l 158 794 l 254 671 q 392 707 315 707 q 529 671 468 707 l 625 794 l 760 660 l 636 564 q 671 426 671 501 q 636 289 671 351 l 760 193 l 625 58 l 529 182 q 392 146 468 146 q 254 182 315 146 l 158 58 l 24 193 l 147 289 m 279 426 q 309 337 279 371 q 392 303 339 303 q 474 337 444 303 q 504 426 504 371 q 474 516 504 482 q 392 550 444 550 q 309 516 339 550 q 279 426 279 482 z "},"¥":{"ha":744,"x_min":10,"x_max":735,"o":"m 204 972 l 372 594 l 540 972 l 735 972 l 535 564 l 661 564 l 661 414 l 463 414 l 463 314 l 661 314 l 661 164 l 463 164 l 463 0 l 282 0 l 282 164 l 83 164 l 83 314 l 282 314 l 282 414 l 83 414 l 83 564 l 210 564 l 10 972 l 204 972 z "},"¦":{"ha":383,"x_min":107,"x_max":276,"o":"m 276 415 l 276 -69 l 107 -69 l 107 415 l 276 415 m 107 557 l 107 1042 l 276 1042 l 276 557 l 107 557 z "},"§":{"ha":739,"x_min":71,"x_max":668,"o":"m 668 308 q 647 195 668 242 q 586 115 625 149 q 614 44 607 79 q 621 -24 621 8 q 601 -136 621 -86 q 546 -222 581 -186 q 465 -276 511 -257 q 369 -294 419 -294 q 190 -243 261 -294 q 92 -85 119 -192 l 244 -35 q 296 -112 264 -90 q 369 -133 328 -133 q 431 -108 407 -133 q 454 -33 454 -83 q 437 27 454 1 q 388 74 419 53 q 313 117 357 96 q 217 165 269 138 q 113 248 154 197 q 71 381 71 299 q 92 494 71 447 q 153 574 114 540 q 125 645 132 610 q 118 713 118 681 q 138 825 118 775 q 193 910 158 875 q 274 965 228 946 q 369 983 319 983 q 549 932 478 983 q 647 774 619 881 l 494 724 q 443 801 475 779 q 369 822 411 822 q 308 797 332 822 q 285 722 285 772 q 302 661 285 686 q 351 615 319 636 q 426 572 382 593 q 522 524 469 550 q 626 441 585 492 q 668 308 668 390 m 518 296 q 494 351 518 326 q 434 395 471 375 q 352 435 397 415 q 263 478 307 454 q 232 442 243 463 q 221 393 221 421 q 244 338 221 361 q 305 294 268 314 q 387 253 342 274 q 476 211 432 233 q 507 247 496 226 q 518 296 518 268 z "},"¨":{"ha":524,"x_min":19,"x_max":504,"o":"m 19 904 q 47 975 19 947 q 118 1003 74 1003 q 190 975 163 1003 q 217 904 217 947 q 190 833 217 861 q 118 806 163 806 q 47 833 74 806 q 19 904 19 861 m 307 904 q 334 975 307 947 q 406 1003 361 1003 q 477 975 450 1003 q 504 904 504 947 q 477 833 504 861 q 406 806 450 806 q 334 833 361 806 q 307 904 307 861 z "},"©":{"ha":1211,"x_min":71,"x_max":1140,"o":"m 71 486 q 112 701 71 601 q 224 873 153 800 q 394 987 296 946 q 606 1028 492 1028 q 817 987 719 1028 q 986 873 914 946 q 1099 701 1058 800 q 1140 486 1140 601 q 1099 272 1140 371 q 986 99 1058 172 q 817 -15 914 26 q 606 -56 719 -56 q 394 -15 492 -56 q 224 99 296 26 q 112 272 153 172 q 71 486 71 371 m 224 486 q 252 328 224 400 q 331 203 281 256 q 452 121 382 150 q 606 92 522 92 q 759 121 689 92 q 880 203 829 150 q 959 328 931 256 q 988 486 988 400 q 959 644 988 572 q 880 769 931 717 q 759 851 829 822 q 606 881 689 881 q 452 851 522 881 q 331 769 382 822 q 252 644 281 717 q 224 486 224 572 m 863 382 q 832 297 856 333 q 774 235 808 260 q 697 199 740 211 q 606 186 653 186 q 501 205 551 186 q 411 261 450 224 q 349 355 372 299 q 326 486 326 411 q 349 617 326 561 q 411 711 372 674 q 501 767 450 749 q 606 786 551 786 q 697 774 653 786 q 774 737 740 761 q 832 676 808 713 q 863 590 856 639 l 728 564 q 676 636 710 618 q 606 654 643 654 q 514 608 549 654 q 479 486 479 561 q 514 365 479 411 q 606 318 549 318 q 676 336 643 318 q 728 408 710 354 l 863 382 z "},"ª":{"ha":601,"x_min":69,"x_max":531,"o":"m 90 825 q 159 935 103 893 q 300 978 215 978 q 391 967 349 978 q 465 928 433 956 q 513 858 496 901 q 531 747 531 814 l 531 417 l 418 417 l 406 489 q 336 433 376 454 q 236 411 296 411 q 172 422 203 411 q 119 454 142 433 q 83 506 96 475 q 69 578 69 538 q 87 653 69 619 q 135 710 104 686 q 208 746 165 733 q 304 758 251 758 l 396 758 l 396 782 q 367 845 396 828 q 300 863 338 863 q 244 850 271 863 q 204 799 218 838 l 90 825 m 211 578 q 224 542 211 558 q 268 526 238 526 q 315 534 292 526 q 356 556 338 542 q 385 592 374 571 q 396 640 396 614 l 396 656 l 304 656 q 236 635 261 656 q 211 578 211 614 z "},"«":{"ha":958,"x_min":53,"x_max":899,"o":"m 53 488 l 482 790 l 482 613 l 225 431 l 482 249 l 482 71 l 53 374 l 53 488 m 469 488 l 899 790 l 899 613 l 642 431 l 899 249 l 899 71 l 469 374 l 469 488 z "},"¬":{"ha":801,"x_min":71,"x_max":718,"o":"m 71 565 l 718 565 l 718 197 l 546 197 l 546 410 l 71 410 l 71 565 z "},"®":{"ha":1211,"x_min":71,"x_max":1140,"o":"m 71 486 q 112 701 71 601 q 224 873 153 800 q 394 987 296 946 q 606 1028 492 1028 q 817 987 719 1028 q 986 873 914 946 q 1099 701 1058 800 q 1140 486 1140 601 q 1099 272 1140 371 q 986 99 1058 172 q 817 -15 914 26 q 606 -56 719 -56 q 394 -15 492 -56 q 224 99 296 26 q 112 272 153 172 q 71 486 71 371 m 224 486 q 252 328 224 400 q 331 203 281 256 q 452 121 382 150 q 606 92 522 92 q 759 121 689 92 q 880 203 829 150 q 959 328 931 256 q 988 486 988 400 q 959 644 988 572 q 880 769 931 717 q 759 851 829 822 q 606 881 689 881 q 452 851 522 881 q 331 769 382 822 q 252 644 281 717 q 224 486 224 572 m 551 443 l 535 443 l 535 190 l 389 190 l 389 782 l 624 782 q 771 738 724 782 q 818 613 818 693 q 785 501 818 542 q 697 450 751 461 l 860 190 l 703 190 l 551 443 m 535 667 l 535 558 l 610 558 q 663 574 649 558 q 676 613 676 589 q 663 652 676 638 q 610 667 649 667 l 535 667 z "},"¯":{"ha":396,"x_min":11,"x_max":385,"o":"m 11 1011 l 385 1011 l 385 858 l 11 858 l 11 1011 z "},"°":{"ha":481,"x_min":71,"x_max":410,"o":"m 71 824 q 83 890 71 860 q 119 944 96 921 q 173 979 142 967 q 240 992 204 992 q 308 979 276 992 q 362 944 339 967 q 397 890 385 921 q 410 824 410 860 q 397 757 410 788 q 362 703 385 726 q 308 668 339 681 q 240 656 276 656 q 173 668 204 656 q 119 703 142 681 q 83 757 96 726 q 71 824 71 788 m 186 824 q 201 783 186 799 q 240 768 215 768 q 280 783 265 768 q 294 824 294 799 q 280 864 294 849 q 240 879 265 879 q 201 864 215 879 q 186 824 186 849 z "},"±":{"ha":799,"x_min":69,"x_max":732,"o":"m 475 885 l 475 629 l 731 629 l 731 479 l 475 479 l 475 224 l 325 224 l 325 479 l 69 479 l 69 629 l 325 629 l 325 885 l 475 885 m 71 151 l 732 151 l 732 1 l 71 1 l 71 151 z "},"²":{"ha":506,"x_min":64,"x_max":440,"o":"m 64 465 l 265 711 q 295 760 288 738 q 303 806 303 783 q 288 848 303 833 q 250 863 274 863 q 207 848 226 863 q 179 789 188 833 l 68 821 q 127 935 76 892 q 250 978 178 978 q 381 933 331 978 q 432 808 432 888 q 416 732 432 765 q 376 671 400 699 l 263 532 l 440 532 l 440 417 l 64 417 l 64 465 z "},"³":{"ha":518,"x_min":64,"x_max":453,"o":"m 175 600 q 205 544 182 563 q 256 526 228 526 q 324 608 324 526 q 304 665 324 647 q 257 682 285 682 q 230 678 240 682 q 206 668 219 675 l 150 738 l 242 857 l 89 857 l 89 972 l 418 972 l 418 924 l 294 765 q 358 752 329 765 q 408 717 388 739 q 441 667 429 696 q 453 604 453 638 q 406 465 453 518 q 258 411 358 411 q 181 424 215 411 q 121 461 146 438 q 81 517 96 485 q 64 586 65 549 l 175 600 z "},"´":{"ha":357,"x_min":18,"x_max":340,"o":"m 107 983 l 340 983 l 150 778 l 18 778 l 107 983 z "},"µ":{"ha":785,"x_min":86,"x_max":690,"o":"m 518 0 l 518 113 q 424 23 479 57 q 301 -11 369 -11 q 258 -7 279 -11 l 258 -283 l 86 -283 l 86 700 l 258 700 l 258 251 q 286 163 258 189 q 358 136 314 136 q 418 155 389 136 q 469 210 447 174 q 505 299 492 246 q 518 421 518 351 l 518 700 l 690 700 l 690 0 l 518 0 z "},"¶":{"ha":1010,"x_min":64,"x_max":939,"o":"m 64 657 q 89 780 64 722 q 156 880 114 838 q 256 947 199 922 q 379 972 314 972 l 939 972 l 939 822 l 853 822 l 853 -283 l 686 -283 l 686 822 l 546 822 l 546 -283 l 379 -283 l 379 342 q 256 367 314 342 q 156 434 199 392 q 89 534 114 476 q 64 657 64 592 z "},"·":{"ha":422,"x_min":94,"x_max":328,"o":"m 94 511 q 128 594 94 561 q 211 628 161 628 q 294 594 261 628 q 328 511 328 561 q 294 428 328 461 q 211 394 261 394 q 128 428 161 394 q 94 511 94 461 z "},"¸":{"ha":335,"x_min":7,"x_max":328,"o":"m 213 -369 l 7 -278 l 203 -83 l 328 -83 l 213 -369 z "},"¹":{"ha":399,"x_min":63,"x_max":304,"o":"m 304 972 l 304 417 l 181 417 l 181 803 l 63 750 l 63 882 l 253 972 l 304 972 z "},"º":{"ha":700,"x_min":71,"x_max":629,"o":"m 71 694 q 90 806 71 754 q 144 897 108 858 q 232 956 181 935 q 350 978 283 978 q 468 956 417 978 q 556 897 519 935 q 610 806 592 858 q 629 694 629 754 q 610 583 629 635 q 556 492 592 531 q 468 433 519 454 q 350 411 417 411 q 232 433 283 411 q 144 492 181 454 q 90 583 108 531 q 71 694 71 635 m 213 694 q 222 631 213 661 q 249 577 231 600 q 292 540 267 554 q 350 526 317 526 q 408 540 383 526 q 451 577 433 554 q 478 631 469 600 q 488 694 488 661 q 478 758 488 728 q 451 812 469 789 q 408 849 433 835 q 350 863 383 863 q 292 849 317 863 q 249 812 267 835 q 222 758 231 789 q 213 694 213 728 z "},"»":{"ha":958,"x_min":60,"x_max":906,"o":"m 906 374 l 476 71 l 476 249 l 733 431 l 476 613 l 476 790 l 906 488 l 906 374 m 489 374 l 60 71 l 60 249 l 317 431 l 60 613 l 60 790 l 489 488 l 489 374 z "},"¼":{"ha":1168,"x_min":83,"x_max":1074,"o":"m 1015 946 l 268 -53 l 168 28 l 915 1025 l 1015 946 m 325 972 l 325 417 l 201 417 l 201 803 l 83 750 l 83 882 l 274 972 l 325 972 m 890 92 l 658 92 l 658 154 l 882 557 l 1014 557 l 1014 207 l 1074 207 l 1074 92 l 1014 92 l 1014 1 l 890 1 l 890 92 m 890 207 l 890 376 l 803 207 l 890 207 z "},"½":{"ha":1244,"x_min":83,"x_max":1150,"o":"m 1015 946 l 268 -53 l 168 28 l 915 1025 l 1015 946 m 325 972 l 325 417 l 201 417 l 201 803 l 83 750 l 83 882 l 274 972 l 325 972 m 774 50 l 975 296 q 1005 345 997 322 q 1013 390 1013 368 q 998 433 1013 418 q 960 447 983 447 q 917 433 936 447 q 889 374 897 418 l 778 406 q 837 519 786 476 q 960 563 888 563 q 1091 517 1040 563 q 1142 393 1142 472 q 1126 317 1142 350 q 1086 256 1110 283 l 972 117 l 1150 117 l 1150 1 l 774 1 l 774 50 z "},"¾":{"ha":1147,"x_min":64,"x_max":1082,"o":"m 1050 946 l 303 -53 l 203 28 l 950 1025 l 1050 946 m 175 600 q 205 544 182 563 q 256 526 228 526 q 324 608 324 526 q 304 665 324 647 q 257 682 285 682 q 230 678 240 682 q 206 668 219 675 l 150 738 l 242 857 l 89 857 l 89 972 l 418 972 l 418 924 l 294 765 q 358 752 329 765 q 408 717 388 739 q 441 667 429 696 q 453 604 453 638 q 406 465 453 518 q 258 411 358 411 q 181 424 215 411 q 121 461 146 438 q 81 517 96 485 q 64 586 65 549 l 175 600 m 899 92 l 667 92 l 667 154 l 890 557 l 1022 557 l 1022 207 l 1082 207 l 1082 92 l 1022 92 l 1022 1 l 899 1 l 899 92 m 899 207 l 899 376 l 811 207 l 899 207 z "},"¿":{"ha":636,"x_min":57,"x_max":579,"o":"m 115 250 q 190 355 139 317 q 317 393 242 393 q 454 344 400 393 q 508 215 508 296 q 467 102 508 144 q 358 35 425 60 q 291 6 318 19 q 248 -22 264 -8 q 226 -49 232 -35 q 219 -81 219 -64 q 246 -133 219 -117 q 310 -150 272 -150 q 428 -57 400 -150 l 579 -82 q 550 -165 571 -126 q 496 -232 529 -203 q 417 -278 463 -261 q 314 -294 371 -294 q 127 -235 197 -294 q 57 -75 57 -175 q 70 -3 57 -33 q 108 51 83 28 q 167 92 132 74 q 249 128 203 110 q 342 173 317 154 q 367 219 367 192 q 352 256 367 243 q 317 268 338 268 q 268 251 288 268 q 238 204 249 233 l 115 250 m 432 583 q 399 501 432 535 q 317 467 365 467 q 235 501 268 467 q 201 583 201 535 q 235 665 201 632 q 317 697 268 697 q 399 665 365 697 q 432 583 432 632 z "},"À":{"ha":853,"x_min":7,"x_max":846,"o":"m 581 229 l 272 229 l 201 0 l 7 0 l 336 972 l 517 972 l 846 0 l 651 0 l 581 229 m 324 396 l 529 396 l 426 733 l 324 396 m 526 1050 l 394 1050 l 204 1256 l 438 1256 l 526 1050 z "},"Á":{"ha":853,"x_min":7,"x_max":846,"o":"m 581 229 l 272 229 l 201 0 l 7 0 l 336 972 l 517 972 l 846 0 l 651 0 l 581 229 m 324 396 l 529 396 l 426 733 l 324 396 m 407 1256 l 640 1256 l 450 1050 l 318 1050 l 407 1256 z "},"Â":{"ha":853,"x_min":7,"x_max":846,"o":"m 581 229 l 272 229 l 201 0 l 7 0 l 336 972 l 517 972 l 846 0 l 651 0 l 581 229 m 324 396 l 529 396 l 426 733 l 324 396 m 403 1317 l 450 1317 l 688 1058 l 521 1058 l 426 1161 l 332 1058 l 165 1058 l 403 1317 z "},"Ã":{"ha":853,"x_min":7,"x_max":846,"o":"m 581 229 l 272 229 l 201 0 l 7 0 l 336 972 l 517 972 l 846 0 l 651 0 l 581 229 m 324 396 l 529 396 l 426 733 l 324 396 m 160 1139 q 231 1226 183 1192 q 331 1260 278 1260 q 389 1251 365 1260 q 432 1231 413 1242 q 471 1212 451 1221 q 515 1203 490 1203 q 562 1219 539 1203 q 604 1263 585 1235 l 694 1186 q 624 1099 671 1133 q 524 1065 576 1065 q 465 1074 489 1065 q 422 1094 442 1083 q 383 1113 401 1104 q 339 1122 364 1122 q 292 1106 315 1122 q 250 1063 269 1090 l 160 1139 z "},"Ä":{"ha":853,"x_min":7,"x_max":846,"o":"m 581 229 l 272 229 l 201 0 l 7 0 l 336 972 l 517 972 l 846 0 l 651 0 l 581 229 m 324 396 l 529 396 l 426 733 l 324 396 m 185 1176 q 212 1247 185 1219 q 283 1275 239 1275 q 355 1247 328 1275 q 382 1176 382 1219 q 355 1106 382 1133 q 283 1078 328 1078 q 212 1106 239 1078 q 185 1176 185 1133 m 472 1176 q 499 1247 472 1219 q 571 1275 526 1275 q 642 1247 615 1275 q 669 1176 669 1219 q 642 1106 669 1133 q 571 1078 615 1078 q 499 1106 526 1078 q 472 1176 472 1133 z "},"Å":{"ha":853,"x_min":7,"x_max":846,"o":"m 581 229 l 272 229 l 201 0 l 7 0 l 336 972 l 517 972 l 846 0 l 651 0 l 581 229 m 324 396 l 529 396 l 426 733 l 324 396 m 283 1182 q 324 1283 283 1243 q 426 1324 364 1324 q 529 1283 489 1324 q 569 1182 569 1243 q 529 1081 569 1121 q 426 1040 489 1040 q 324 1081 364 1040 q 283 1182 283 1121 m 385 1182 q 396 1150 385 1163 q 426 1138 407 1138 q 457 1150 446 1138 q 468 1182 468 1163 q 457 1214 468 1201 q 426 1226 446 1226 q 396 1214 407 1226 q 385 1182 385 1201 z "},"Æ":{"ha":1183,"x_min":10,"x_max":1133,"o":"m 1119 972 l 1119 806 l 699 806 l 699 601 l 1036 601 l 1036 435 l 699 435 l 699 167 l 1133 167 l 1133 0 l 518 0 l 518 229 l 296 229 l 204 0 l 10 0 l 435 972 l 1119 972 m 364 396 l 518 396 l 518 733 l 500 733 l 364 396 z "},"Ç":{"ha":957,"x_min":57,"x_max":919,"o":"m 757 647 q 674 769 729 721 q 517 817 618 817 q 410 797 460 817 q 322 735 360 776 q 263 633 285 694 q 240 486 240 571 q 263 340 240 401 q 322 237 285 278 q 410 176 360 196 q 517 156 460 156 q 674 203 618 156 q 757 325 729 251 l 919 283 q 781 66 885 143 q 517 -11 676 -11 q 342 21 425 -11 q 196 115 260 53 q 94 271 132 178 q 57 486 57 364 q 94 701 57 608 q 196 857 132 794 q 342 951 260 919 q 517 983 425 983 q 781 906 676 983 q 919 689 885 829 l 757 647 m 518 -369 l 313 -278 l 508 -83 l 633 -83 l 518 -369 z "},"È":{"ha":772,"x_min":107,"x_max":722,"o":"m 708 972 l 708 806 l 288 806 l 288 601 l 625 601 l 625 435 l 288 435 l 288 167 l 722 167 l 722 0 l 107 0 l 107 972 l 708 972 m 517 1050 l 385 1050 l 194 1256 l 428 1256 l 517 1050 z "},"É":{"ha":772,"x_min":107,"x_max":722,"o":"m 708 972 l 708 806 l 288 806 l 288 601 l 625 601 l 625 435 l 288 435 l 288 167 l 722 167 l 722 0 l 107 0 l 107 972 l 708 972 m 374 1256 l 607 1256 l 417 1050 l 285 1050 l 374 1256 z "},"Ê":{"ha":772,"x_min":107,"x_max":722,"o":"m 708 972 l 708 806 l 288 806 l 288 601 l 625 601 l 625 435 l 288 435 l 288 167 l 722 167 l 722 0 l 107 0 l 107 972 l 708 972 m 392 1317 l 439 1317 l 676 1058 l 510 1058 l 415 1161 l 321 1058 l 154 1058 l 392 1317 z "},"Ë":{"ha":772,"x_min":107,"x_max":722,"o":"m 708 972 l 708 806 l 288 806 l 288 601 l 625 601 l 625 435 l 288 435 l 288 167 l 722 167 l 722 0 l 107 0 l 107 972 l 708 972 m 175 1176 q 202 1247 175 1219 q 274 1275 229 1275 q 345 1247 318 1275 q 372 1176 372 1219 q 345 1106 372 1133 q 274 1078 318 1078 q 202 1106 229 1078 q 175 1176 175 1133 m 463 1176 q 490 1247 463 1219 q 561 1275 517 1275 q 633 1247 606 1275 q 660 1176 660 1219 q 633 1106 660 1133 q 561 1078 606 1078 q 490 1106 517 1078 q 463 1176 463 1133 z "},"Ì":{"ha":414,"x_min":-6,"x_max":317,"o":"m 306 0 l 125 0 l 125 972 l 306 972 l 306 0 m 317 1050 l 185 1050 l -6 1256 l 228 1256 l 317 1050 z "},"Í":{"ha":414,"x_min":99,"x_max":421,"o":"m 289 0 l 108 0 l 108 972 l 289 972 l 289 0 m 188 1256 l 421 1256 l 231 1050 l 99 1050 l 188 1256 z "},"Î":{"ha":419,"x_min":-50,"x_max":472,"o":"m 300 0 l 119 0 l 119 972 l 300 972 l 300 0 m 188 1317 l 235 1317 l 472 1058 l 306 1058 l 211 1161 l 117 1058 l -50 1058 l 188 1317 z "},"Ï":{"ha":424,"x_min":-28,"x_max":457,"o":"m 303 0 l 122 0 l 122 972 l 303 972 l 303 0 m -28 1176 q -1 1247 -28 1219 q 71 1275 26 1275 q 142 1247 115 1275 q 169 1176 169 1219 q 142 1106 169 1133 q 71 1078 115 1078 q -1 1106 26 1078 q -28 1176 -28 1133 m 260 1176 q 287 1247 260 1219 q 358 1275 314 1275 q 430 1247 403 1275 q 457 1176 457 1219 q 430 1106 457 1133 q 358 1078 403 1078 q 287 1106 314 1078 q 260 1176 260 1133 z "},"Ð":{"ha":969,"x_min":26,"x_max":913,"o":"m 26 561 l 156 561 l 156 972 l 460 972 q 627 944 546 972 q 772 857 708 917 q 874 706 836 797 q 913 486 913 614 q 874 267 913 358 q 772 115 836 175 q 627 28 708 56 q 460 0 546 0 l 156 0 l 156 411 l 26 411 l 26 561 m 336 806 l 336 561 l 465 561 l 465 411 l 336 411 l 336 167 l 403 167 q 519 181 461 167 q 624 230 578 194 q 700 327 671 265 q 729 486 729 389 q 700 645 729 583 q 624 742 671 707 q 519 792 578 778 q 403 806 461 806 l 336 806 z "},"Ñ":{"ha":942,"x_min":107,"x_max":835,"o":"m 835 972 l 835 0 l 644 0 l 288 642 l 288 0 l 107 0 l 107 972 l 297 972 l 654 331 l 654 972 l 835 972 m 196 1139 q 267 1226 219 1192 q 367 1260 314 1260 q 425 1251 401 1260 q 468 1231 449 1242 q 507 1212 488 1221 q 551 1203 526 1203 q 598 1219 575 1203 q 640 1263 621 1235 l 731 1186 q 660 1099 707 1133 q 560 1065 613 1065 q 501 1074 525 1065 q 458 1094 478 1083 q 419 1113 438 1104 q 375 1122 400 1122 q 328 1106 351 1122 q 286 1063 306 1090 l 196 1139 z "},"Ò":{"ha":1031,"x_min":57,"x_max":974,"o":"m 515 983 q 690 953 607 983 q 837 861 774 922 q 937 706 900 800 q 974 486 974 613 q 937 266 974 360 q 837 111 900 172 q 690 19 774 50 q 515 -11 607 -11 q 340 19 424 -11 q 194 111 257 50 q 94 266 131 172 q 57 486 57 360 q 94 706 57 613 q 194 861 131 800 q 340 953 257 922 q 515 983 424 983 m 515 817 q 411 797 461 817 q 323 738 361 778 q 263 635 285 697 q 240 486 240 572 q 263 338 240 400 q 323 235 285 275 q 411 175 361 194 q 515 156 461 156 q 619 175 569 156 q 708 235 669 194 q 768 338 746 275 q 790 486 790 400 q 768 635 790 572 q 708 738 746 697 q 619 797 669 778 q 515 817 569 817 m 606 1050 l 474 1050 l 283 1256 l 517 1256 l 606 1050 z "},"Ó":{"ha":1031,"x_min":57,"x_max":974,"o":"m 515 983 q 690 953 607 983 q 837 861 774 922 q 937 706 900 800 q 974 486 974 613 q 937 266 974 360 q 837 111 900 172 q 690 19 774 50 q 515 -11 607 -11 q 340 19 424 -11 q 194 111 257 50 q 94 266 131 172 q 57 486 57 360 q 94 706 57 613 q 194 861 131 800 q 340 953 257 922 q 515 983 424 983 m 515 817 q 411 797 461 817 q 323 738 361 778 q 263 635 285 697 q 240 486 240 572 q 263 338 240 400 q 323 235 285 275 q 411 175 361 194 q 515 156 461 156 q 619 175 569 156 q 708 235 669 194 q 768 338 746 275 q 790 486 790 400 q 768 635 790 572 q 708 738 746 697 q 619 797 669 778 q 515 817 569 817 m 492 1256 l 725 1256 l 535 1050 l 403 1050 l 492 1256 z "},"Ô":{"ha":1031,"x_min":57,"x_max":974,"o":"m 515 983 q 690 953 607 983 q 837 861 774 922 q 937 706 900 800 q 974 486 974 613 q 937 266 974 360 q 837 111 900 172 q 690 19 774 50 q 515 -11 607 -11 q 340 19 424 -11 q 194 111 257 50 q 94 266 131 172 q 57 486 57 360 q 94 706 57 613 q 194 861 131 800 q 340 953 257 922 q 515 983 424 983 m 515 817 q 411 797 461 817 q 323 738 361 778 q 263 635 285 697 q 240 486 240 572 q 263 338 240 400 q 323 235 285 275 q 411 175 361 194 q 515 156 461 156 q 619 175 569 156 q 708 235 669 194 q 768 338 746 275 q 790 486 790 400 q 768 635 790 572 q 708 738 746 697 q 619 797 669 778 q 515 817 569 817 m 492 1317 l 539 1317 l 776 1058 l 610 1058 l 515 1161 l 421 1058 l 254 1058 l 492 1317 z "},"Õ":{"ha":1031,"x_min":57,"x_max":974,"o":"m 515 983 q 690 953 607 983 q 837 861 774 922 q 937 706 900 800 q 974 486 974 613 q 937 266 974 360 q 837 111 900 172 q 690 19 774 50 q 515 -11 607 -11 q 340 19 424 -11 q 194 111 257 50 q 94 266 131 172 q 57 486 57 360 q 94 706 57 613 q 194 861 131 800 q 340 953 257 922 q 515 983 424 983 m 515 817 q 411 797 461 817 q 323 738 361 778 q 263 635 285 697 q 240 486 240 572 q 263 338 240 400 q 323 235 285 275 q 411 175 361 194 q 515 156 461 156 q 619 175 569 156 q 708 235 669 194 q 768 338 746 275 q 790 486 790 400 q 768 635 790 572 q 708 738 746 697 q 619 797 669 778 q 515 817 569 817 m 249 1139 q 319 1226 272 1192 q 419 1260 367 1260 q 478 1251 454 1260 q 521 1231 501 1242 q 560 1212 540 1221 q 604 1203 579 1203 q 651 1219 628 1203 q 693 1263 674 1235 l 783 1186 q 713 1099 760 1133 q 613 1065 665 1065 q 554 1074 578 1065 q 510 1094 531 1083 q 472 1113 490 1104 q 428 1122 453 1122 q 381 1106 404 1122 q 339 1063 358 1090 l 249 1139 z "},"Ö":{"ha":1031,"x_min":57,"x_max":974,"o":"m 515 983 q 690 953 607 983 q 837 861 774 922 q 937 706 900 800 q 974 486 974 613 q 937 266 974 360 q 837 111 900 172 q 690 19 774 50 q 515 -11 607 -11 q 340 19 424 -11 q 194 111 257 50 q 94 266 131 172 q 57 486 57 360 q 94 706 57 613 q 194 861 131 800 q 340 953 257 922 q 515 983 424 983 m 515 817 q 411 797 461 817 q 323 738 361 778 q 263 635 285 697 q 240 486 240 572 q 263 338 240 400 q 323 235 285 275 q 411 175 361 194 q 515 156 461 156 q 619 175 569 156 q 708 235 669 194 q 768 338 746 275 q 790 486 790 400 q 768 635 790 572 q 708 738 746 697 q 619 797 669 778 q 515 817 569 817 m 274 1176 q 301 1247 274 1219 q 372 1275 328 1275 q 444 1247 417 1275 q 471 1176 471 1219 q 444 1106 471 1133 q 372 1078 417 1078 q 301 1106 328 1078 q 274 1176 274 1133 m 561 1176 q 588 1247 561 1219 q 660 1275 615 1275 q 731 1247 704 1275 q 758 1176 758 1219 q 731 1106 758 1133 q 660 1078 704 1078 q 588 1106 615 1078 q 561 1176 561 1133 z "},"×":{"ha":794,"x_min":71,"x_max":724,"o":"m 617 114 l 397 335 l 178 114 l 71 221 l 292 440 l 71 660 l 178 767 l 397 546 l 617 767 l 724 660 l 503 440 l 724 221 l 617 114 z "},"Ø":{"ha":1031,"x_min":57,"x_max":974,"o":"m 963 942 l 871 824 q 947 678 919 763 q 974 486 974 594 q 937 266 974 360 q 837 111 900 172 q 690 19 774 50 q 515 -11 607 -11 q 387 4 449 -11 q 272 51 325 19 l 188 -57 l 68 31 l 160 149 q 84 294 111 210 q 57 486 57 378 q 94 706 57 613 q 194 861 131 800 q 340 953 257 922 q 515 983 424 983 q 644 968 582 983 q 758 921 706 953 l 843 1029 l 963 942 m 790 486 q 781 590 790 543 q 753 672 771 636 l 379 190 q 515 156 440 156 q 619 174 569 156 q 708 233 669 193 q 768 336 746 274 q 790 486 790 399 m 515 817 q 411 798 461 817 q 323 739 361 779 q 263 636 285 699 q 240 486 240 574 q 250 383 240 429 q 278 300 260 336 l 651 782 q 515 817 590 817 z "},"Ù":{"ha":883,"x_min":79,"x_max":804,"o":"m 804 369 q 777 201 804 272 q 702 82 750 129 q 588 12 654 35 q 442 -11 521 -11 q 296 12 363 -11 q 181 82 229 35 q 106 201 133 129 q 79 369 79 272 l 79 972 l 260 972 l 260 367 q 442 156 260 156 q 624 367 624 156 l 624 972 l 804 972 l 804 369 m 533 1050 l 401 1050 l 211 1256 l 444 1256 l 533 1050 z "},"Ú":{"ha":883,"x_min":79,"x_max":804,"o":"m 804 369 q 777 201 804 272 q 702 82 750 129 q 588 12 654 35 q 442 -11 521 -11 q 296 12 363 -11 q 181 82 229 35 q 106 201 133 129 q 79 369 79 272 l 79 972 l 260 972 l 260 367 q 442 156 260 156 q 624 367 624 156 l 624 972 l 804 972 l 804 369 m 438 1256 l 671 1256 l 481 1050 l 349 1050 l 438 1256 z "},"Û":{"ha":883,"x_min":79,"x_max":804,"o":"m 804 369 q 777 201 804 272 q 702 82 750 129 q 588 12 654 35 q 442 -11 521 -11 q 296 12 363 -11 q 181 82 229 35 q 106 201 133 129 q 79 369 79 272 l 79 972 l 260 972 l 260 367 q 442 156 260 156 q 624 367 624 156 l 624 972 l 804 972 l 804 369 m 418 1317 l 465 1317 l 703 1058 l 536 1058 l 442 1161 l 347 1058 l 181 1058 l 418 1317 z "},"Ü":{"ha":883,"x_min":79,"x_max":804,"o":"m 804 369 q 777 201 804 272 q 702 82 750 129 q 588 12 654 35 q 442 -11 521 -11 q 296 12 363 -11 q 181 82 229 35 q 106 201 133 129 q 79 369 79 272 l 79 972 l 260 972 l 260 367 q 442 156 260 156 q 624 367 624 156 l 624 972 l 804 972 l 804 369 m 200 1176 q 227 1247 200 1219 q 299 1275 254 1275 q 370 1247 343 1275 q 397 1176 397 1219 q 370 1106 397 1133 q 299 1078 343 1078 q 227 1106 254 1078 q 200 1176 200 1133 m 488 1176 q 515 1247 488 1219 q 586 1275 542 1275 q 658 1247 631 1275 q 685 1176 685 1219 q 658 1106 685 1133 q 586 1078 631 1078 q 515 1106 542 1078 q 488 1176 488 1133 z "},"Ý":{"ha":742,"x_min":0,"x_max":742,"o":"m 194 972 l 371 594 l 547 972 l 742 972 l 461 414 l 461 0 l 281 0 l 281 414 l 0 972 l 194 972 m 354 1256 l 588 1256 l 397 1050 l 265 1050 l 354 1256 z "},"Þ":{"ha":801,"x_min":107,"x_max":778,"o":"m 288 190 l 288 0 l 107 0 l 107 972 l 288 972 l 288 782 l 474 782 q 608 760 550 782 q 703 698 665 738 q 759 604 740 658 q 778 486 778 550 q 759 368 778 422 q 703 274 740 314 q 608 213 665 235 q 474 190 550 190 l 288 190 m 467 357 q 560 388 526 357 q 594 486 594 419 q 560 584 594 553 q 467 615 526 615 l 288 615 l 288 357 l 467 357 z "},"ß":{"ha":779,"x_min":39,"x_max":732,"o":"m 39 608 l 111 608 l 111 694 q 132 819 111 765 q 190 910 153 874 q 278 965 226 947 q 390 983 329 983 q 588 916 521 983 q 654 738 654 849 q 621 619 654 667 q 543 557 588 572 q 615 526 581 546 q 675 474 649 506 q 717 401 701 443 q 732 304 732 358 q 653 64 732 139 q 422 -11 574 -11 q 374 -8 400 -11 q 332 0 347 -4 l 332 150 q 374 142 353 146 q 419 139 396 139 q 533 181 501 139 q 565 294 565 224 q 522 417 565 381 q 399 453 478 453 l 353 453 l 353 608 l 381 608 q 465 635 433 608 q 497 722 497 663 q 468 807 497 778 q 390 836 439 836 q 309 802 340 836 q 278 699 278 768 l 278 0 l 111 0 l 111 453 l 39 453 l 39 608 z "},"à":{"ha":835,"x_min":51,"x_max":740,"o":"m 51 350 q 74 497 51 431 q 139 611 96 564 q 244 685 182 658 q 385 711 306 711 q 494 687 443 711 q 568 633 544 663 l 568 700 l 740 700 l 740 0 l 568 0 l 568 72 q 497 13 543 38 q 385 -11 450 -11 q 244 15 306 -11 q 139 89 182 42 q 74 203 96 136 q 51 350 51 269 m 232 350 q 247 258 232 297 q 286 191 261 218 q 343 150 311 164 q 408 136 375 136 q 474 150 442 136 q 530 191 506 164 q 569 258 554 218 q 583 350 583 297 q 569 442 583 401 q 530 509 554 482 q 474 550 506 536 q 408 564 442 564 q 343 550 375 564 q 286 509 311 536 q 247 442 261 482 q 232 350 232 401 m 494 778 l 363 778 l 172 983 l 406 983 l 494 778 z "},"á":{"ha":835,"x_min":51,"x_max":740,"o":"m 51 350 q 74 497 51 431 q 139 611 96 564 q 244 685 182 658 q 385 711 306 711 q 494 687 443 711 q 568 633 544 663 l 568 700 l 740 700 l 740 0 l 568 0 l 568 72 q 497 13 543 38 q 385 -11 450 -11 q 244 15 306 -11 q 139 89 182 42 q 74 203 96 136 q 51 350 51 269 m 232 350 q 247 258 232 297 q 286 191 261 218 q 343 150 311 164 q 408 136 375 136 q 474 150 442 136 q 530 191 506 164 q 569 258 554 218 q 583 350 583 297 q 569 442 583 401 q 530 509 554 482 q 474 550 506 536 q 408 564 442 564 q 343 550 375 564 q 286 509 311 536 q 247 442 261 482 q 232 350 232 401 m 400 983 l 633 983 l 443 778 l 311 778 l 400 983 z "},"â":{"ha":835,"x_min":51,"x_max":740,"o":"m 51 350 q 74 497 51 431 q 139 611 96 564 q 244 685 182 658 q 385 711 306 711 q 494 687 443 711 q 568 633 544 663 l 568 700 l 740 700 l 740 0 l 568 0 l 568 72 q 497 13 543 38 q 385 -11 450 -11 q 244 15 306 -11 q 139 89 182 42 q 74 203 96 136 q 51 350 51 269 m 232 350 q 247 258 232 297 q 286 191 261 218 q 343 150 311 164 q 408 136 375 136 q 474 150 442 136 q 530 191 506 164 q 569 258 554 218 q 583 350 583 297 q 569 442 583 401 q 530 509 554 482 q 474 550 506 536 q 408 564 442 564 q 343 550 375 564 q 286 509 311 536 q 247 442 261 482 q 232 350 232 401 m 386 1044 l 433 1044 l 671 786 l 504 786 l 410 889 l 315 786 l 149 786 l 386 1044 z "},"ã":{"ha":835,"x_min":51,"x_max":740,"o":"m 51 350 q 74 497 51 431 q 139 611 96 564 q 244 685 182 658 q 385 711 306 711 q 494 687 443 711 q 568 633 544 663 l 568 700 l 740 700 l 740 0 l 568 0 l 568 72 q 497 13 543 38 q 385 -11 450 -11 q 244 15 306 -11 q 139 89 182 42 q 74 203 96 136 q 51 350 51 269 m 232 350 q 247 258 232 297 q 286 191 261 218 q 343 150 311 164 q 408 136 375 136 q 474 150 442 136 q 530 191 506 164 q 569 258 554 218 q 583 350 583 297 q 569 442 583 401 q 530 509 554 482 q 474 550 506 536 q 408 564 442 564 q 343 550 375 564 q 286 509 311 536 q 247 442 261 482 q 232 350 232 401 m 133 867 q 204 953 157 919 q 304 988 251 988 q 363 978 339 988 q 406 959 386 969 q 444 940 425 949 q 489 931 464 931 q 535 947 513 931 q 578 990 558 963 l 668 914 q 597 827 644 861 q 497 793 550 793 q 439 802 463 793 q 395 822 415 811 q 356 841 375 832 q 313 850 338 850 q 266 834 289 850 q 224 790 243 818 l 133 867 z "},"ä":{"ha":835,"x_min":51,"x_max":740,"o":"m 51 350 q 74 497 51 431 q 139 611 96 564 q 244 685 182 658 q 385 711 306 711 q 494 687 443 711 q 568 633 544 663 l 568 700 l 740 700 l 740 0 l 568 0 l 568 72 q 497 13 543 38 q 385 -11 450 -11 q 244 15 306 -11 q 139 89 182 42 q 74 203 96 136 q 51 350 51 269 m 232 350 q 247 258 232 297 q 286 191 261 218 q 343 150 311 164 q 408 136 375 136 q 474 150 442 136 q 530 191 506 164 q 569 258 554 218 q 583 350 583 297 q 569 442 583 401 q 530 509 554 482 q 474 550 506 536 q 408 564 442 564 q 343 550 375 564 q 286 509 311 536 q 247 442 261 482 q 232 350 232 401 m 164 904 q 191 975 164 947 q 263 1003 218 1003 q 334 975 307 1003 q 361 904 361 947 q 334 833 361 861 q 263 806 307 806 q 191 833 218 806 q 164 904 164 861 m 451 904 q 478 975 451 947 q 550 1003 506 1003 q 622 975 594 1003 q 649 904 649 947 q 622 833 649 861 q 550 806 594 806 q 478 833 506 806 q 451 904 451 861 z "},"å":{"ha":835,"x_min":51,"x_max":740,"o":"m 51 350 q 74 497 51 431 q 139 611 96 564 q 244 685 182 658 q 385 711 306 711 q 494 687 443 711 q 568 633 544 663 l 568 700 l 740 700 l 740 0 l 568 0 l 568 72 q 497 13 543 38 q 385 -11 450 -11 q 244 15 306 -11 q 139 89 182 42 q 74 203 96 136 q 51 350 51 269 m 232 350 q 247 258 232 297 q 286 191 261 218 q 343 150 311 164 q 408 136 375 136 q 474 150 442 136 q 530 191 506 164 q 569 258 554 218 q 583 350 583 297 q 569 442 583 401 q 530 509 554 482 q 474 550 506 536 q 408 564 442 564 q 343 550 375 564 q 286 509 311 536 q 247 442 261 482 q 232 350 232 401 m 233 910 q 274 1011 233 971 q 376 1051 314 1051 q 479 1011 439 1051 q 519 910 519 971 q 479 808 519 849 q 376 768 439 768 q 274 808 314 768 q 233 910 233 849 m 335 910 q 346 878 335 890 q 376 865 357 865 q 407 878 396 865 q 418 910 418 890 q 407 942 418 929 q 376 954 396 954 q 346 942 357 954 q 335 910 335 929 z "},"æ":{"ha":1167,"x_min":46,"x_max":1124,"o":"m 1124 294 l 642 294 q 654 237 643 265 q 686 186 665 208 q 737 150 707 164 q 807 136 767 136 q 906 163 867 136 q 976 244 944 190 l 1115 193 q 999 44 1075 100 q 797 -11 924 -11 q 627 31 694 -11 q 519 135 560 72 q 399 20 464 51 q 258 -11 333 -11 q 175 3 214 -11 q 108 43 136 17 q 63 109 79 69 q 46 201 46 149 q 67 295 46 253 q 128 368 89 338 q 223 415 168 399 q 344 431 278 431 l 461 431 l 461 461 q 451 510 461 490 q 424 542 440 529 q 385 559 407 554 q 339 564 363 564 q 269 548 303 564 q 218 483 235 532 l 72 517 q 160 658 89 604 q 339 711 231 711 q 469 692 410 711 q 569 626 529 672 q 666 688 610 665 q 797 711 722 711 q 947 678 885 711 q 1048 595 1008 646 q 1106 483 1088 544 q 1124 365 1124 422 l 1124 294 m 226 204 q 244 158 226 179 q 299 136 263 136 q 357 146 328 136 q 409 174 386 156 q 447 220 432 193 q 461 281 461 247 l 461 294 l 346 294 q 258 272 290 294 q 226 204 226 250 m 797 564 q 738 552 764 564 q 693 522 713 540 q 661 479 674 503 q 644 431 649 456 l 947 431 q 931 481 942 457 q 901 523 919 504 q 858 553 883 542 q 797 564 832 564 z "},"ç":{"ha":751,"x_min":51,"x_max":711,"o":"m 711 189 q 591 39 671 89 q 393 -11 511 -11 q 243 17 307 -11 q 137 95 179 46 q 73 210 94 144 q 51 350 51 276 q 73 490 51 424 q 137 605 94 556 q 243 683 179 654 q 393 711 307 711 q 591 661 511 711 q 711 511 671 611 l 557 449 q 490 534 529 504 q 393 564 451 564 q 272 503 311 564 q 232 350 232 443 q 272 197 232 257 q 393 136 311 136 q 490 166 451 136 q 557 251 529 196 l 711 189 m 390 -369 l 185 -278 l 381 -83 l 506 -83 l 390 -369 z "},"è":{"ha":757,"x_min":51,"x_max":714,"o":"m 714 294 l 232 294 q 244 237 233 265 q 276 186 256 208 q 327 150 297 164 q 397 136 357 136 q 494 162 457 136 q 563 236 532 188 l 701 185 q 653 106 681 142 q 588 44 625 69 q 501 3 550 18 q 388 -11 451 -11 q 233 22 297 -11 q 129 108 169 56 q 70 224 89 160 q 51 350 51 288 q 70 476 51 413 q 129 592 89 540 q 233 678 169 644 q 388 711 297 711 q 537 678 475 711 q 638 595 599 646 q 696 483 678 544 q 714 365 714 422 l 714 294 m 388 564 q 328 552 354 564 q 284 522 303 540 q 253 479 265 503 q 236 431 240 456 l 538 431 q 521 481 532 457 q 492 523 510 504 q 448 553 474 542 q 388 564 422 564 m 479 778 l 347 778 l 157 983 l 390 983 l 479 778 z "},"é":{"ha":757,"x_min":51,"x_max":714,"o":"m 714 294 l 232 294 q 244 237 233 265 q 276 186 256 208 q 327 150 297 164 q 397 136 357 136 q 494 162 457 136 q 563 236 532 188 l 701 185 q 653 106 681 142 q 588 44 625 69 q 501 3 550 18 q 388 -11 451 -11 q 233 22 297 -11 q 129 108 169 56 q 70 224 89 160 q 51 350 51 288 q 70 476 51 413 q 129 592 89 540 q 233 678 169 644 q 388 711 297 711 q 537 678 475 711 q 638 595 599 646 q 696 483 678 544 q 714 365 714 422 l 714 294 m 388 564 q 328 552 354 564 q 284 522 303 540 q 253 479 265 503 q 236 431 240 456 l 538 431 q 521 481 532 457 q 492 523 510 504 q 448 553 474 542 q 388 564 422 564 m 361 983 l 594 983 l 404 778 l 272 778 l 361 983 z "},"ê":{"ha":757,"x_min":51,"x_max":714,"o":"m 714 294 l 232 294 q 244 237 233 265 q 276 186 256 208 q 327 150 297 164 q 397 136 357 136 q 494 162 457 136 q 563 236 532 188 l 701 185 q 653 106 681 142 q 588 44 625 69 q 501 3 550 18 q 388 -11 451 -11 q 233 22 297 -11 q 129 108 169 56 q 70 224 89 160 q 51 350 51 288 q 70 476 51 413 q 129 592 89 540 q 233 678 169 644 q 388 711 297 711 q 537 678 475 711 q 638 595 599 646 q 696 483 678 544 q 714 365 714 422 l 714 294 m 388 564 q 328 552 354 564 q 284 522 303 540 q 253 479 265 503 q 236 431 240 456 l 538 431 q 521 481 532 457 q 492 523 510 504 q 448 553 474 542 q 388 564 422 564 m 363 1044 l 410 1044 l 647 786 l 481 786 l 386 889 l 292 786 l 125 786 l 363 1044 z "},"ë":{"ha":757,"x_min":51,"x_max":714,"o":"m 714 294 l 232 294 q 244 237 233 265 q 276 186 256 208 q 327 150 297 164 q 397 136 357 136 q 494 162 457 136 q 563 236 532 188 l 701 185 q 653 106 681 142 q 588 44 625 69 q 501 3 550 18 q 388 -11 451 -11 q 233 22 297 -11 q 129 108 169 56 q 70 224 89 160 q 51 350 51 288 q 70 476 51 413 q 129 592 89 540 q 233 678 169 644 q 388 711 297 711 q 537 678 475 711 q 638 595 599 646 q 696 483 678 544 q 714 365 714 422 l 714 294 m 388 564 q 328 552 354 564 q 284 522 303 540 q 253 479 265 503 q 236 431 240 456 l 538 431 q 521 481 532 457 q 492 523 510 504 q 448 553 474 542 q 388 564 422 564 m 149 904 q 176 975 149 947 q 247 1003 203 1003 q 319 975 292 1003 q 346 904 346 947 q 319 833 346 861 q 247 806 292 806 q 176 833 203 806 q 149 904 149 861 m 436 904 q 463 975 436 947 q 535 1003 490 1003 q 606 975 579 1003 q 633 904 633 947 q 606 833 633 861 q 535 806 579 806 q 463 833 490 806 q 436 904 436 861 z "},"ì":{"ha":350,"x_min":-24,"x_max":299,"o":"m 264 700 l 264 0 l 92 0 l 92 700 l 264 700 m 299 778 l 167 778 l -24 983 l 210 983 l 299 778 z "},"í":{"ha":350,"x_min":53,"x_max":375,"o":"m 258 700 l 258 0 l 86 0 l 86 700 l 258 700 m 142 983 l 375 983 l 185 778 l 53 778 l 142 983 z "},"î":{"ha":339,"x_min":-90,"x_max":432,"o":"m 256 700 l 256 0 l 83 0 l 83 700 l 256 700 m 147 1044 l 194 1044 l 432 786 l 265 786 l 171 889 l 76 786 l -90 786 l 147 1044 z "},"ï":{"ha":344,"x_min":-68,"x_max":417,"o":"m 258 700 l 258 0 l 86 0 l 86 700 l 258 700 m -68 904 q -41 975 -68 947 q 31 1003 -14 1003 q 102 975 75 1003 q 129 904 129 947 q 102 833 129 861 q 31 806 75 806 q -41 833 -14 806 q -68 904 -68 861 m 219 904 q 247 975 219 947 q 318 1003 274 1003 q 390 975 363 1003 q 417 904 417 947 q 390 833 417 861 q 318 806 363 806 q 247 833 274 806 q 219 904 219 861 z "},"ð":{"ha":794,"x_min":51,"x_max":743,"o":"m 247 815 l 288 874 q 230 902 257 889 q 168 928 203 915 l 254 1054 q 371 996 317 1026 l 417 1063 l 522 990 l 478 925 q 677 700 611 831 q 743 383 743 569 q 720 224 743 296 q 653 99 697 151 q 545 18 610 47 q 397 -11 481 -11 q 248 17 313 -11 q 140 93 183 44 q 74 208 96 142 q 51 350 51 274 q 74 492 51 426 q 140 607 96 558 q 248 683 183 656 q 397 711 313 711 q 457 703 428 711 q 510 683 486 696 q 396 807 469 754 l 351 742 l 247 815 m 232 350 q 242 268 232 307 q 273 200 253 229 q 324 153 293 171 q 397 136 356 136 q 470 153 439 136 q 522 200 501 171 q 552 268 542 229 q 563 350 563 307 q 552 432 563 393 q 521 500 542 471 q 469 547 500 529 q 397 564 439 564 q 324 547 356 564 q 273 500 293 529 q 242 432 253 471 q 232 350 232 393 z "},"ñ":{"ha":785,"x_min":94,"x_max":699,"o":"m 267 700 l 267 588 q 360 677 306 643 q 483 711 415 711 q 638 658 578 711 q 699 500 699 606 l 699 0 l 526 0 l 526 449 q 499 538 526 511 q 426 564 471 564 q 366 545 394 564 q 315 490 338 526 q 280 401 293 454 q 267 279 267 349 l 267 0 l 94 0 l 94 700 l 267 700 m 140 867 q 211 953 164 919 q 311 988 258 988 q 369 978 346 988 q 413 959 393 969 q 451 940 432 949 q 496 931 471 931 q 542 947 519 931 q 585 990 565 963 l 675 914 q 604 827 651 861 q 504 793 557 793 q 446 802 469 793 q 402 822 422 811 q 363 841 382 832 q 319 850 344 850 q 273 834 296 850 q 231 790 250 818 l 140 867 z "},"ò":{"ha":814,"x_min":51,"x_max":763,"o":"m 51 350 q 75 492 51 426 q 144 607 99 558 q 256 683 190 656 q 407 711 322 711 q 558 683 492 711 q 669 607 624 656 q 739 492 715 558 q 763 350 763 426 q 739 208 763 274 q 669 93 715 142 q 558 17 624 44 q 407 -11 492 -11 q 256 17 322 -11 q 144 93 190 44 q 75 208 99 142 q 51 350 51 274 m 232 350 q 244 268 232 307 q 278 200 256 229 q 333 153 300 171 q 407 136 365 136 q 481 153 449 136 q 536 200 514 171 q 570 268 558 229 q 582 350 582 307 q 570 432 582 393 q 536 500 558 471 q 481 547 514 529 q 407 564 449 564 q 333 547 365 564 q 278 500 300 529 q 244 432 256 471 q 232 350 232 393 m 504 778 l 372 778 l 182 983 l 415 983 l 504 778 z "},"ó":{"ha":814,"x_min":51,"x_max":763,"o":"m 51 350 q 75 492 51 426 q 144 607 99 558 q 256 683 190 656 q 407 711 322 711 q 558 683 492 711 q 669 607 624 656 q 739 492 715 558 q 763 350 763 426 q 739 208 763 274 q 669 93 715 142 q 558 17 624 44 q 407 -11 492 -11 q 256 17 322 -11 q 144 93 190 44 q 75 208 99 142 q 51 350 51 274 m 232 350 q 244 268 232 307 q 278 200 256 229 q 333 153 300 171 q 407 136 365 136 q 481 153 449 136 q 536 200 514 171 q 570 268 558 229 q 582 350 582 307 q 570 432 582 393 q 536 500 558 471 q 481 547 514 529 q 407 564 449 564 q 333 547 365 564 q 278 500 300 529 q 244 432 256 471 q 232 350 232 393 m 388 983 l 621 983 l 431 778 l 299 778 l 388 983 z "},"ô":{"ha":814,"x_min":51,"x_max":763,"o":"m 51 350 q 75 492 51 426 q 144 607 99 558 q 256 683 190 656 q 407 711 322 711 q 558 683 492 711 q 669 607 624 656 q 739 492 715 558 q 763 350 763 426 q 739 208 763 274 q 669 93 715 142 q 558 17 624 44 q 407 -11 492 -11 q 256 17 322 -11 q 144 93 190 44 q 75 208 99 142 q 51 350 51 274 m 232 350 q 244 268 232 307 q 278 200 256 229 q 333 153 300 171 q 407 136 365 136 q 481 153 449 136 q 536 200 514 171 q 570 268 558 229 q 582 350 582 307 q 570 432 582 393 q 536 500 558 471 q 481 547 514 529 q 407 564 449 564 q 333 547 365 564 q 278 500 300 529 q 244 432 256 471 q 232 350 232 393 m 383 1044 l 431 1044 l 668 786 l 501 786 l 407 889 l 313 786 l 146 786 l 383 1044 z "},"õ":{"ha":814,"x_min":51,"x_max":763,"o":"m 51 350 q 75 492 51 426 q 144 607 99 558 q 256 683 190 656 q 407 711 322 711 q 558 683 492 711 q 669 607 624 656 q 739 492 715 558 q 763 350 763 426 q 739 208 763 274 q 669 93 715 142 q 558 17 624 44 q 407 -11 492 -11 q 256 17 322 -11 q 144 93 190 44 q 75 208 99 142 q 51 350 51 274 m 232 350 q 244 268 232 307 q 278 200 256 229 q 333 153 300 171 q 407 136 365 136 q 481 153 449 136 q 536 200 514 171 q 570 268 558 229 q 582 350 582 307 q 570 432 582 393 q 536 500 558 471 q 481 547 514 529 q 407 564 449 564 q 333 547 365 564 q 278 500 300 529 q 244 432 256 471 q 232 350 232 393 m 140 867 q 211 953 164 919 q 311 988 258 988 q 369 978 346 988 q 413 959 393 969 q 451 940 432 949 q 496 931 471 931 q 542 947 519 931 q 585 990 565 963 l 675 914 q 604 827 651 861 q 504 793 557 793 q 446 802 469 793 q 402 822 422 811 q 363 841 382 832 q 319 850 344 850 q 273 834 296 850 q 231 790 250 818 l 140 867 z "},"ö":{"ha":814,"x_min":51,"x_max":763,"o":"m 51 350 q 75 492 51 426 q 144 607 99 558 q 256 683 190 656 q 407 711 322 711 q 558 683 492 711 q 669 607 624 656 q 739 492 715 558 q 763 350 763 426 q 739 208 763 274 q 669 93 715 142 q 558 17 624 44 q 407 -11 492 -11 q 256 17 322 -11 q 144 93 190 44 q 75 208 99 142 q 51 350 51 274 m 232 350 q 244 268 232 307 q 278 200 256 229 q 333 153 300 171 q 407 136 365 136 q 481 153 449 136 q 536 200 514 171 q 570 268 558 229 q 582 350 582 307 q 570 432 582 393 q 536 500 558 471 q 481 547 514 529 q 407 564 449 564 q 333 547 365 564 q 278 500 300 529 q 244 432 256 471 q 232 350 232 393 m 165 904 q 192 975 165 947 q 264 1003 219 1003 q 335 975 308 1003 q 363 904 363 947 q 335 833 363 861 q 264 806 308 806 q 192 833 219 806 q 165 904 165 861 m 453 904 q 480 975 453 947 q 551 1003 507 1003 q 623 975 596 1003 q 650 904 650 947 q 623 833 650 861 q 551 806 596 806 q 480 833 507 806 q 453 904 453 861 z "},"÷":{"ha":761,"x_min":50,"x_max":711,"o":"m 264 172 q 297 256 264 222 q 381 289 331 289 q 464 256 431 289 q 497 172 497 222 q 464 89 497 122 q 381 56 431 56 q 297 89 331 56 q 264 172 264 122 m 264 703 q 297 786 264 753 q 381 819 331 819 q 464 786 431 819 q 497 703 497 753 q 464 619 497 653 q 381 586 431 586 q 297 619 331 586 q 264 703 264 653 m 50 513 l 711 513 l 711 363 l 50 363 l 50 513 z "},"ø":{"ha":817,"x_min":43,"x_max":774,"o":"m 53 350 q 76 492 53 426 q 146 607 100 558 q 258 683 192 656 q 408 711 324 711 q 495 702 454 711 q 571 678 536 693 l 654 783 l 774 696 l 688 586 q 764 350 764 490 q 740 208 764 274 q 671 93 717 142 q 559 17 625 44 q 408 -11 493 -11 q 322 -2 363 -11 q 246 22 281 7 l 163 -83 l 43 4 l 129 114 q 53 350 53 210 m 583 350 q 569 436 583 399 l 344 149 q 408 136 374 136 q 483 153 450 136 q 538 200 515 171 q 572 268 560 229 q 583 350 583 307 m 233 350 q 247 264 233 301 l 472 551 q 408 564 443 564 q 334 547 367 564 q 279 500 301 529 q 245 432 257 471 q 233 350 233 393 z "},"ù":{"ha":785,"x_min":86,"x_max":690,"o":"m 518 0 l 518 113 q 424 23 479 57 q 301 -11 369 -11 q 147 42 207 -11 q 86 200 86 94 l 86 700 l 258 700 l 258 251 q 286 163 258 189 q 358 136 314 136 q 418 155 389 136 q 469 210 447 174 q 505 299 492 246 q 518 421 518 351 l 518 700 l 690 700 l 690 0 l 518 0 m 478 778 l 346 778 l 156 983 l 389 983 l 478 778 z "},"ú":{"ha":785,"x_min":86,"x_max":690,"o":"m 518 0 l 518 113 q 424 23 479 57 q 301 -11 369 -11 q 147 42 207 -11 q 86 200 86 94 l 86 700 l 258 700 l 258 251 q 286 163 258 189 q 358 136 314 136 q 418 155 389 136 q 469 210 447 174 q 505 299 492 246 q 518 421 518 351 l 518 700 l 690 700 l 690 0 l 518 0 m 381 983 l 614 983 l 424 778 l 292 778 l 381 983 z "},"û":{"ha":785,"x_min":86,"x_max":690,"o":"m 518 0 l 518 113 q 424 23 479 57 q 301 -11 369 -11 q 147 42 207 -11 q 86 200 86 94 l 86 700 l 258 700 l 258 251 q 286 163 258 189 q 358 136 314 136 q 418 155 389 136 q 469 210 447 174 q 505 299 492 246 q 518 421 518 351 l 518 700 l 690 700 l 690 0 l 518 0 m 367 1044 l 414 1044 l 651 786 l 485 786 l 390 889 l 296 786 l 129 786 l 367 1044 z "},"ü":{"ha":785,"x_min":86,"x_max":690,"o":"m 518 0 l 518 113 q 424 23 479 57 q 301 -11 369 -11 q 147 42 207 -11 q 86 200 86 94 l 86 700 l 258 700 l 258 251 q 286 163 258 189 q 358 136 314 136 q 418 155 389 136 q 469 210 447 174 q 505 299 492 246 q 518 421 518 351 l 518 700 l 690 700 l 690 0 l 518 0 m 153 904 q 180 975 153 947 q 251 1003 207 1003 q 323 975 296 1003 q 350 904 350 947 q 323 833 350 861 q 251 806 296 806 q 180 833 207 806 q 153 904 153 861 m 440 904 q 467 975 440 947 q 539 1003 494 1003 q 610 975 583 1003 q 638 904 638 947 q 610 833 638 861 q 539 806 583 806 q 467 833 494 806 q 440 904 440 861 z "},"ý":{"ha":668,"x_min":4,"x_max":665,"o":"m 178 700 l 340 261 l 493 700 l 665 700 l 304 -283 l 138 -283 l 258 44 l 4 700 l 178 700 m 329 983 l 563 983 l 372 778 l 240 778 l 329 983 z "},"þ":{"ha":807,"x_min":94,"x_max":756,"o":"m 756 350 q 735 203 756 269 q 675 89 715 136 q 575 15 635 42 q 436 -11 515 -11 q 376 -3 404 -11 q 326 17 349 4 q 289 44 304 29 q 267 72 274 58 l 267 -283 l 94 -283 l 94 983 l 267 983 l 267 636 q 337 688 290 665 q 436 711 383 711 q 575 685 515 711 q 675 611 635 658 q 735 497 715 564 q 756 350 756 431 m 575 350 q 528 509 575 454 q 413 564 481 564 q 298 509 344 564 q 251 350 251 454 q 298 191 251 246 q 413 136 344 136 q 528 191 481 136 q 575 350 575 246 z "},"ÿ":{"ha":668,"x_min":4,"x_max":665,"o":"m 178 700 l 340 261 l 493 700 l 665 700 l 304 -283 l 138 -283 l 258 44 l 4 700 l 178 700 m 96 904 q 123 975 96 947 q 194 1003 150 1003 q 266 975 239 1003 q 293 904 293 947 q 266 833 293 861 q 194 806 239 806 q 123 833 150 806 q 96 904 96 861 m 383 904 q 410 975 383 947 q 482 1003 438 1003 q 553 975 526 1003 q 581 904 581 947 q 553 833 581 861 q 482 806 526 806 q 410 833 438 806 q 383 904 383 861 z "},"Ā":{"ha":853,"x_min":7,"x_max":846,"o":"m 581 229 l 272 229 l 201 0 l 7 0 l 336 972 l 517 972 l 846 0 l 651 0 l 581 229 m 324 396 l 529 396 l 426 733 l 324 396 m 240 1256 l 614 1256 l 614 1103 l 240 1103 l 240 1256 z "},"ā":{"ha":835,"x_min":51,"x_max":740,"o":"m 51 350 q 74 497 51 431 q 139 611 96 564 q 244 685 182 658 q 385 711 306 711 q 494 687 443 711 q 568 633 544 663 l 568 700 l 740 700 l 740 0 l 568 0 l 568 72 q 497 13 543 38 q 385 -11 450 -11 q 244 15 306 -11 q 139 89 182 42 q 74 203 96 136 q 51 350 51 269 m 232 350 q 247 258 232 297 q 286 191 261 218 q 343 150 311 164 q 408 136 375 136 q 474 150 442 136 q 530 191 506 164 q 569 258 554 218 q 583 350 583 297 q 569 442 583 401 q 530 509 554 482 q 474 550 506 536 q 408 564 442 564 q 343 550 375 564 q 286 509 311 536 q 247 442 261 482 q 232 350 232 401 m 204 985 l 578 985 l 578 832 l 204 832 l 204 985 z "},"Ă":{"ha":853,"x_min":7,"x_max":846,"o":"m 581 229 l 272 229 l 201 0 l 7 0 l 336 972 l 517 972 l 846 0 l 651 0 l 581 229 m 324 396 l 529 396 l 426 733 l 324 396 m 389 1244 q 399 1217 389 1228 q 426 1206 410 1206 q 453 1217 443 1206 q 464 1244 464 1228 l 590 1244 q 579 1187 590 1214 q 547 1139 568 1160 q 494 1106 525 1118 q 426 1093 464 1093 q 358 1106 389 1093 q 306 1139 328 1118 q 274 1187 285 1160 q 263 1244 263 1214 l 389 1244 z "},"ă":{"ha":835,"x_min":51,"x_max":740,"o":"m 51 350 q 74 497 51 431 q 139 611 96 564 q 244 685 182 658 q 385 711 306 711 q 494 687 443 711 q 568 633 544 663 l 568 700 l 740 700 l 740 0 l 568 0 l 568 72 q 497 13 543 38 q 385 -11 450 -11 q 244 15 306 -11 q 139 89 182 42 q 74 203 96 136 q 51 350 51 269 m 232 350 q 247 258 232 297 q 286 191 261 218 q 343 150 311 164 q 408 136 375 136 q 474 150 442 136 q 530 191 506 164 q 569 258 554 218 q 583 350 583 297 q 569 442 583 401 q 530 509 554 482 q 474 550 506 536 q 408 564 442 564 q 343 550 375 564 q 286 509 311 536 q 247 442 261 482 q 232 350 232 401 m 376 972 q 387 944 376 956 q 414 933 397 933 q 441 944 431 933 q 451 972 451 956 l 578 972 q 567 915 578 942 q 534 867 556 888 q 482 833 513 846 q 414 821 451 821 q 346 833 376 821 q 294 867 315 846 q 261 915 272 888 q 250 972 250 942 l 376 972 z "},"Ą":{"ha":840,"x_min":7,"x_max":943,"o":"m 581 229 l 272 229 l 201 0 l 7 0 l 336 972 l 517 972 l 846 0 q 788 -58 810 -31 q 765 -108 765 -86 q 801 -144 765 -144 q 835 -131 821 -144 q 869 -90 849 -118 l 943 -150 q 875 -229 911 -201 q 782 -257 839 -257 q 685 -224 722 -257 q 647 -132 647 -192 q 673 -56 647 -92 q 735 0 699 -21 l 651 0 l 581 229 m 324 396 l 529 396 l 426 733 l 324 396 z "},"ą":{"ha":835,"x_min":51,"x_max":838,"o":"m 568 0 l 568 72 q 497 13 543 38 q 385 -11 450 -11 q 244 15 306 -11 q 139 89 182 42 q 74 203 96 136 q 51 350 51 269 q 74 497 51 431 q 139 611 96 564 q 244 685 182 658 q 385 711 306 711 q 494 687 443 711 q 568 633 544 663 l 568 700 l 740 700 l 740 0 q 682 -58 704 -31 q 660 -108 660 -86 q 696 -144 660 -144 q 729 -131 715 -144 q 764 -90 743 -118 l 838 -150 q 769 -229 806 -201 q 676 -257 733 -257 q 579 -224 617 -257 q 542 -132 542 -192 q 567 -56 542 -92 q 629 0 593 -21 l 568 0 m 232 350 q 247 258 232 297 q 286 191 261 218 q 343 150 311 164 q 408 136 375 136 q 474 150 442 136 q 530 191 506 164 q 569 258 554 218 q 583 350 583 297 q 569 442 583 401 q 530 509 554 482 q 474 550 506 536 q 408 564 442 564 q 343 550 375 564 q 286 509 311 536 q 247 442 261 482 q 232 350 232 401 z "},"Ć":{"ha":957,"x_min":57,"x_max":919,"o":"m 757 647 q 674 769 729 721 q 517 817 618 817 q 410 797 460 817 q 322 735 360 776 q 263 633 285 694 q 240 486 240 571 q 263 340 240 401 q 322 237 285 278 q 410 176 360 196 q 517 156 460 156 q 674 203 618 156 q 757 325 729 251 l 919 283 q 781 66 885 143 q 517 -11 676 -11 q 342 21 425 -11 q 196 115 260 53 q 94 271 132 178 q 57 486 57 364 q 94 701 57 608 q 196 857 132 794 q 342 951 260 919 q 517 983 425 983 q 781 906 676 983 q 919 689 885 829 l 757 647 m 503 1256 l 736 1256 l 546 1050 l 414 1050 l 503 1256 z "},"ć":{"ha":751,"x_min":51,"x_max":711,"o":"m 711 189 q 591 39 671 89 q 393 -11 511 -11 q 243 17 307 -11 q 137 95 179 46 q 73 210 94 144 q 51 350 51 276 q 73 490 51 424 q 137 605 94 556 q 243 683 179 654 q 393 711 307 711 q 591 661 511 711 q 711 511 671 611 l 557 449 q 490 534 529 504 q 393 564 451 564 q 272 503 311 564 q 232 350 232 443 q 272 197 232 257 q 393 136 311 136 q 490 166 451 136 q 557 251 529 196 l 711 189 m 381 983 l 614 983 l 424 778 l 292 778 l 381 983 z "},"Ĉ":{"ha":957,"x_min":57,"x_max":919,"o":"m 757 647 q 674 769 729 721 q 517 817 618 817 q 410 797 460 817 q 322 735 360 776 q 263 633 285 694 q 240 486 240 571 q 263 340 240 401 q 322 237 285 278 q 410 176 360 196 q 517 156 460 156 q 674 203 618 156 q 757 325 729 251 l 919 283 q 781 66 885 143 q 517 -11 676 -11 q 342 21 425 -11 q 196 115 260 53 q 94 271 132 178 q 57 486 57 364 q 94 701 57 608 q 196 857 132 794 q 342 951 260 919 q 517 983 425 983 q 781 906 676 983 q 919 689 885 829 l 757 647 m 494 1317 l 542 1317 l 779 1058 l 613 1058 l 518 1161 l 424 1058 l 257 1058 l 494 1317 z "},"ĉ":{"ha":751,"x_min":51,"x_max":711,"o":"m 711 189 q 591 39 671 89 q 393 -11 511 -11 q 243 17 307 -11 q 137 95 179 46 q 73 210 94 144 q 51 350 51 276 q 73 490 51 424 q 137 605 94 556 q 243 683 179 654 q 393 711 307 711 q 591 661 511 711 q 711 511 671 611 l 557 449 q 490 534 529 504 q 393 564 451 564 q 272 503 311 564 q 232 350 232 443 q 272 197 232 257 q 393 136 311 136 q 490 166 451 136 q 557 251 529 196 l 711 189 m 374 1044 l 421 1044 l 658 786 l 492 786 l 397 889 l 303 786 l 136 786 l 374 1044 z "},"Ċ":{"ha":957,"x_min":57,"x_max":919,"o":"m 757 647 q 674 769 729 721 q 517 817 618 817 q 410 797 460 817 q 322 735 360 776 q 263 633 285 694 q 240 486 240 571 q 263 340 240 401 q 322 237 285 278 q 410 176 360 196 q 517 156 460 156 q 674 203 618 156 q 757 325 729 251 l 919 283 q 781 66 885 143 q 517 -11 676 -11 q 342 21 425 -11 q 196 115 260 53 q 94 271 132 178 q 57 486 57 364 q 94 701 57 608 q 196 857 132 794 q 342 951 260 919 q 517 983 425 983 q 781 906 676 983 q 919 689 885 829 l 757 647 m 408 1174 q 440 1253 408 1221 q 519 1285 471 1285 q 599 1253 568 1285 q 631 1174 631 1221 q 599 1094 631 1126 q 519 1063 568 1063 q 440 1094 471 1063 q 408 1174 408 1126 z "},"ċ":{"ha":751,"x_min":51,"x_max":711,"o":"m 711 189 q 591 39 671 89 q 393 -11 511 -11 q 243 17 307 -11 q 137 95 179 46 q 73 210 94 144 q 51 350 51 276 q 73 490 51 424 q 137 605 94 556 q 243 683 179 654 q 393 711 307 711 q 591 661 511 711 q 711 511 671 611 l 557 449 q 490 534 529 504 q 393 564 451 564 q 272 503 311 564 q 232 350 232 443 q 272 197 232 257 q 393 136 311 136 q 490 166 451 136 q 557 251 529 196 l 711 189 m 283 901 q 315 981 283 949 q 394 1013 346 1013 q 474 981 443 1013 q 506 901 506 949 q 474 822 506 854 q 394 790 443 790 q 315 822 346 790 q 283 901 283 854 z "},"Č":{"ha":957,"x_min":57,"x_max":919,"o":"m 757 647 q 674 769 729 721 q 517 817 618 817 q 410 797 460 817 q 322 735 360 776 q 263 633 285 694 q 240 486 240 571 q 263 340 240 401 q 322 237 285 278 q 410 176 360 196 q 517 156 460 156 q 674 203 618 156 q 757 325 729 251 l 919 283 q 781 66 885 143 q 517 -11 676 -11 q 342 21 425 -11 q 196 115 260 53 q 94 271 132 178 q 57 486 57 364 q 94 701 57 608 q 196 857 132 794 q 342 951 260 919 q 517 983 425 983 q 781 906 676 983 q 919 689 885 829 l 757 647 m 257 1317 l 424 1317 l 518 1214 l 613 1317 l 779 1317 l 542 1058 l 494 1058 l 257 1317 z "},"č":{"ha":751,"x_min":51,"x_max":711,"o":"m 711 189 q 591 39 671 89 q 393 -11 511 -11 q 243 17 307 -11 q 137 95 179 46 q 73 210 94 144 q 51 350 51 276 q 73 490 51 424 q 137 605 94 556 q 243 683 179 654 q 393 711 307 711 q 591 661 511 711 q 711 511 671 611 l 557 449 q 490 534 529 504 q 393 564 451 564 q 272 503 311 564 q 232 350 232 443 q 272 197 232 257 q 393 136 311 136 q 490 166 451 136 q 557 251 529 196 l 711 189 m 133 1044 l 300 1044 l 394 942 l 489 1044 l 656 1044 l 418 786 l 371 786 l 133 1044 z "},"Ď":{"ha":921,"x_min":103,"x_max":864,"o":"m 107 0 l 107 972 l 411 972 q 578 944 497 972 q 724 857 660 917 q 826 706 788 797 q 864 486 864 614 q 826 267 864 358 q 724 115 788 175 q 578 28 660 56 q 411 0 497 0 l 107 0 m 354 167 q 471 181 413 167 q 576 230 529 194 q 651 327 622 265 q 681 486 681 389 q 651 645 681 583 q 576 742 622 707 q 471 792 529 778 q 354 806 413 806 l 288 806 l 288 167 l 354 167 m 103 1317 l 269 1317 l 364 1214 l 458 1317 l 625 1317 l 388 1058 l 340 1058 l 103 1317 z "},"ď":{"ha":1033,"x_min":51,"x_max":1028,"o":"m 839 1025 l 1028 1025 l 914 769 l 804 769 l 839 1025 m 51 350 q 72 497 51 431 q 132 611 92 564 q 232 685 172 658 q 371 711 292 711 q 470 688 424 711 q 540 636 517 665 l 540 983 l 713 983 l 713 0 l 540 0 l 540 72 q 518 44 533 58 q 481 17 503 29 q 431 -3 458 4 q 371 -11 403 -11 q 232 15 292 -11 q 132 89 172 42 q 72 203 92 136 q 51 350 51 269 m 232 350 q 279 191 232 246 q 394 136 326 136 q 509 191 463 136 q 556 350 556 246 q 509 509 556 454 q 394 564 463 564 q 279 509 326 564 q 232 350 232 454 z "},"Đ":{"ha":969,"x_min":26,"x_max":913,"o":"m 26 561 l 156 561 l 156 972 l 460 972 q 627 944 546 972 q 772 857 708 917 q 874 706 836 797 q 913 486 913 614 q 874 267 913 358 q 772 115 836 175 q 627 28 708 56 q 460 0 546 0 l 156 0 l 156 411 l 26 411 l 26 561 m 336 806 l 336 561 l 465 561 l 465 411 l 336 411 l 336 167 l 403 167 q 519 181 461 167 q 624 230 578 194 q 700 327 671 265 q 729 486 729 389 q 700 645 729 583 q 624 742 671 707 q 519 792 578 778 q 403 806 461 806 l 336 806 z "},"đ":{"ha":822,"x_min":51,"x_max":813,"o":"m 386 904 l 540 904 l 540 983 l 713 983 l 713 904 l 813 904 l 813 776 l 713 776 l 713 0 l 540 0 l 540 72 q 518 44 533 58 q 481 17 503 29 q 431 -3 458 4 q 371 -11 403 -11 q 232 15 292 -11 q 132 89 172 42 q 72 203 92 136 q 51 350 51 269 q 72 497 51 431 q 132 611 92 564 q 232 685 172 658 q 371 711 292 711 q 470 688 424 711 q 540 636 517 665 l 540 776 l 386 776 l 386 904 m 232 350 q 279 191 232 246 q 394 136 326 136 q 509 191 463 136 q 556 350 556 246 q 509 509 556 454 q 394 564 463 564 q 279 509 326 564 q 232 350 232 454 z "},"Ē":{"ha":772,"x_min":107,"x_max":722,"o":"m 708 972 l 708 806 l 288 806 l 288 601 l 625 601 l 625 435 l 288 435 l 288 167 l 722 167 l 722 0 l 107 0 l 107 972 l 708 972 m 233 1256 l 607 1256 l 607 1103 l 233 1103 l 233 1256 z "},"ē":{"ha":757,"x_min":51,"x_max":714,"o":"m 714 294 l 232 294 q 244 237 233 265 q 276 186 256 208 q 327 150 297 164 q 397 136 357 136 q 494 162 457 136 q 563 236 532 188 l 701 185 q 653 106 681 142 q 588 44 625 69 q 501 3 550 18 q 388 -11 451 -11 q 233 22 297 -11 q 129 108 169 56 q 70 224 89 160 q 51 350 51 288 q 70 476 51 413 q 129 592 89 540 q 233 678 169 644 q 388 711 297 711 q 537 678 475 711 q 638 595 599 646 q 696 483 678 544 q 714 365 714 422 l 714 294 m 388 564 q 328 552 354 564 q 284 522 303 540 q 253 479 265 503 q 236 431 240 456 l 538 431 q 521 481 532 457 q 492 523 510 504 q 448 553 474 542 q 388 564 422 564 m 201 985 l 575 985 l 575 832 l 201 832 l 201 985 z "},"Ĕ":{"ha":772,"x_min":107,"x_max":722,"o":"m 708 972 l 708 806 l 288 806 l 288 601 l 625 601 l 625 435 l 288 435 l 288 167 l 722 167 l 722 0 l 107 0 l 107 972 l 708 972 m 371 1244 q 381 1217 371 1228 q 408 1206 392 1206 q 435 1217 425 1206 q 446 1244 446 1228 l 572 1244 q 561 1187 572 1214 q 528 1139 550 1160 q 476 1106 507 1118 q 408 1093 446 1093 q 340 1106 371 1093 q 288 1139 310 1118 q 256 1187 267 1160 q 244 1244 244 1214 l 371 1244 z "},"ĕ":{"ha":757,"x_min":51,"x_max":714,"o":"m 714 294 l 232 294 q 244 237 233 265 q 276 186 256 208 q 327 150 297 164 q 397 136 357 136 q 494 162 457 136 q 563 236 532 188 l 701 185 q 653 106 681 142 q 588 44 625 69 q 501 3 550 18 q 388 -11 451 -11 q 233 22 297 -11 q 129 108 169 56 q 70 224 89 160 q 51 350 51 288 q 70 476 51 413 q 129 592 89 540 q 233 678 169 644 q 388 711 297 711 q 537 678 475 711 q 638 595 599 646 q 696 483 678 544 q 714 365 714 422 l 714 294 m 388 564 q 328 552 354 564 q 284 522 303 540 q 253 479 265 503 q 236 431 240 456 l 538 431 q 521 481 532 457 q 492 523 510 504 q 448 553 474 542 q 388 564 422 564 m 346 972 q 356 944 346 956 q 383 933 367 933 q 410 944 400 933 q 421 972 421 956 l 547 972 q 536 915 547 942 q 503 867 525 888 q 451 833 482 846 q 383 821 421 821 q 315 833 346 821 q 263 867 285 846 q 231 915 242 888 q 219 972 219 942 l 346 972 z "},"Ė":{"ha":772,"x_min":107,"x_max":722,"o":"m 708 972 l 708 806 l 288 806 l 288 601 l 625 601 l 625 435 l 288 435 l 288 167 l 722 167 l 722 0 l 107 0 l 107 972 l 708 972 m 292 1174 q 323 1253 292 1221 q 403 1285 354 1285 q 483 1253 451 1285 q 514 1174 514 1221 q 483 1094 514 1126 q 403 1063 451 1063 q 323 1094 354 1063 q 292 1174 292 1126 z "},"ė":{"ha":757,"x_min":51,"x_max":714,"o":"m 714 294 l 232 294 q 244 237 233 265 q 276 186 256 208 q 327 150 297 164 q 397 136 357 136 q 494 162 457 136 q 563 236 532 188 l 701 185 q 653 106 681 142 q 588 44 625 69 q 501 3 550 18 q 388 -11 451 -11 q 233 22 297 -11 q 129 108 169 56 q 70 224 89 160 q 51 350 51 288 q 70 476 51 413 q 129 592 89 540 q 233 678 169 644 q 388 711 297 711 q 537 678 475 711 q 638 595 599 646 q 696 483 678 544 q 714 365 714 422 l 714 294 m 388 564 q 328 552 354 564 q 284 522 303 540 q 253 479 265 503 q 236 431 240 456 l 538 431 q 521 481 532 457 q 492 523 510 504 q 448 553 474 542 q 388 564 422 564 m 274 901 q 305 981 274 949 q 385 1013 336 1013 q 465 981 433 1013 q 496 901 496 949 q 465 822 496 854 q 385 790 433 790 q 305 822 336 790 q 274 901 274 854 z "},"Ę":{"ha":775,"x_min":107,"x_max":819,"o":"m 107 0 l 107 972 l 708 972 l 708 806 l 288 806 l 288 601 l 625 601 l 625 435 l 288 435 l 288 167 l 722 167 l 722 0 q 664 -58 686 -31 q 642 -108 642 -86 q 678 -144 642 -144 q 711 -131 697 -144 q 746 -90 725 -118 l 819 -150 q 751 -229 788 -201 q 658 -257 715 -257 q 561 -224 599 -257 q 524 -132 524 -192 q 549 -56 524 -92 q 611 0 575 -21 l 107 0 z "},"ę":{"ha":757,"x_min":51,"x_max":714,"o":"m 714 294 l 232 294 q 244 237 233 265 q 276 186 256 208 q 327 150 297 164 q 397 136 357 136 q 496 163 457 136 q 567 244 535 190 l 706 193 q 622 69 674 119 q 489 0 569 19 q 431 -58 453 -31 q 408 -108 408 -86 q 444 -144 408 -144 q 478 -131 464 -144 q 513 -90 492 -118 l 586 -150 q 518 -229 554 -201 q 425 -257 482 -257 q 328 -224 365 -257 q 290 -132 290 -192 q 310 -64 290 -96 q 361 -10 331 -32 q 219 29 278 -6 q 124 115 161 64 q 69 228 86 167 q 51 350 51 290 q 70 476 51 413 q 129 592 89 540 q 233 678 169 644 q 388 711 297 711 q 537 678 475 711 q 638 595 599 646 q 696 483 678 544 q 714 365 714 422 l 714 294 m 388 564 q 328 552 354 564 q 284 522 303 540 q 253 479 265 503 q 236 431 240 456 l 538 431 q 521 481 532 457 q 492 523 510 504 q 448 553 474 542 q 388 564 422 564 z "},"Ě":{"ha":772,"x_min":107,"x_max":722,"o":"m 708 972 l 708 806 l 288 806 l 288 601 l 625 601 l 625 435 l 288 435 l 288 167 l 722 167 l 722 0 l 107 0 l 107 972 l 708 972 m 146 1317 l 313 1317 l 407 1214 l 501 1317 l 668 1317 l 431 1058 l 383 1058 l 146 1317 z "},"ě":{"ha":757,"x_min":51,"x_max":714,"o":"m 714 294 l 232 294 q 244 237 233 265 q 276 186 256 208 q 327 150 297 164 q 397 136 357 136 q 494 162 457 136 q 563 236 532 188 l 701 185 q 653 106 681 142 q 588 44 625 69 q 501 3 550 18 q 388 -11 451 -11 q 233 22 297 -11 q 129 108 169 56 q 70 224 89 160 q 51 350 51 288 q 70 476 51 413 q 129 592 89 540 q 233 678 169 644 q 388 711 297 711 q 537 678 475 711 q 638 595 599 646 q 696 483 678 544 q 714 365 714 422 l 714 294 m 388 564 q 328 552 354 564 q 284 522 303 540 q 253 479 265 503 q 236 431 240 456 l 538 431 q 521 481 532 457 q 492 523 510 504 q 448 553 474 542 q 388 564 422 564 m 126 1044 l 293 1044 l 388 942 l 482 1044 l 649 1044 l 411 786 l 364 786 l 126 1044 z "},"Ĝ":{"ha":994,"x_min":57,"x_max":924,"o":"m 742 104 q 656 25 714 61 q 506 -11 599 -11 q 337 20 418 -11 q 193 113 256 51 q 94 268 131 175 q 57 486 57 361 q 95 704 57 611 q 198 859 133 797 q 346 952 263 921 q 519 983 429 983 q 667 960 600 983 q 784 897 733 938 q 869 799 835 856 q 924 676 904 743 l 758 633 q 666 767 724 717 q 519 817 608 817 q 410 797 461 817 q 322 736 360 776 q 262 633 283 696 q 240 486 240 571 q 262 336 240 399 q 321 233 283 274 q 408 174 358 193 q 515 156 458 156 q 608 172 569 156 q 674 215 647 189 q 715 274 700 242 q 733 340 729 307 l 553 340 l 553 490 l 908 490 l 908 0 l 757 0 l 742 104 m 496 1317 l 543 1317 l 781 1058 l 614 1058 l 519 1161 l 425 1058 l 258 1058 l 496 1317 z "},"ĝ":{"ha":707,"x_min":47,"x_max":692,"o":"m 106 475 q 126 573 106 529 q 181 647 146 617 q 263 694 215 678 q 363 711 310 711 q 492 681 431 711 l 624 750 l 692 636 l 592 586 q 619 475 619 538 q 599 376 619 419 q 544 303 579 333 q 463 258 510 274 q 363 242 415 242 q 261 257 310 242 q 228 204 228 238 q 293 153 228 153 l 436 153 q 615 101 547 153 q 682 -53 682 49 q 654 -164 682 -118 q 581 -239 626 -210 q 479 -281 536 -268 q 364 -294 422 -294 q 239 -280 297 -294 q 138 -236 181 -265 q 72 -164 96 -207 q 47 -64 47 -121 q 62 15 47 -21 q 104 75 76 50 q 78 122 88 94 q 68 183 68 150 q 92 270 68 233 q 154 331 115 307 q 118 394 131 358 q 106 475 106 431 m 303 8 q 261 10 281 8 q 222 14 242 11 q 207 -50 207 -10 q 251 -125 207 -100 q 364 -150 296 -150 q 468 -131 426 -150 q 510 -64 510 -111 q 478 -6 510 -19 q 397 8 446 8 l 303 8 m 267 475 q 294 406 267 432 q 363 381 321 381 q 431 406 404 381 q 458 475 458 432 q 431 546 458 519 q 363 572 404 572 q 294 546 321 572 q 267 475 267 519 m 339 1044 l 386 1044 l 624 786 l 457 786 l 363 889 l 268 786 l 101 786 l 339 1044 z "},"Ğ":{"ha":994,"x_min":57,"x_max":924,"o":"m 742 104 q 656 25 714 61 q 506 -11 599 -11 q 337 20 418 -11 q 193 113 256 51 q 94 268 131 175 q 57 486 57 361 q 95 704 57 611 q 198 859 133 797 q 346 952 263 921 q 519 983 429 983 q 667 960 600 983 q 784 897 733 938 q 869 799 835 856 q 924 676 904 743 l 758 633 q 666 767 724 717 q 519 817 608 817 q 410 797 461 817 q 322 736 360 776 q 262 633 283 696 q 240 486 240 571 q 262 336 240 399 q 321 233 283 274 q 408 174 358 193 q 515 156 458 156 q 608 172 569 156 q 674 215 647 189 q 715 274 700 242 q 733 340 729 307 l 553 340 l 553 490 l 908 490 l 908 0 l 757 0 l 742 104 m 481 1244 q 491 1217 481 1228 q 518 1206 501 1206 q 545 1217 535 1206 q 556 1244 556 1228 l 682 1244 q 671 1187 682 1214 q 638 1139 660 1160 q 586 1106 617 1118 q 518 1093 556 1093 q 450 1106 481 1093 q 398 1139 419 1118 q 365 1187 376 1160 q 354 1244 354 1214 l 481 1244 z "},"ğ":{"ha":707,"x_min":47,"x_max":692,"o":"m 106 475 q 126 573 106 529 q 181 647 146 617 q 263 694 215 678 q 363 711 310 711 q 492 681 431 711 l 624 750 l 692 636 l 592 586 q 619 475 619 538 q 599 376 619 419 q 544 303 579 333 q 463 258 510 274 q 363 242 415 242 q 261 257 310 242 q 228 204 228 238 q 293 153 228 153 l 436 153 q 615 101 547 153 q 682 -53 682 49 q 654 -164 682 -118 q 581 -239 626 -210 q 479 -281 536 -268 q 364 -294 422 -294 q 239 -280 297 -294 q 138 -236 181 -265 q 72 -164 96 -207 q 47 -64 47 -121 q 62 15 47 -21 q 104 75 76 50 q 78 122 88 94 q 68 183 68 150 q 92 270 68 233 q 154 331 115 307 q 118 394 131 358 q 106 475 106 431 m 303 8 q 261 10 281 8 q 222 14 242 11 q 207 -50 207 -10 q 251 -125 207 -100 q 364 -150 296 -150 q 468 -131 426 -150 q 510 -64 510 -111 q 478 -6 510 -19 q 397 8 446 8 l 303 8 m 267 475 q 294 406 267 432 q 363 381 321 381 q 431 406 404 381 q 458 475 458 432 q 431 546 458 519 q 363 572 404 572 q 294 546 321 572 q 267 475 267 519 m 326 972 q 337 944 326 956 q 364 933 347 933 q 391 944 381 933 q 401 972 401 956 l 528 972 q 517 915 528 942 q 484 867 506 888 q 432 833 463 846 q 364 821 401 821 q 296 833 326 821 q 244 867 265 846 q 211 915 222 888 q 200 972 200 942 l 326 972 z "},"Ġ":{"ha":994,"x_min":57,"x_max":924,"o":"m 742 104 q 656 25 714 61 q 506 -11 599 -11 q 337 20 418 -11 q 193 113 256 51 q 94 268 131 175 q 57 486 57 361 q 95 704 57 611 q 198 859 133 797 q 346 952 263 921 q 519 983 429 983 q 667 960 600 983 q 784 897 733 938 q 869 799 835 856 q 924 676 904 743 l 758 633 q 666 767 724 717 q 519 817 608 817 q 410 797 461 817 q 322 736 360 776 q 262 633 283 696 q 240 486 240 571 q 262 336 240 399 q 321 233 283 274 q 408 174 358 193 q 515 156 458 156 q 608 172 569 156 q 674 215 647 189 q 715 274 700 242 q 733 340 729 307 l 553 340 l 553 490 l 908 490 l 908 0 l 757 0 l 742 104 m 410 1174 q 441 1253 410 1221 q 521 1285 472 1285 q 601 1253 569 1285 q 632 1174 632 1221 q 601 1094 632 1126 q 521 1063 569 1063 q 441 1094 472 1063 q 410 1174 410 1126 z "},"ġ":{"ha":707,"x_min":47,"x_max":692,"o":"m 106 475 q 126 573 106 529 q 181 647 146 617 q 263 694 215 678 q 363 711 310 711 q 492 681 431 711 l 624 750 l 692 636 l 592 586 q 619 475 619 538 q 599 376 619 419 q 544 303 579 333 q 463 258 510 274 q 363 242 415 242 q 261 257 310 242 q 228 204 228 238 q 293 153 228 153 l 436 153 q 615 101 547 153 q 682 -53 682 49 q 654 -164 682 -118 q 581 -239 626 -210 q 479 -281 536 -268 q 364 -294 422 -294 q 239 -280 297 -294 q 138 -236 181 -265 q 72 -164 96 -207 q 47 -64 47 -121 q 62 15 47 -21 q 104 75 76 50 q 78 122 88 94 q 68 183 68 150 q 92 270 68 233 q 154 331 115 307 q 118 394 131 358 q 106 475 106 431 m 303 8 q 261 10 281 8 q 222 14 242 11 q 207 -50 207 -10 q 251 -125 207 -100 q 364 -150 296 -150 q 468 -131 426 -150 q 510 -64 510 -111 q 478 -6 510 -19 q 397 8 446 8 l 303 8 m 267 475 q 294 406 267 432 q 363 381 321 381 q 431 406 404 381 q 458 475 458 432 q 431 546 458 519 q 363 572 404 572 q 294 546 321 572 q 267 475 267 519 m 251 901 q 283 981 251 949 q 363 1013 314 1013 q 442 981 411 1013 q 474 901 474 949 q 442 822 474 854 q 363 790 411 790 q 283 822 314 790 q 251 901 251 854 z "},"Ģ":{"ha":994,"x_min":57,"x_max":924,"o":"m 424 -72 l 636 -72 l 464 -350 l 354 -350 l 424 -72 m 742 104 q 656 25 714 61 q 506 -11 599 -11 q 337 20 418 -11 q 193 113 256 51 q 94 268 131 175 q 57 486 57 361 q 95 704 57 611 q 198 859 133 797 q 346 952 263 921 q 519 983 429 983 q 667 960 600 983 q 784 897 733 938 q 869 799 835 856 q 924 676 904 743 l 758 633 q 666 767 724 717 q 519 817 608 817 q 410 797 461 817 q 322 736 360 776 q 262 633 283 696 q 240 486 240 571 q 262 336 240 399 q 321 233 283 274 q 408 174 358 193 q 515 156 458 156 q 608 172 569 156 q 674 215 647 189 q 715 274 700 242 q 733 340 729 307 l 553 340 l 553 490 l 908 490 l 908 0 l 757 0 l 742 104 z "},"ģ":{"ha":707,"x_min":47,"x_max":692,"o":"m 424 800 l 301 800 l 164 1033 l 365 1033 l 424 800 m 106 475 q 126 573 106 529 q 181 647 146 617 q 263 694 215 678 q 363 711 310 711 q 492 681 431 711 l 624 750 l 692 636 l 592 586 q 619 475 619 538 q 599 376 619 419 q 544 303 579 333 q 463 258 510 274 q 363 242 415 242 q 261 257 310 242 q 228 204 228 238 q 293 153 228 153 l 436 153 q 615 101 547 153 q 682 -53 682 49 q 654 -164 682 -118 q 581 -239 626 -210 q 479 -281 536 -268 q 364 -294 422 -294 q 239 -280 297 -294 q 138 -236 181 -265 q 72 -164 96 -207 q 47 -64 47 -121 q 62 15 47 -21 q 104 75 76 50 q 78 122 88 94 q 68 183 68 150 q 92 270 68 233 q 154 331 115 307 q 118 394 131 358 q 106 475 106 431 m 303 8 q 261 10 281 8 q 222 14 242 11 q 207 -50 207 -10 q 251 -125 207 -100 q 364 -150 296 -150 q 468 -131 426 -150 q 510 -64 510 -111 q 478 -6 510 -19 q 397 8 446 8 l 303 8 m 267 475 q 294 406 267 432 q 363 381 321 381 q 431 406 404 381 q 458 475 458 432 q 431 546 458 519 q 363 572 404 572 q 294 546 321 572 q 267 475 267 519 z "},"Ĥ":{"ha":964,"x_min":107,"x_max":857,"o":"m 107 972 l 288 972 l 288 603 l 676 603 l 676 972 l 857 972 l 857 0 l 676 0 l 676 436 l 288 436 l 288 0 l 107 0 l 107 972 m 458 1317 l 506 1317 l 743 1058 l 576 1058 l 482 1161 l 388 1058 l 221 1058 l 458 1317 z "},"ĥ":{"ha":793,"x_min":94,"x_max":707,"o":"m 267 983 l 267 588 q 356 676 300 640 q 489 711 413 711 q 648 660 589 711 q 707 500 707 608 l 707 0 l 535 0 l 535 439 q 431 564 535 564 q 372 549 401 564 q 319 501 342 533 q 281 417 296 468 q 267 296 267 367 l 267 0 l 94 0 l 94 983 l 267 983 m 332 1317 l 379 1317 l 617 1058 l 450 1058 l 356 1161 l 261 1058 l 94 1058 l 332 1317 z "},"Ħ":{"ha":992,"x_min":31,"x_max":960,"o":"m 31 839 l 121 839 l 121 972 l 301 972 l 301 839 l 690 839 l 690 972 l 871 972 l 871 839 l 960 839 l 960 689 l 871 689 l 871 0 l 690 0 l 690 436 l 301 436 l 301 0 l 121 0 l 121 689 l 31 689 l 31 839 m 690 603 l 690 689 l 301 689 l 301 603 l 690 603 z "},"ħ":{"ha":808,"x_min":10,"x_max":722,"o":"m 10 904 l 110 904 l 110 983 l 282 983 l 282 904 l 436 904 l 436 776 l 282 776 l 282 588 q 372 676 315 640 q 504 711 428 711 q 663 660 604 711 q 722 500 722 608 l 722 0 l 550 0 l 550 439 q 446 564 550 564 q 387 549 417 564 q 334 501 357 533 q 297 417 311 468 q 282 296 282 367 l 282 0 l 110 0 l 110 776 l 10 776 l 10 904 z "},"Ĩ":{"ha":417,"x_min":-57,"x_max":478,"o":"m 299 0 l 118 0 l 118 972 l 299 972 l 299 0 m -57 1139 q 14 1226 -33 1192 q 114 1260 61 1260 q 172 1251 149 1260 q 215 1231 196 1242 q 254 1212 235 1221 q 299 1203 274 1203 q 345 1219 322 1203 q 388 1263 368 1235 l 478 1186 q 407 1099 454 1133 q 307 1065 360 1065 q 249 1074 272 1065 q 205 1094 225 1083 q 166 1113 185 1104 q 122 1122 147 1122 q 76 1106 99 1122 q 33 1063 53 1090 l -57 1139 z "},"ĩ":{"ha":336,"x_min":-97,"x_max":438,"o":"m 254 700 l 254 0 l 82 0 l 82 700 l 254 700 m -97 867 q -26 953 -74 919 q 74 988 21 988 q 132 978 108 988 q 175 959 156 969 q 214 940 194 949 q 258 931 233 931 q 305 947 282 931 q 347 990 328 963 l 438 914 q 367 827 414 861 q 267 793 319 793 q 208 802 232 793 q 165 822 185 811 q 126 841 144 832 q 82 850 107 850 q 35 834 58 850 q -7 790 13 818 l -97 867 z "},"Ī":{"ha":422,"x_min":24,"x_max":397,"o":"m 301 0 l 121 0 l 121 972 l 301 972 l 301 0 m 24 1256 l 397 1256 l 397 1103 l 24 1103 l 24 1256 z "},"ī":{"ha":361,"x_min":-4,"x_max":369,"o":"m 267 700 l 267 0 l 94 0 l 94 700 l 267 700 m -4 985 l 369 985 l 369 832 l -4 832 l -4 985 z "},"Ĭ":{"ha":417,"x_min":44,"x_max":372,"o":"m 299 0 l 118 0 l 118 972 l 299 972 l 299 0 m 171 1244 q 181 1217 171 1228 q 208 1206 192 1206 q 235 1217 225 1206 q 246 1244 246 1228 l 372 1244 q 361 1187 372 1214 q 328 1139 350 1160 q 276 1106 307 1118 q 208 1093 246 1093 q 140 1106 171 1093 q 88 1139 110 1118 q 56 1187 67 1160 q 44 1244 44 1214 l 171 1244 z "},"ĭ":{"ha":358,"x_min":15,"x_max":343,"o":"m 265 700 l 265 0 l 93 0 l 93 700 l 265 700 m 142 972 q 152 944 142 956 q 179 933 163 933 q 206 944 196 933 q 217 972 217 956 l 343 972 q 332 915 343 942 q 299 867 321 888 q 247 833 278 846 q 179 821 217 821 q 111 833 142 821 q 59 867 81 846 q 26 915 38 888 q 15 972 15 942 l 142 972 z "},"Į":{"ha":411,"x_min":92,"x_max":388,"o":"m 110 0 l 110 972 l 290 972 l 290 0 q 232 -58 254 -31 q 210 -108 210 -86 q 246 -144 210 -144 q 279 -131 265 -144 q 314 -90 293 -118 l 388 -150 q 319 -229 356 -201 q 226 -257 283 -257 q 129 -224 167 -257 q 92 -132 92 -192 q 117 -56 92 -92 q 179 0 143 -21 l 110 0 z "},"į":{"ha":351,"x_min":58,"x_max":354,"o":"m 85 0 l 85 700 l 257 700 l 257 0 q 199 -58 221 -31 q 176 -108 176 -86 q 213 -144 176 -144 q 246 -131 232 -144 q 281 -90 260 -118 l 354 -150 q 286 -229 322 -201 q 193 -257 250 -257 q 96 -224 133 -257 q 58 -132 58 -192 q 84 -56 58 -92 q 146 0 110 -21 l 85 0 m 60 901 q 91 981 60 949 q 171 1013 122 1013 q 251 981 219 1013 q 282 901 282 949 q 251 822 282 854 q 171 790 219 790 q 91 822 122 790 q 60 901 60 854 z "},"İ":{"ha":400,"x_min":89,"x_max":311,"o":"m 290 0 l 110 0 l 110 972 l 290 972 l 290 0 m 89 1174 q 120 1253 89 1221 q 200 1285 151 1285 q 280 1253 249 1285 q 311 1174 311 1221 q 280 1094 311 1126 q 200 1063 249 1063 q 120 1094 151 1063 q 89 1174 89 1126 z "},"ı":{"ha":333,"x_min":81,"x_max":253,"o":"m 253 700 l 253 0 l 81 0 l 81 700 l 253 700 z "},"Ĳ":{"ha":1113,"x_min":107,"x_max":1025,"o":"m 288 0 l 107 0 l 107 972 l 288 972 l 288 0 m 593 278 q 636 184 606 213 q 715 156 667 156 q 768 163 744 156 q 808 190 792 171 q 835 242 825 210 q 844 322 844 274 l 844 972 l 1025 972 l 1025 342 q 1003 176 1025 243 q 942 67 982 108 q 844 7 901 25 q 715 -11 788 -11 q 509 56 588 -11 q 415 240 431 122 l 593 278 z "},"ĳ":{"ha":703,"x_min":60,"x_max":643,"o":"m 60 901 q 91 981 60 949 q 171 1013 122 1013 q 251 981 219 1013 q 282 901 282 949 q 251 822 282 854 q 171 790 219 790 q 91 822 122 790 q 60 901 60 854 m 257 700 l 257 0 l 85 0 l 85 700 l 257 700 m 618 700 l 618 -6 q 607 -126 618 -72 q 571 -217 596 -179 q 506 -274 546 -254 q 407 -294 465 -294 q 356 -291 375 -294 q 322 -282 336 -287 l 322 -132 q 371 -143 351 -143 q 428 -115 411 -143 q 446 -31 446 -87 l 446 700 l 618 700 m 421 901 q 452 981 421 949 q 532 1013 483 1013 q 612 981 581 1013 q 643 901 643 949 q 612 822 643 854 q 532 790 581 790 q 452 822 483 790 q 421 901 421 854 z "},"Ĵ":{"ha":706,"x_min":3,"x_max":786,"o":"m 181 278 q 224 184 193 213 q 303 156 254 156 q 356 163 332 156 q 396 190 379 171 q 422 242 413 210 q 432 322 432 274 l 432 972 l 613 972 l 613 342 q 591 176 613 243 q 529 67 569 108 q 432 7 489 25 q 303 -11 375 -11 q 97 56 175 -11 q 3 240 18 122 l 181 278 m 501 1317 l 549 1317 l 786 1058 l 619 1058 l 525 1161 l 431 1058 l 264 1058 l 501 1317 z "},"ĵ":{"ha":339,"x_min":-92,"x_max":431,"o":"m 256 700 l 256 81 q 238 -66 256 -3 q 183 -174 219 -129 q 91 -248 146 -218 q -37 -294 36 -278 l -79 -143 q -11 -119 -42 -133 q 40 -81 19 -104 q 72 -24 61 -58 q 83 60 83 11 l 83 700 l 256 700 m 146 1044 l 193 1044 l 431 786 l 264 786 l 169 889 l 75 786 l -92 786 l 146 1044 z "},"Ķ":{"ha":875,"x_min":107,"x_max":869,"o":"m 346 -72 l 558 -72 l 386 -350 l 276 -350 l 346 -72 m 288 972 l 288 611 l 619 972 l 842 972 l 447 538 l 869 0 l 640 0 l 288 464 l 288 0 l 107 0 l 107 972 l 288 972 z "},"ķ":{"ha":729,"x_min":94,"x_max":725,"o":"m 286 -72 l 499 -72 l 326 -350 l 217 -350 l 286 -72 m 267 983 l 267 425 l 494 700 l 707 700 l 426 378 l 725 0 l 514 0 l 267 331 l 267 0 l 94 0 l 94 983 l 267 983 z "},"ĸ":{"ha":729,"x_min":94,"x_max":725,"o":"m 267 700 l 267 425 l 494 700 l 707 700 l 426 378 l 725 0 l 514 0 l 267 331 l 267 0 l 94 0 l 94 700 l 267 700 z "},"Ĺ":{"ha":717,"x_min":107,"x_max":700,"o":"m 288 972 l 288 167 l 700 167 l 700 0 l 107 0 l 107 972 l 288 972 m 199 1256 l 432 1256 l 242 1050 l 110 1050 l 199 1256 z "},"ĺ":{"ha":364,"x_min":93,"x_max":418,"o":"m 265 983 l 265 0 l 93 0 l 93 983 l 265 983 m 185 1256 l 418 1256 l 228 1050 l 96 1050 l 185 1256 z "},"Ļ":{"ha":717,"x_min":107,"x_max":700,"o":"m 308 -72 l 521 -72 l 349 -350 l 239 -350 l 308 -72 m 288 972 l 288 167 l 700 167 l 700 0 l 107 0 l 107 972 l 288 972 z "},"ļ":{"ha":372,"x_min":17,"x_max":299,"o":"m 86 -72 l 299 -72 l 126 -350 l 17 -350 l 86 -72 m 279 983 l 279 0 l 107 0 l 107 983 l 279 983 z "},"Ľ":{"ha":719,"x_min":107,"x_max":713,"o":"m 524 1025 l 713 1025 l 599 769 l 489 769 l 524 1025 m 288 972 l 288 167 l 700 167 l 700 0 l 107 0 l 107 972 l 288 972 z "},"ľ":{"ha":586,"x_min":93,"x_max":581,"o":"m 392 1025 l 581 1025 l 467 769 l 357 769 l 392 1025 m 265 983 l 265 0 l 93 0 l 93 983 l 265 983 z "},"Ŀ":{"ha":717,"x_min":107,"x_max":700,"o":"m 288 972 l 288 167 l 700 167 l 700 0 l 107 0 l 107 972 l 288 972 m 419 513 q 453 596 419 563 q 536 629 486 629 q 619 596 586 629 q 653 513 653 563 q 619 429 653 463 q 536 396 586 396 q 453 429 486 396 q 419 513 419 463 z "},"ŀ":{"ha":674,"x_min":93,"x_max":594,"o":"m 265 983 l 265 0 l 93 0 l 93 983 l 265 983 m 361 513 q 394 596 361 563 q 478 629 428 629 q 561 596 528 629 q 594 513 594 563 q 561 429 594 463 q 478 396 528 396 q 394 429 428 396 q 361 513 361 463 z "},"Ł":{"ha":763,"x_min":4,"x_max":746,"o":"m 333 972 l 333 600 l 474 678 l 547 546 l 333 428 l 333 167 l 746 167 l 746 0 l 153 0 l 153 328 l 78 286 l 4 418 l 153 500 l 153 972 l 333 972 z "},"ł":{"ha":504,"x_min":22,"x_max":478,"o":"m 336 983 l 336 638 l 404 675 l 478 543 l 336 465 l 336 0 l 164 0 l 164 371 l 96 335 l 22 467 l 164 543 l 164 983 l 336 983 z "},"Ń":{"ha":942,"x_min":107,"x_max":835,"o":"m 835 972 l 835 0 l 644 0 l 288 642 l 288 0 l 107 0 l 107 972 l 297 972 l 654 331 l 654 972 l 835 972 m 471 1256 l 704 1256 l 514 1050 l 382 1050 l 471 1256 z "},"ń":{"ha":785,"x_min":94,"x_max":699,"o":"m 267 700 l 267 588 q 360 677 306 643 q 483 711 415 711 q 638 658 578 711 q 699 500 699 606 l 699 0 l 526 0 l 526 449 q 499 538 526 511 q 426 564 471 564 q 366 545 394 564 q 315 490 338 526 q 280 401 293 454 q 267 279 267 349 l 267 0 l 94 0 l 94 700 l 267 700 m 388 983 l 621 983 l 431 778 l 299 778 l 388 983 z "},"Ņ":{"ha":942,"x_min":107,"x_max":835,"o":"m 371 -72 l 583 -72 l 411 -350 l 301 -350 l 371 -72 m 835 972 l 835 0 l 644 0 l 288 642 l 288 0 l 107 0 l 107 972 l 297 972 l 654 331 l 654 972 l 835 972 z "},"ņ":{"ha":785,"x_min":94,"x_max":699,"o":"m 286 -72 l 499 -72 l 326 -350 l 217 -350 l 286 -72 m 267 700 l 267 588 q 360 677 306 643 q 483 711 415 711 q 638 658 578 711 q 699 500 699 606 l 699 0 l 526 0 l 526 449 q 499 538 526 511 q 426 564 471 564 q 366 545 394 564 q 315 490 338 526 q 280 401 293 454 q 267 279 267 349 l 267 0 l 94 0 l 94 700 l 267 700 z "},"Ň":{"ha":942,"x_min":107,"x_max":835,"o":"m 835 972 l 835 0 l 644 0 l 288 642 l 288 0 l 107 0 l 107 972 l 297 972 l 654 331 l 654 972 l 835 972 m 210 1317 l 376 1317 l 471 1214 l 565 1317 l 732 1317 l 494 1058 l 447 1058 l 210 1317 z "},"ň":{"ha":785,"x_min":94,"x_max":699,"o":"m 267 700 l 267 588 q 360 677 306 643 q 483 711 415 711 q 638 658 578 711 q 699 500 699 606 l 699 0 l 526 0 l 526 449 q 499 538 526 511 q 426 564 471 564 q 366 545 394 564 q 315 490 338 526 q 280 401 293 454 q 267 279 267 349 l 267 0 l 94 0 l 94 700 l 267 700 m 151 1044 l 318 1044 l 413 942 l 507 1044 l 674 1044 l 436 786 l 389 786 l 151 1044 z "},"ŉ":{"ha":825,"x_min":19,"x_max":739,"o":"m 54 1025 l 243 1025 l 129 769 l 19 769 l 54 1025 m 307 700 l 307 588 q 401 677 346 643 q 524 711 456 711 q 678 658 618 711 q 739 500 739 606 l 739 0 l 567 0 l 567 449 q 539 538 567 511 q 467 564 511 564 q 406 545 435 564 q 356 490 378 526 q 320 401 333 454 q 307 279 307 349 l 307 0 l 135 0 l 135 700 l 307 700 z "},"Ŋ":{"ha":942,"x_min":107,"x_max":835,"o":"m 525 -128 q 574 -122 551 -128 q 615 -102 597 -117 q 642 -63 632 -87 q 654 0 651 -39 l 288 642 l 288 0 l 107 0 l 107 972 l 297 972 l 654 331 l 654 972 l 835 972 l 835 0 q 813 -134 835 -78 q 751 -226 792 -190 q 653 -278 710 -261 q 525 -294 596 -294 l 525 -128 z "},"ŋ":{"ha":785,"x_min":94,"x_max":699,"o":"m 526 449 q 499 538 526 511 q 426 564 471 564 q 366 545 394 564 q 315 490 338 526 q 280 401 293 454 q 267 279 267 349 l 267 0 l 94 0 l 94 700 l 267 700 l 267 588 q 360 677 306 643 q 483 711 415 711 q 638 658 578 711 q 699 500 699 606 l 699 81 q 681 -66 699 -3 q 626 -174 663 -129 q 534 -248 589 -218 q 406 -294 479 -278 l 364 -143 q 432 -119 401 -133 q 483 -81 463 -104 q 515 -24 504 -58 q 526 60 526 11 l 526 449 l 526 449 z "},"Ō":{"ha":1031,"x_min":57,"x_max":974,"o":"m 515 983 q 690 953 607 983 q 837 861 774 922 q 937 706 900 800 q 974 486 974 613 q 937 266 974 360 q 837 111 900 172 q 690 19 774 50 q 515 -11 607 -11 q 340 19 424 -11 q 194 111 257 50 q 94 266 131 172 q 57 486 57 360 q 94 706 57 613 q 194 861 131 800 q 340 953 257 922 q 515 983 424 983 m 515 817 q 411 797 461 817 q 323 738 361 778 q 263 635 285 697 q 240 486 240 572 q 263 338 240 400 q 323 235 285 275 q 411 175 361 194 q 515 156 461 156 q 619 175 569 156 q 708 235 669 194 q 768 338 746 275 q 790 486 790 400 q 768 635 790 572 q 708 738 746 697 q 619 797 669 778 q 515 817 569 817 m 328 1256 l 701 1256 l 701 1103 l 328 1103 l 328 1256 z "},"ō":{"ha":814,"x_min":51,"x_max":763,"o":"m 51 350 q 75 492 51 426 q 144 607 99 558 q 256 683 190 656 q 407 711 322 711 q 558 683 492 711 q 669 607 624 656 q 739 492 715 558 q 763 350 763 426 q 739 208 763 274 q 669 93 715 142 q 558 17 624 44 q 407 -11 492 -11 q 256 17 322 -11 q 144 93 190 44 q 75 208 99 142 q 51 350 51 274 m 232 350 q 244 268 232 307 q 278 200 256 229 q 333 153 300 171 q 407 136 365 136 q 481 153 449 136 q 536 200 514 171 q 570 268 558 229 q 582 350 582 307 q 570 432 582 393 q 536 500 558 471 q 481 547 514 529 q 407 564 449 564 q 333 547 365 564 q 278 500 300 529 q 244 432 256 471 q 232 350 232 393 m 219 985 l 593 985 l 593 832 l 219 832 l 219 985 z "},"Ŏ":{"ha":1031,"x_min":57,"x_max":974,"o":"m 515 983 q 690 953 607 983 q 837 861 774 922 q 937 706 900 800 q 974 486 974 613 q 937 266 974 360 q 837 111 900 172 q 690 19 774 50 q 515 -11 607 -11 q 340 19 424 -11 q 194 111 257 50 q 94 266 131 172 q 57 486 57 360 q 94 706 57 613 q 194 861 131 800 q 340 953 257 922 q 515 983 424 983 m 515 817 q 411 797 461 817 q 323 738 361 778 q 263 635 285 697 q 240 486 240 572 q 263 338 240 400 q 323 235 285 275 q 411 175 361 194 q 515 156 461 156 q 619 175 569 156 q 708 235 669 194 q 768 338 746 275 q 790 486 790 400 q 768 635 790 572 q 708 738 746 697 q 619 797 669 778 q 515 817 569 817 m 478 1244 q 488 1217 478 1228 q 515 1206 499 1206 q 542 1217 532 1206 q 553 1244 553 1228 l 679 1244 q 668 1187 679 1214 q 635 1139 657 1160 q 583 1106 614 1118 q 515 1093 553 1093 q 447 1106 478 1093 q 395 1139 417 1118 q 363 1187 374 1160 q 351 1244 351 1214 l 478 1244 z "},"ŏ":{"ha":814,"x_min":51,"x_max":763,"o":"m 51 350 q 75 492 51 426 q 144 607 99 558 q 256 683 190 656 q 407 711 322 711 q 558 683 492 711 q 669 607 624 656 q 739 492 715 558 q 763 350 763 426 q 739 208 763 274 q 669 93 715 142 q 558 17 624 44 q 407 -11 492 -11 q 256 17 322 -11 q 144 93 190 44 q 75 208 99 142 q 51 350 51 274 m 232 350 q 244 268 232 307 q 278 200 256 229 q 333 153 300 171 q 407 136 365 136 q 481 153 449 136 q 536 200 514 171 q 570 268 558 229 q 582 350 582 307 q 570 432 582 393 q 536 500 558 471 q 481 547 514 529 q 407 564 449 564 q 333 547 365 564 q 278 500 300 529 q 244 432 256 471 q 232 350 232 393 m 369 972 q 380 944 369 956 q 407 933 390 933 q 434 944 424 933 q 444 972 444 956 l 571 972 q 560 915 571 942 q 527 867 549 888 q 475 833 506 846 q 407 821 444 821 q 339 833 369 821 q 287 867 308 846 q 254 915 265 888 q 243 972 243 942 l 369 972 z "},"Ő":{"ha":1031,"x_min":57,"x_max":974,"o":"m 515 983 q 690 953 607 983 q 837 861 774 922 q 937 706 900 800 q 974 486 974 613 q 937 266 974 360 q 837 111 900 172 q 690 19 774 50 q 515 -11 607 -11 q 340 19 424 -11 q 194 111 257 50 q 94 266 131 172 q 57 486 57 360 q 94 706 57 613 q 194 861 131 800 q 340 953 257 922 q 515 983 424 983 m 515 817 q 411 797 461 817 q 323 738 361 778 q 263 635 285 697 q 240 486 240 572 q 263 338 240 400 q 323 235 285 275 q 411 175 361 194 q 515 156 461 156 q 619 175 569 156 q 708 235 669 194 q 768 338 746 275 q 790 486 790 400 q 768 635 790 572 q 708 738 746 697 q 619 797 669 778 q 515 817 569 817 m 353 1256 l 586 1256 l 396 1050 l 264 1050 l 353 1256 m 635 1256 l 868 1256 l 678 1050 l 546 1050 l 635 1256 z "},"ő":{"ha":814,"x_min":51,"x_max":763,"o":"m 51 350 q 75 492 51 426 q 144 607 99 558 q 256 683 190 656 q 407 711 322 711 q 558 683 492 711 q 669 607 624 656 q 739 492 715 558 q 763 350 763 426 q 739 208 763 274 q 669 93 715 142 q 558 17 624 44 q 407 -11 492 -11 q 256 17 322 -11 q 144 93 190 44 q 75 208 99 142 q 51 350 51 274 m 232 350 q 244 268 232 307 q 278 200 256 229 q 333 153 300 171 q 407 136 365 136 q 481 153 449 136 q 536 200 514 171 q 570 268 558 229 q 582 350 582 307 q 570 432 582 393 q 536 500 558 471 q 481 547 514 529 q 407 564 449 564 q 333 547 365 564 q 278 500 300 529 q 244 432 256 471 q 232 350 232 393 m 235 983 l 468 983 l 278 778 l 146 778 l 235 983 m 517 983 l 750 983 l 560 778 l 428 778 l 517 983 z "},"Œ":{"ha":1457,"x_min":57,"x_max":1407,"o":"m 1393 972 l 1393 806 l 972 806 l 972 601 l 1310 601 l 1310 435 l 972 435 l 972 167 l 1407 167 l 1407 0 l 792 0 l 792 72 q 663 10 733 31 q 515 -11 592 -11 q 340 19 424 -11 q 194 111 257 50 q 94 266 131 172 q 57 486 57 360 q 94 706 57 613 q 194 861 131 800 q 340 953 257 922 q 515 983 424 983 q 663 963 592 983 q 792 899 733 942 l 792 972 l 1393 972 m 515 817 q 411 797 461 817 q 323 738 361 778 q 263 635 285 697 q 240 486 240 572 q 263 338 240 400 q 323 235 285 275 q 411 175 361 194 q 515 156 461 156 q 619 175 569 156 q 708 235 669 194 q 769 338 746 275 q 792 486 792 400 q 769 635 792 572 q 708 738 746 697 q 619 797 669 778 q 515 817 569 817 z "},"œ":{"ha":1288,"x_min":51,"x_max":1244,"o":"m 1244 294 l 763 294 q 775 237 764 265 q 807 186 786 208 q 858 150 828 164 q 928 136 888 136 q 1026 163 988 136 q 1097 244 1065 190 l 1236 193 q 1120 44 1196 100 q 918 -11 1044 -11 q 772 18 833 -11 q 669 94 710 47 q 558 17 624 46 q 407 -11 492 -11 q 256 17 322 -11 q 144 93 190 44 q 75 208 99 142 q 51 350 51 274 q 75 492 51 426 q 144 607 99 558 q 256 683 190 656 q 407 711 322 711 q 558 683 492 711 q 671 606 625 654 q 772 682 711 653 q 918 711 833 711 q 1067 678 1006 711 q 1169 595 1129 646 q 1226 483 1208 544 q 1244 365 1244 422 l 1244 294 m 232 350 q 244 268 232 307 q 278 200 256 229 q 333 153 300 171 q 407 136 365 136 q 481 153 449 136 q 536 200 514 171 q 570 268 558 229 q 582 350 582 307 q 570 432 582 393 q 535 500 558 471 q 480 547 513 529 q 407 564 447 564 q 333 547 365 564 q 278 500 300 529 q 244 432 256 471 q 232 350 232 393 m 918 564 q 859 552 885 564 q 815 522 833 540 q 783 479 796 503 q 767 431 771 456 l 1068 431 q 1051 481 1063 457 q 1022 523 1040 504 q 978 553 1004 542 q 918 564 953 564 z "},"Ŕ":{"ha":883,"x_min":107,"x_max":844,"o":"m 757 696 q 710 531 757 600 q 575 435 664 463 l 844 0 l 643 0 l 382 419 l 288 419 l 288 0 l 107 0 l 107 972 l 461 972 q 589 951 533 972 q 682 894 644 931 q 738 807 719 858 q 757 696 757 756 m 463 586 q 544 611 511 586 q 576 696 576 636 q 544 781 576 756 q 463 806 511 806 l 288 806 l 288 586 l 463 586 m 368 1256 l 601 1256 l 411 1050 l 279 1050 l 368 1256 z "},"ŕ":{"ha":564,"x_min":94,"x_max":532,"o":"m 94 0 l 94 700 l 267 700 l 267 586 q 359 680 304 649 q 474 711 414 711 q 499 710 485 711 q 526 706 514 708 l 526 538 q 454 557 494 557 q 383 540 417 557 q 323 488 349 524 q 282 392 297 451 q 267 249 267 333 l 267 0 l 94 0 m 299 983 l 532 983 l 342 778 l 210 778 l 299 983 z "},"Ŗ":{"ha":883,"x_min":107,"x_max":844,"o":"m 361 -72 l 574 -72 l 401 -350 l 292 -350 l 361 -72 m 757 696 q 710 531 757 600 q 575 435 664 463 l 844 0 l 643 0 l 382 419 l 288 419 l 288 0 l 107 0 l 107 972 l 461 972 q 589 951 533 972 q 682 894 644 931 q 738 807 719 858 q 757 696 757 756 m 463 586 q 544 611 511 586 q 576 696 576 636 q 544 781 576 756 q 463 806 511 806 l 288 806 l 288 586 l 463 586 z "},"ŗ":{"ha":575,"x_min":32,"x_max":538,"o":"m 101 -72 l 314 -72 l 142 -350 l 32 -350 l 101 -72 m 106 0 l 106 700 l 278 700 l 278 586 q 370 680 315 649 q 485 711 425 711 q 510 710 496 711 q 538 706 525 708 l 538 538 q 465 557 506 557 q 394 540 428 557 q 334 488 360 524 q 293 392 308 451 q 278 249 278 333 l 278 0 l 106 0 z "},"Ř":{"ha":883,"x_min":107,"x_max":844,"o":"m 757 696 q 710 531 757 600 q 575 435 664 463 l 844 0 l 643 0 l 382 419 l 288 419 l 288 0 l 107 0 l 107 972 l 461 972 q 589 951 533 972 q 682 894 644 931 q 738 807 719 858 q 757 696 757 756 m 463 586 q 544 611 511 586 q 576 696 576 636 q 544 781 576 756 q 463 806 511 806 l 288 806 l 288 586 l 463 586 m 118 1317 l 285 1317 l 379 1214 l 474 1317 l 640 1317 l 403 1058 l 356 1058 l 118 1317 z "},"ř":{"ha":574,"x_min":71,"x_max":593,"o":"m 100 0 l 100 700 l 272 700 l 272 586 q 365 680 310 649 q 479 711 419 711 q 505 710 490 711 q 532 706 519 708 l 532 538 q 460 557 500 557 q 388 540 422 557 q 328 488 354 524 q 288 392 303 451 q 272 249 272 333 l 272 0 l 100 0 m 71 1044 l 238 1044 l 332 942 l 426 1044 l 593 1044 l 356 786 l 308 786 l 71 1044 z "},"Ś":{"ha":732,"x_min":42,"x_max":688,"o":"m 500 714 q 440 792 472 768 q 365 817 408 817 q 299 792 325 817 q 272 728 272 767 q 303 657 272 686 q 380 603 333 628 q 480 554 426 579 q 580 495 533 529 q 657 413 626 461 q 688 292 688 364 q 665 165 688 221 q 602 69 643 108 q 503 10 561 31 q 376 -11 446 -11 q 253 10 310 -11 q 154 69 197 32 q 82 156 111 107 q 42 261 53 206 l 188 353 q 215 278 199 314 q 256 215 232 242 q 310 172 279 188 q 381 156 340 156 q 472 185 438 156 q 507 282 507 215 q 477 349 507 322 q 401 398 447 375 q 303 445 356 421 q 206 505 251 469 q 130 591 160 540 q 100 719 100 642 q 120 823 100 775 q 176 906 140 871 q 260 963 211 942 q 365 983 308 983 q 534 938 463 983 q 646 807 606 892 l 500 714 m 357 1256 l 590 1256 l 400 1050 l 268 1050 l 357 1256 z "},"ś":{"ha":618,"x_min":43,"x_max":569,"o":"m 314 711 q 443 680 385 711 q 533 597 501 649 l 431 503 q 375 549 407 535 q 314 564 343 564 q 269 549 289 564 q 250 506 250 535 q 267 465 250 482 q 317 438 285 449 q 397 410 353 425 q 479 373 440 396 q 544 314 518 350 q 569 222 569 278 q 552 133 569 175 q 502 58 535 90 q 424 8 469 26 q 321 -11 378 -11 q 221 6 267 -11 q 140 51 175 24 q 81 112 106 78 q 43 178 56 146 l 181 251 q 235 168 200 200 q 321 136 269 136 q 384 154 361 136 q 407 211 407 172 q 392 247 407 233 q 351 273 376 261 q 295 294 326 285 q 232 318 264 304 q 177 346 203 331 q 132 383 151 361 q 101 436 113 406 q 90 507 90 467 q 106 584 90 547 q 151 649 122 621 q 222 694 181 678 q 314 711 263 711 m 308 983 l 542 983 l 351 778 l 219 778 l 308 983 z "},"Ŝ":{"ha":732,"x_min":42,"x_max":688,"o":"m 500 714 q 440 792 472 768 q 365 817 408 817 q 299 792 325 817 q 272 728 272 767 q 303 657 272 686 q 380 603 333 628 q 480 554 426 579 q 580 495 533 529 q 657 413 626 461 q 688 292 688 364 q 665 165 688 221 q 602 69 643 108 q 503 10 561 31 q 376 -11 446 -11 q 253 10 310 -11 q 154 69 197 32 q 82 156 111 107 q 42 261 53 206 l 188 353 q 215 278 199 314 q 256 215 232 242 q 310 172 279 188 q 381 156 340 156 q 472 185 438 156 q 507 282 507 215 q 477 349 507 322 q 401 398 447 375 q 303 445 356 421 q 206 505 251 469 q 130 591 160 540 q 100 719 100 642 q 120 823 100 775 q 176 906 140 871 q 260 963 211 942 q 365 983 308 983 q 534 938 463 983 q 646 807 606 892 l 500 714 m 349 1317 l 396 1317 l 633 1058 l 467 1058 l 372 1161 l 278 1058 l 111 1058 l 349 1317 z "},"ŝ":{"ha":619,"x_min":43,"x_max":579,"o":"m 314 711 q 443 680 385 711 q 533 597 501 649 l 431 503 q 375 549 407 535 q 314 564 343 564 q 269 549 289 564 q 250 506 250 535 q 267 465 250 482 q 317 438 285 449 q 397 410 353 425 q 479 373 440 396 q 544 314 518 350 q 569 222 569 278 q 552 133 569 175 q 502 58 535 90 q 424 8 469 26 q 321 -11 378 -11 q 221 6 267 -11 q 140 51 175 24 q 81 112 106 78 q 43 178 56 146 l 181 251 q 235 168 200 200 q 321 136 269 136 q 384 154 361 136 q 407 211 407 172 q 392 247 407 233 q 351 273 376 261 q 295 294 326 285 q 232 318 264 304 q 177 346 203 331 q 132 383 151 361 q 101 436 113 406 q 90 507 90 467 q 106 584 90 547 q 151 649 122 621 q 222 694 181 678 q 314 711 263 711 m 294 1044 l 342 1044 l 579 786 l 413 786 l 318 889 l 224 786 l 57 786 l 294 1044 z "},"Ş":{"ha":732,"x_min":42,"x_max":688,"o":"m 500 714 q 440 792 472 768 q 365 817 408 817 q 299 792 325 817 q 272 728 272 767 q 303 657 272 686 q 380 603 333 628 q 480 554 426 579 q 580 495 533 529 q 657 413 626 461 q 688 292 688 364 q 665 165 688 221 q 602 69 643 108 q 503 10 561 31 q 376 -11 446 -11 q 253 10 310 -11 q 154 69 197 32 q 82 156 111 107 q 42 261 53 206 l 188 353 q 215 278 199 314 q 256 215 232 242 q 310 172 279 188 q 381 156 340 156 q 472 185 438 156 q 507 282 507 215 q 477 349 507 322 q 401 398 447 375 q 303 445 356 421 q 206 505 251 469 q 130 591 160 540 q 100 719 100 642 q 120 823 100 775 q 176 906 140 871 q 260 963 211 942 q 365 983 308 983 q 534 938 463 983 q 646 807 606 892 l 500 714 m 367 -369 l 161 -278 l 357 -83 l 482 -83 l 367 -369 z "},"ş":{"ha":618,"x_min":43,"x_max":569,"o":"m 314 711 q 443 680 385 711 q 533 597 501 649 l 431 503 q 375 549 407 535 q 314 564 343 564 q 269 549 289 564 q 250 506 250 535 q 267 465 250 482 q 317 438 285 449 q 397 410 353 425 q 479 373 440 396 q 544 314 518 350 q 569 222 569 278 q 552 133 569 175 q 502 58 535 90 q 424 8 469 26 q 321 -11 378 -11 q 221 6 267 -11 q 140 51 175 24 q 81 112 106 78 q 43 178 56 146 l 181 251 q 235 168 200 200 q 321 136 269 136 q 384 154 361 136 q 407 211 407 172 q 392 247 407 233 q 351 273 376 261 q 295 294 326 285 q 232 318 264 304 q 177 346 203 331 q 132 383 151 361 q 101 436 113 406 q 90 507 90 467 q 106 584 90 547 q 151 649 122 621 q 222 694 181 678 q 314 711 263 711 m 311 -369 l 106 -278 l 301 -83 l 426 -83 l 311 -369 z "},"Š":{"ha":732,"x_min":42,"x_max":688,"o":"m 500 714 q 440 792 472 768 q 365 817 408 817 q 299 792 325 817 q 272 728 272 767 q 303 657 272 686 q 380 603 333 628 q 480 554 426 579 q 580 495 533 529 q 657 413 626 461 q 688 292 688 364 q 665 165 688 221 q 602 69 643 108 q 503 10 561 31 q 376 -11 446 -11 q 253 10 310 -11 q 154 69 197 32 q 82 156 111 107 q 42 261 53 206 l 188 353 q 215 278 199 314 q 256 215 232 242 q 310 172 279 188 q 381 156 340 156 q 472 185 438 156 q 507 282 507 215 q 477 349 507 322 q 401 398 447 375 q 303 445 356 421 q 206 505 251 469 q 130 591 160 540 q 100 719 100 642 q 120 823 100 775 q 176 906 140 871 q 260 963 211 942 q 365 983 308 983 q 534 938 463 983 q 646 807 606 892 l 500 714 m 104 1317 l 271 1317 l 365 1214 l 460 1317 l 626 1317 l 389 1058 l 342 1058 l 104 1317 z "},"š":{"ha":626,"x_min":43,"x_max":579,"o":"m 314 711 q 443 680 385 711 q 533 597 501 649 l 431 503 q 375 549 407 535 q 314 564 343 564 q 269 549 289 564 q 250 506 250 535 q 267 465 250 482 q 317 438 285 449 q 397 410 353 425 q 479 373 440 396 q 544 314 518 350 q 569 222 569 278 q 552 133 569 175 q 502 58 535 90 q 424 8 469 26 q 321 -11 378 -11 q 221 6 267 -11 q 140 51 175 24 q 81 112 106 78 q 43 178 56 146 l 181 251 q 235 168 200 200 q 321 136 269 136 q 384 154 361 136 q 407 211 407 172 q 392 247 407 233 q 351 273 376 261 q 295 294 326 285 q 232 318 264 304 q 177 346 203 331 q 132 383 151 361 q 101 436 113 406 q 90 507 90 467 q 106 584 90 547 q 151 649 122 621 q 222 694 181 678 q 314 711 263 711 m 57 1044 l 224 1044 l 318 942 l 413 1044 l 579 1044 l 342 786 l 294 786 l 57 1044 z "},"Ţ":{"ha":739,"x_min":10,"x_max":729,"o":"m 263 -72 l 475 -72 l 303 -350 l 193 -350 l 263 -72 m 10 972 l 729 972 l 729 806 l 460 806 l 460 0 l 279 0 l 279 806 l 10 806 l 10 972 z "},"ţ":{"ha":535,"x_min":22,"x_max":488,"o":"m 244 -72 l 457 -72 l 285 -350 l 175 -350 l 244 -72 m 479 4 q 437 -6 461 -1 q 375 -11 413 -11 q 198 53 265 -11 q 131 247 131 117 l 131 553 l 22 553 l 22 700 l 131 700 l 131 875 l 303 983 l 303 700 l 488 700 l 488 553 l 303 553 l 303 250 q 326 160 303 185 q 394 136 350 136 q 438 142 418 136 q 479 158 457 147 l 479 4 z "},"Ť":{"ha":739,"x_min":10,"x_max":729,"o":"m 10 972 l 729 972 l 729 806 l 460 806 l 460 0 l 279 0 l 279 806 l 10 806 l 10 972 m 108 1317 l 275 1317 l 369 1214 l 464 1317 l 631 1317 l 393 1058 l 346 1058 l 108 1317 z "},"ť":{"ha":533,"x_min":22,"x_max":601,"o":"m 413 1025 l 601 1025 l 488 769 l 378 769 l 413 1025 m 479 4 q 437 -6 461 -1 q 375 -11 413 -11 q 198 53 265 -11 q 131 247 131 117 l 131 553 l 22 553 l 22 700 l 131 700 l 131 875 l 303 983 l 303 700 l 488 700 l 488 553 l 303 553 l 303 250 q 326 160 303 185 q 394 136 350 136 q 438 142 418 136 q 479 158 457 147 l 479 4 z "},"Ŧ":{"ha":739,"x_min":10,"x_max":729,"o":"m 10 972 l 729 972 l 729 806 l 460 806 l 460 672 l 694 672 l 694 522 l 460 522 l 460 0 l 279 0 l 279 522 l 43 522 l 43 672 l 279 672 l 279 806 l 10 806 l 10 972 z "},"ŧ":{"ha":536,"x_min":22,"x_max":501,"o":"m 44 464 l 131 464 l 131 553 l 22 553 l 22 700 l 131 700 l 131 875 l 303 983 l 303 700 l 488 700 l 488 553 l 303 553 l 303 464 l 457 464 l 457 336 l 303 336 l 303 250 q 326 160 303 185 q 394 136 350 136 q 428 140 413 136 q 461 153 443 143 l 501 14 q 444 -6 472 0 q 388 -11 415 -11 q 199 53 268 -11 q 131 247 131 117 l 131 336 l 44 336 l 44 464 z "},"Ũ":{"ha":883,"x_min":79,"x_max":804,"o":"m 804 369 q 777 201 804 272 q 702 82 750 129 q 588 12 654 35 q 442 -11 521 -11 q 296 12 363 -11 q 181 82 229 35 q 106 201 133 129 q 79 369 79 272 l 79 972 l 260 972 l 260 367 q 442 156 260 156 q 624 367 624 156 l 624 972 l 804 972 l 804 369 m 175 1139 q 246 1226 199 1192 q 346 1260 293 1260 q 404 1251 381 1260 q 447 1231 428 1242 q 486 1212 467 1221 q 531 1203 506 1203 q 577 1219 554 1203 q 619 1263 600 1235 l 710 1186 q 639 1099 686 1133 q 539 1065 592 1065 q 481 1074 504 1065 q 437 1094 457 1083 q 398 1113 417 1104 q 354 1122 379 1122 q 308 1106 331 1122 q 265 1063 285 1090 l 175 1139 z "},"ũ":{"ha":785,"x_min":86,"x_max":690,"o":"m 518 0 l 518 113 q 424 23 479 57 q 301 -11 369 -11 q 147 42 207 -11 q 86 200 86 94 l 86 700 l 258 700 l 258 251 q 286 163 258 189 q 358 136 314 136 q 418 155 389 136 q 469 210 447 174 q 505 299 492 246 q 518 421 518 351 l 518 700 l 690 700 l 690 0 l 518 0 m 126 867 q 197 953 150 919 q 297 988 244 988 q 356 978 332 988 q 399 959 379 969 q 438 940 418 949 q 482 931 457 931 q 528 947 506 931 q 571 990 551 963 l 661 914 q 590 827 638 861 q 490 793 543 793 q 432 802 456 793 q 388 822 408 811 q 349 841 368 832 q 306 850 331 850 q 259 834 282 850 q 217 790 236 818 l 126 867 z "},"Ū":{"ha":883,"x_min":79,"x_max":804,"o":"m 804 369 q 777 201 804 272 q 702 82 750 129 q 588 12 654 35 q 442 -11 521 -11 q 296 12 363 -11 q 181 82 229 35 q 106 201 133 129 q 79 369 79 272 l 79 972 l 260 972 l 260 367 q 442 156 260 156 q 624 367 624 156 l 624 972 l 804 972 l 804 369 m 256 1256 l 629 1256 l 629 1103 l 256 1103 l 256 1256 z "},"ū":{"ha":785,"x_min":86,"x_max":690,"o":"m 518 0 l 518 113 q 424 23 479 57 q 301 -11 369 -11 q 147 42 207 -11 q 86 200 86 94 l 86 700 l 258 700 l 258 251 q 286 163 258 189 q 358 136 314 136 q 418 155 389 136 q 469 210 447 174 q 505 299 492 246 q 518 421 518 351 l 518 700 l 690 700 l 690 0 l 518 0 m 207 985 l 581 985 l 581 832 l 207 832 l 207 985 z "},"Ŭ":{"ha":883,"x_min":79,"x_max":804,"o":"m 804 369 q 777 201 804 272 q 702 82 750 129 q 588 12 654 35 q 442 -11 521 -11 q 296 12 363 -11 q 181 82 229 35 q 106 201 133 129 q 79 369 79 272 l 79 972 l 260 972 l 260 367 q 442 156 260 156 q 624 367 624 156 l 624 972 l 804 972 l 804 369 m 404 1244 q 415 1217 404 1228 q 442 1206 425 1206 q 469 1217 458 1206 q 479 1244 479 1228 l 606 1244 q 594 1187 606 1214 q 562 1139 583 1160 q 510 1106 540 1118 q 442 1093 479 1093 q 374 1106 404 1093 q 322 1139 343 1118 q 289 1187 300 1160 q 278 1244 278 1214 l 404 1244 z "},"ŭ":{"ha":785,"x_min":86,"x_max":690,"o":"m 518 0 l 518 113 q 424 23 479 57 q 301 -11 369 -11 q 147 42 207 -11 q 86 200 86 94 l 86 700 l 258 700 l 258 251 q 286 163 258 189 q 358 136 314 136 q 418 155 389 136 q 469 210 447 174 q 505 299 492 246 q 518 421 518 351 l 518 700 l 690 700 l 690 0 l 518 0 m 356 972 q 366 944 356 956 q 393 933 376 933 q 420 944 410 933 q 431 972 431 956 l 557 972 q 546 915 557 942 q 513 867 535 888 q 461 833 492 846 q 393 821 431 821 q 325 833 356 821 q 273 867 294 846 q 240 915 251 888 q 229 972 229 942 l 356 972 z "},"Ů":{"ha":883,"x_min":79,"x_max":804,"o":"m 804 369 q 777 201 804 272 q 702 82 750 129 q 588 12 654 35 q 442 -11 521 -11 q 296 12 363 -11 q 181 82 229 35 q 106 201 133 129 q 79 369 79 272 l 79 972 l 260 972 l 260 367 q 442 156 260 156 q 624 367 624 156 l 624 972 l 804 972 l 804 369 m 299 1182 q 339 1283 299 1243 q 442 1324 379 1324 q 544 1283 504 1324 q 585 1182 585 1243 q 544 1081 585 1121 q 442 1040 504 1040 q 339 1081 379 1040 q 299 1182 299 1121 m 400 1182 q 411 1150 400 1163 q 442 1138 422 1138 q 472 1150 461 1138 q 483 1182 483 1163 q 472 1214 483 1201 q 442 1226 461 1226 q 411 1214 422 1226 q 400 1182 400 1201 z "},"ů":{"ha":785,"x_min":86,"x_max":690,"o":"m 518 0 l 518 113 q 424 23 479 57 q 301 -11 369 -11 q 147 42 207 -11 q 86 200 86 94 l 86 700 l 258 700 l 258 251 q 286 163 258 189 q 358 136 314 136 q 418 155 389 136 q 469 210 447 174 q 505 299 492 246 q 518 421 518 351 l 518 700 l 690 700 l 690 0 l 518 0 m 250 910 q 290 1011 250 971 q 393 1051 331 1051 q 496 1011 456 1051 q 536 910 536 971 q 496 808 536 849 q 393 768 456 768 q 290 808 331 768 q 250 910 250 849 m 351 910 q 363 878 351 890 q 393 865 374 865 q 424 878 413 865 q 435 910 435 890 q 424 942 435 929 q 393 954 413 954 q 363 942 374 954 q 351 910 351 929 z "},"Ű":{"ha":883,"x_min":79,"x_max":804,"o":"m 804 369 q 777 201 804 272 q 702 82 750 129 q 588 12 654 35 q 442 -11 521 -11 q 296 12 363 -11 q 181 82 229 35 q 106 201 133 129 q 79 369 79 272 l 79 972 l 260 972 l 260 367 q 442 156 260 156 q 624 367 624 156 l 624 972 l 804 972 l 804 369 m 269 1256 l 503 1256 l 313 1050 l 181 1050 l 269 1256 m 551 1256 l 785 1256 l 594 1050 l 463 1050 l 551 1256 z "},"ű":{"ha":792,"x_min":86,"x_max":736,"o":"m 518 0 l 518 113 q 424 23 479 57 q 301 -11 369 -11 q 147 42 207 -11 q 86 200 86 94 l 86 700 l 258 700 l 258 251 q 286 163 258 189 q 358 136 314 136 q 418 155 389 136 q 469 210 447 174 q 505 299 492 246 q 518 421 518 351 l 518 700 l 690 700 l 690 0 l 518 0 m 221 983 l 454 983 l 264 778 l 132 778 l 221 983 m 503 983 l 736 983 l 546 778 l 414 778 l 503 983 z "},"Ų":{"ha":883,"x_min":79,"x_max":804,"o":"m 804 369 q 733 116 804 207 q 544 0 663 25 q 488 -58 510 -31 q 465 -108 465 -86 q 501 -144 465 -144 q 535 -131 521 -144 q 569 -90 549 -118 l 643 -150 q 575 -229 611 -201 q 482 -257 539 -257 q 385 -224 422 -257 q 347 -132 347 -192 q 367 -64 347 -96 q 417 -11 388 -32 q 280 17 342 -8 q 174 89 218 42 q 104 206 129 136 q 79 369 79 275 l 79 972 l 260 972 l 260 367 q 442 156 260 156 q 624 367 624 156 l 624 972 l 804 972 l 804 369 z "},"ų":{"ha":800,"x_min":86,"x_max":788,"o":"m 518 0 l 518 113 q 424 23 479 57 q 301 -11 369 -11 q 147 42 207 -11 q 86 200 86 94 l 86 700 l 258 700 l 258 251 q 286 163 258 189 q 358 136 314 136 q 418 155 389 136 q 469 210 447 174 q 505 299 492 246 q 518 421 518 351 l 518 700 l 690 700 l 690 0 q 632 -58 654 -31 q 610 -108 610 -86 q 646 -144 610 -144 q 679 -131 665 -144 q 714 -90 693 -118 l 788 -150 q 719 -229 756 -201 q 626 -257 683 -257 q 529 -224 567 -257 q 492 -132 492 -192 q 517 -56 492 -92 q 579 0 543 -21 l 518 0 z "},"Ŵ":{"ha":1272,"x_min":22,"x_max":1250,"o":"m 1250 972 l 996 0 l 813 0 l 636 572 l 460 0 l 276 0 l 22 972 l 214 972 l 376 257 l 558 869 l 714 869 l 896 257 l 1058 972 l 1250 972 m 613 1317 l 660 1317 l 897 1058 l 731 1058 l 636 1161 l 542 1058 l 375 1058 l 613 1317 z "},"ŵ":{"ha":1056,"x_min":31,"x_max":1025,"o":"m 1025 700 l 801 0 l 649 0 l 528 453 l 407 0 l 254 0 l 31 700 l 204 700 l 329 219 l 447 700 l 608 700 l 726 219 l 851 700 l 1025 700 m 504 1044 l 551 1044 l 789 786 l 622 786 l 528 889 l 433 786 l 267 786 l 504 1044 z "},"Ŷ":{"ha":742,"x_min":0,"x_max":742,"o":"m 194 972 l 371 594 l 547 972 l 742 972 l 461 414 l 461 0 l 281 0 l 281 414 l 0 972 l 194 972 m 347 1317 l 394 1317 l 632 1058 l 465 1058 l 371 1161 l 276 1058 l 110 1058 l 347 1317 z "},"ŷ":{"ha":668,"x_min":4,"x_max":665,"o":"m 178 700 l 340 261 l 493 700 l 665 700 l 304 -283 l 138 -283 l 258 44 l 4 700 l 178 700 m 317 1044 l 364 1044 l 601 786 l 435 786 l 340 889 l 246 786 l 79 786 l 317 1044 z "},"Ÿ":{"ha":742,"x_min":0,"x_max":742,"o":"m 194 972 l 371 594 l 547 972 l 742 972 l 461 414 l 461 0 l 281 0 l 281 414 l 0 972 l 194 972 m 129 1176 q 156 1247 129 1219 q 228 1275 183 1275 q 299 1247 272 1275 q 326 1176 326 1219 q 299 1106 326 1133 q 228 1078 272 1078 q 156 1106 183 1078 q 129 1176 129 1133 m 417 1176 q 444 1247 417 1219 q 515 1275 471 1275 q 587 1247 560 1275 q 614 1176 614 1219 q 587 1106 614 1133 q 515 1078 560 1078 q 444 1106 471 1078 q 417 1176 417 1133 z "},"Ź":{"ha":764,"x_min":36,"x_max":724,"o":"m 60 972 l 704 972 l 704 889 l 288 167 l 724 167 l 724 0 l 36 0 l 36 83 l 457 806 l 60 806 l 60 972 m 349 1256 l 582 1256 l 392 1050 l 260 1050 l 349 1256 z "},"ź":{"ha":631,"x_min":49,"x_max":585,"o":"m 71 700 l 565 700 l 565 633 l 265 147 l 585 147 l 585 0 l 49 0 l 49 67 l 351 553 l 71 553 l 71 700 m 283 983 l 517 983 l 326 778 l 194 778 l 283 983 z "},"Ż":{"ha":764,"x_min":36,"x_max":724,"o":"m 60 972 l 704 972 l 704 889 l 288 167 l 724 167 l 724 0 l 36 0 l 36 83 l 457 806 l 60 806 l 60 972 m 258 1174 q 290 1253 258 1221 q 369 1285 321 1285 q 449 1253 418 1285 q 481 1174 481 1221 q 449 1094 481 1126 q 369 1063 418 1063 q 290 1094 321 1063 q 258 1174 258 1126 z "},"ż":{"ha":631,"x_min":49,"x_max":585,"o":"m 71 700 l 565 700 l 565 633 l 265 147 l 585 147 l 585 0 l 49 0 l 49 67 l 351 553 l 71 553 l 71 700 m 206 901 q 237 981 206 949 q 317 1013 268 1013 q 397 981 365 1013 q 428 901 428 949 q 397 822 428 854 q 317 790 365 790 q 237 822 268 790 q 206 901 206 854 z "},"Ž":{"ha":764,"x_min":36,"x_max":724,"o":"m 60 972 l 704 972 l 704 889 l 288 167 l 724 167 l 724 0 l 36 0 l 36 83 l 457 806 l 60 806 l 60 972 m 119 1317 l 286 1317 l 381 1214 l 475 1317 l 642 1317 l 404 1058 l 357 1058 l 119 1317 z "},"ž":{"ha":631,"x_min":49,"x_max":585,"o":"m 71 700 l 565 700 l 565 633 l 265 147 l 585 147 l 585 0 l 49 0 l 49 67 l 351 553 l 71 553 l 71 700 m 61 1044 l 228 1044 l 322 942 l 417 1044 l 583 1044 l 346 786 l 299 786 l 61 1044 z "},"ſ":{"ha":506,"x_min":39,"x_max":500,"o":"m 39 700 l 128 700 l 128 736 q 194 924 128 864 q 369 983 261 983 q 443 976 410 983 q 500 956 476 968 l 463 817 q 421 831 440 826 q 379 836 401 836 q 322 816 343 836 q 300 749 300 796 l 300 0 l 128 0 l 128 553 l 39 553 l 39 700 z "},"Ǝ":{"ha":772,"x_min":81,"x_max":697,"o":"m 94 0 l 94 167 l 515 167 l 515 371 l 178 371 l 178 538 l 515 538 l 515 806 l 81 806 l 81 972 l 696 972 l 696 0 l 94 0 z "},"Ə":{"ha":757,"x_min":57,"x_max":721,"o":"m 57 406 l 539 406 q 526 463 538 435 q 494 514 515 492 q 444 550 474 536 q 374 564 414 564 q 276 538 314 564 q 208 464 239 513 l 69 515 q 118 594 90 558 q 183 656 146 631 q 270 697 221 682 q 383 711 319 711 q 538 678 474 711 q 642 592 601 644 q 701 476 682 540 q 719 350 719 413 q 701 224 719 288 q 642 108 682 160 q 538 22 601 56 q 383 -11 474 -11 q 234 22 296 -11 q 133 105 172 54 q 75 217 93 156 q 57 335 57 278 l 57 406 m 383 136 q 442 148 417 136 q 487 179 468 160 q 518 221 506 197 q 535 269 531 244 l 233 269 q 250 219 239 243 q 279 177 261 196 q 323 147 297 158 q 383 136 349 136 z "},"ƒ":{"ha":651,"x_min":-119,"x_max":690,"o":"m 158 700 l 269 700 l 276 736 q 379 924 301 865 q 565 983 457 983 q 638 976 606 983 q 690 956 671 968 l 626 817 q 588 831 607 826 q 547 836 569 836 q 485 816 511 836 q 450 749 460 796 l 442 700 l 592 700 l 563 553 l 413 553 l 294 -47 q 192 -235 269 -176 q 6 -294 114 -294 q -67 -287 -35 -294 q -119 -267 -100 -279 l -56 -128 q -17 -142 -36 -137 q 24 -147 1 -147 q 85 -127 60 -147 q 121 -60 111 -107 l 239 553 l 129 553 l 158 700 z "},"Ƶ":{"ha":764,"x_min":36,"x_max":724,"o":"m 60 972 l 704 972 l 704 889 l 515 561 l 674 561 l 674 411 l 428 411 l 288 167 l 724 167 l 724 0 l 36 0 l 36 83 l 226 411 l 96 411 l 96 561 l 314 561 l 457 806 l 60 806 l 60 972 z "},"ƶ":{"ha":631,"x_min":49,"x_max":585,"o":"m 71 700 l 565 700 l 565 633 l 440 431 l 535 431 l 535 303 l 363 303 l 265 147 l 585 147 l 585 0 l 49 0 l 49 67 l 196 303 l 86 303 l 86 431 l 274 431 l 351 553 l 71 553 l 71 700 z "},"Ǻ":{"ha":853,"x_min":7,"x_max":846,"o":"m 581 229 l 272 229 l 201 0 l 7 0 l 336 972 l 517 972 l 846 0 l 651 0 l 581 229 m 324 396 l 529 396 l 426 733 l 324 396 m 283 1146 q 324 1247 283 1207 q 426 1288 364 1288 q 529 1247 489 1288 q 569 1146 569 1207 q 529 1044 569 1085 q 426 1004 489 1004 q 324 1044 364 1004 q 283 1146 283 1085 m 385 1146 q 396 1114 385 1126 q 426 1101 407 1101 q 457 1114 446 1101 q 468 1146 468 1126 q 457 1178 468 1165 q 426 1190 446 1190 q 396 1178 407 1190 q 385 1146 385 1165 m 404 1533 l 638 1533 l 447 1328 l 315 1328 l 404 1533 z "},"ǻ":{"ha":835,"x_min":51,"x_max":740,"o":"m 51 350 q 74 497 51 431 q 139 611 96 564 q 244 685 182 658 q 385 711 306 711 q 494 687 443 711 q 568 633 544 663 l 568 700 l 740 700 l 740 0 l 568 0 l 568 72 q 497 13 543 38 q 385 -11 450 -11 q 244 15 306 -11 q 139 89 182 42 q 74 203 96 136 q 51 350 51 269 m 232 350 q 247 258 232 297 q 286 191 261 218 q 343 150 311 164 q 408 136 375 136 q 474 150 442 136 q 530 191 506 164 q 569 258 554 218 q 583 350 583 297 q 569 442 583 401 q 530 509 554 482 q 474 550 506 536 q 408 564 442 564 q 343 550 375 564 q 286 509 311 536 q 247 442 261 482 q 232 350 232 401 m 231 910 q 271 1011 231 971 q 374 1051 311 1051 q 476 1011 436 1051 q 517 910 517 971 q 476 808 517 849 q 374 768 436 768 q 271 808 311 768 q 231 910 231 849 m 332 910 q 343 878 332 890 q 374 865 354 865 q 404 878 393 865 q 415 910 415 890 q 404 942 415 929 q 374 954 393 954 q 343 942 354 954 q 332 910 332 929 m 353 1297 l 586 1297 l 396 1092 l 264 1092 l 353 1297 z "},"Ǽ":{"ha":1183,"x_min":10,"x_max":1133,"o":"m 1119 972 l 1119 806 l 699 806 l 699 601 l 1036 601 l 1036 435 l 699 435 l 699 167 l 1133 167 l 1133 0 l 518 0 l 518 229 l 296 229 l 204 0 l 10 0 l 435 972 l 1119 972 m 364 396 l 518 396 l 518 733 l 500 733 l 364 396 m 728 1256 l 961 1256 l 771 1050 l 639 1050 l 728 1256 z "},"ǽ":{"ha":1167,"x_min":46,"x_max":1124,"o":"m 1124 294 l 642 294 q 654 237 643 265 q 686 186 665 208 q 737 150 707 164 q 807 136 767 136 q 906 163 867 136 q 976 244 944 190 l 1115 193 q 999 44 1075 100 q 797 -11 924 -11 q 627 31 694 -11 q 519 135 560 72 q 399 20 464 51 q 258 -11 333 -11 q 175 3 214 -11 q 108 43 136 17 q 63 109 79 69 q 46 201 46 149 q 67 295 46 253 q 128 368 89 338 q 223 415 168 399 q 344 431 278 431 l 461 431 l 461 461 q 451 510 461 490 q 424 542 440 529 q 385 559 407 554 q 339 564 363 564 q 269 548 303 564 q 218 483 235 532 l 72 517 q 160 658 89 604 q 339 711 231 711 q 469 692 410 711 q 569 626 529 672 q 666 688 610 665 q 797 711 722 711 q 947 678 885 711 q 1048 595 1008 646 q 1106 483 1088 544 q 1124 365 1124 422 l 1124 294 m 226 204 q 244 158 226 179 q 299 136 263 136 q 357 146 328 136 q 409 174 386 156 q 447 220 432 193 q 461 281 461 247 l 461 294 l 346 294 q 258 272 290 294 q 226 204 226 250 m 797 564 q 738 552 764 564 q 693 522 713 540 q 661 479 674 503 q 644 431 649 456 l 947 431 q 931 481 942 457 q 901 523 919 504 q 858 553 883 542 q 797 564 832 564 m 571 983 l 804 983 l 614 778 l 482 778 l 571 983 z "},"Ș":{"ha":732,"x_min":42,"x_max":688,"o":"m 275 -72 l 488 -72 l 315 -350 l 206 -350 l 275 -72 m 500 714 q 440 792 472 768 q 365 817 408 817 q 299 792 325 817 q 272 728 272 767 q 303 657 272 686 q 380 603 333 628 q 480 554 426 579 q 580 495 533 529 q 657 413 626 461 q 688 292 688 364 q 665 165 688 221 q 602 69 643 108 q 503 10 561 31 q 376 -11 446 -11 q 253 10 310 -11 q 154 69 197 32 q 82 156 111 107 q 42 261 53 206 l 188 353 q 215 278 199 314 q 256 215 232 242 q 310 172 279 188 q 381 156 340 156 q 472 185 438 156 q 507 282 507 215 q 477 349 507 322 q 401 398 447 375 q 303 445 356 421 q 206 505 251 469 q 130 591 160 540 q 100 719 100 642 q 120 823 100 775 q 176 906 140 871 q 260 963 211 942 q 365 983 308 983 q 534 938 463 983 q 646 807 606 892 l 500 714 z "},"ș":{"ha":618,"x_min":43,"x_max":569,"o":"m 221 -72 l 433 -72 l 261 -350 l 151 -350 l 221 -72 m 314 711 q 443 680 385 711 q 533 597 501 649 l 431 503 q 375 549 407 535 q 314 564 343 564 q 269 549 289 564 q 250 506 250 535 q 267 465 250 482 q 317 438 285 449 q 397 410 353 425 q 479 373 440 396 q 544 314 518 350 q 569 222 569 278 q 552 133 569 175 q 502 58 535 90 q 424 8 469 26 q 321 -11 378 -11 q 221 6 267 -11 q 140 51 175 24 q 81 112 106 78 q 43 178 56 146 l 181 251 q 235 168 200 200 q 321 136 269 136 q 384 154 361 136 q 407 211 407 172 q 392 247 407 233 q 351 273 376 261 q 295 294 326 285 q 232 318 264 304 q 177 346 203 331 q 132 383 151 361 q 101 436 113 406 q 90 507 90 467 q 106 584 90 547 q 151 649 122 621 q 222 694 181 678 q 314 711 263 711 z "},"Ț":{"ha":739,"x_min":10,"x_max":729,"o":"m 263 -72 l 475 -72 l 303 -350 l 193 -350 l 263 -72 m 10 972 l 729 972 l 729 806 l 460 806 l 460 0 l 279 0 l 279 806 l 10 806 l 10 972 z "},"ț":{"ha":535,"x_min":22,"x_max":488,"o":"m 244 -72 l 457 -72 l 285 -350 l 175 -350 l 244 -72 m 479 4 q 437 -6 461 -1 q 375 -11 413 -11 q 198 53 265 -11 q 131 247 131 117 l 131 553 l 22 553 l 22 700 l 131 700 l 131 875 l 303 983 l 303 700 l 488 700 l 488 553 l 303 553 l 303 250 q 326 160 303 185 q 394 136 350 136 q 438 142 418 136 q 479 158 457 147 l 479 4 z "},"ˆ":{"ha":586,"x_min":32,"x_max":554,"o":"m 269 1044 l 317 1044 l 554 786 l 388 786 l 293 889 l 199 786 l 32 786 l 269 1044 z "},"ˇ":{"ha":586,"x_min":32,"x_max":554,"o":"m 32 1044 l 199 1044 l 293 942 l 388 1044 l 554 1044 l 317 786 l 269 786 l 32 1044 z "},"˘":{"ha":356,"x_min":10,"x_max":338,"o":"m 136 972 q 147 944 136 956 q 174 933 157 933 q 201 944 190 933 q 211 972 211 956 l 338 972 q 326 915 338 942 q 294 867 315 888 q 242 833 272 846 q 174 821 211 821 q 106 833 136 821 q 53 867 75 846 q 21 915 32 888 q 10 972 10 942 l 136 972 z "},"˙":{"ha":375,"x_min":76,"x_max":299,"o":"m 76 901 q 108 981 76 949 q 188 1013 139 1013 q 267 981 236 1013 q 299 901 299 949 q 267 822 299 854 q 188 790 236 790 q 108 822 139 790 q 76 901 76 854 z "},"˚":{"ha":319,"x_min":17,"x_max":303,"o":"m 17 910 q 57 1011 17 971 q 160 1051 97 1051 q 263 1011 222 1051 q 303 910 303 971 q 263 808 303 849 q 160 768 222 768 q 57 808 97 768 q 17 910 17 849 m 118 910 q 129 878 118 890 q 160 865 140 865 q 190 878 179 865 q 201 910 201 890 q 190 942 201 929 q 160 954 179 954 q 129 942 140 954 q 118 910 118 929 z "},"˛":{"ha":315,"x_min":10,"x_max":306,"o":"m 208 0 q 150 -58 172 -31 q 128 -108 128 -86 q 164 -144 128 -144 q 197 -131 183 -144 q 232 -90 211 -118 l 306 -150 q 238 -229 274 -201 q 144 -257 201 -257 q 47 -224 85 -257 q 10 -132 10 -192 q 35 -56 10 -92 q 97 0 61 -21 l 208 0 z "},"˜":{"ha":571,"x_min":18,"x_max":553,"o":"m 18 867 q 89 953 42 919 q 189 988 136 988 q 247 978 224 988 q 290 959 271 969 q 329 940 310 949 q 374 931 349 931 q 420 947 397 931 q 463 990 443 963 l 553 914 q 482 827 529 861 q 382 793 435 793 q 324 802 347 793 q 280 822 300 811 q 241 841 260 832 q 197 850 222 850 q 151 834 174 850 q 108 790 128 818 l 18 867 z "},"˝":{"ha":639,"x_min":22,"x_max":626,"o":"m 111 983 l 344 983 l 154 778 l 22 778 l 111 983 m 393 983 l 626 983 l 436 778 l 304 778 l 393 983 z "},"π":{"ha":842,"x_min":60,"x_max":781,"o":"m 60 700 l 781 700 l 781 550 l 665 550 l 665 0 l 493 0 l 493 550 l 347 550 l 347 0 l 175 0 l 175 550 l 60 550 l 60 700 z "},"Ѐ":{"ha":772,"x_min":107,"x_max":722,"o":"m 708 972 l 708 806 l 288 806 l 288 601 l 625 601 l 625 435 l 288 435 l 288 167 l 722 167 l 722 0 l 107 0 l 107 972 l 708 972 m 524 1050 l 392 1050 l 201 1256 l 435 1256 l 524 1050 z "},"Ё":{"ha":772,"x_min":107,"x_max":722,"o":"m 708 972 l 708 806 l 288 806 l 288 601 l 625 601 l 625 435 l 288 435 l 288 167 l 722 167 l 722 0 l 107 0 l 107 972 l 708 972 m 175 1176 q 202 1247 175 1219 q 274 1275 229 1275 q 345 1247 318 1275 q 372 1176 372 1219 q 345 1106 372 1133 q 274 1078 318 1078 q 202 1106 229 1078 q 175 1176 175 1133 m 463 1176 q 490 1247 463 1219 q 561 1275 517 1275 q 633 1247 606 1275 q 660 1176 660 1219 q 633 1106 660 1133 q 561 1078 606 1078 q 490 1106 517 1078 q 463 1176 463 1133 z "},"Ђ":{"ha":985,"x_min":10,"x_max":900,"o":"m 10 972 l 729 972 l 729 806 l 460 806 l 460 588 q 549 676 493 640 q 682 711 606 711 q 841 660 782 711 q 900 500 900 608 l 900 364 q 882 217 900 281 q 827 110 864 154 q 735 35 790 65 q 607 -11 681 6 l 565 140 q 633 165 603 150 q 685 202 664 179 q 717 260 706 225 q 728 343 728 294 l 728 439 q 624 564 728 564 q 565 549 594 564 q 513 501 536 533 q 474 417 489 468 q 460 296 460 367 l 460 0 l 279 0 l 279 806 l 10 806 l 10 972 z "},"Ѓ":{"ha":718,"x_min":107,"x_max":710,"o":"m 288 0 l 107 0 l 107 972 l 710 972 l 710 806 l 288 806 l 288 0 m 382 1256 l 615 1256 l 425 1050 l 293 1050 l 382 1256 z "},"Є":{"ha":936,"x_min":57,"x_max":899,"o":"m 685 403 l 246 403 q 331 216 265 276 q 494 156 397 156 q 580 169 542 156 q 648 206 618 183 q 699 260 678 229 q 736 328 721 292 l 899 283 q 838 164 876 218 q 748 71 800 110 q 631 10 696 32 q 494 -11 567 -11 q 320 21 400 -11 q 182 115 240 53 q 90 271 124 178 q 57 486 57 364 q 90 701 57 608 q 182 857 124 794 q 320 951 240 919 q 494 983 400 983 q 631 962 567 983 q 748 901 696 940 q 838 808 800 863 q 899 689 876 754 l 736 644 q 699 711 721 679 q 648 766 678 743 q 580 803 618 789 q 494 817 542 817 q 331 756 397 817 q 246 569 265 696 l 685 569 l 685 403 z "},"Ѕ":{"ha":732,"x_min":42,"x_max":688,"o":"m 500 714 q 440 792 472 768 q 365 817 408 817 q 299 792 325 817 q 272 728 272 767 q 303 657 272 686 q 380 603 333 628 q 480 554 426 579 q 580 495 533 529 q 657 413 626 461 q 688 292 688 364 q 665 165 688 221 q 602 69 643 108 q 503 10 561 31 q 376 -11 446 -11 q 253 10 310 -11 q 154 69 197 32 q 82 156 111 107 q 42 261 53 206 l 188 353 q 215 278 199 314 q 256 215 232 242 q 310 172 279 188 q 381 156 340 156 q 472 185 438 156 q 507 282 507 215 q 477 349 507 322 q 401 398 447 375 q 303 445 356 421 q 206 505 251 469 q 130 591 160 540 q 100 719 100 642 q 120 823 100 775 q 176 906 140 871 q 260 963 211 942 q 365 983 308 983 q 534 938 463 983 q 646 807 606 892 l 500 714 z "},"І":{"ha":394,"x_min":107,"x_max":288,"o":"m 288 0 l 107 0 l 107 972 l 288 972 l 288 0 z "},"Ї":{"ha":424,"x_min":-28,"x_max":457,"o":"m 303 0 l 122 0 l 122 972 l 303 972 l 303 0 m -28 1176 q -1 1247 -28 1219 q 71 1275 26 1275 q 142 1247 115 1275 q 169 1176 169 1219 q 142 1106 169 1133 q 71 1078 115 1078 q -1 1106 26 1078 q -28 1176 -28 1133 m 260 1176 q 287 1247 260 1219 q 358 1275 314 1275 q 430 1247 403 1275 q 457 1176 457 1219 q 430 1106 457 1133 q 358 1078 403 1078 q 287 1106 314 1078 q 260 1176 260 1133 z "},"Ј":{"ha":700,"x_min":3,"x_max":613,"o":"m 181 278 q 224 184 193 213 q 303 156 254 156 q 356 163 332 156 q 396 190 379 171 q 422 242 413 210 q 432 322 432 274 l 432 972 l 613 972 l 613 342 q 591 176 613 243 q 529 67 569 108 q 432 7 489 25 q 303 -11 375 -11 q 97 56 175 -11 q 3 240 18 122 l 181 278 z "},"Љ":{"ha":1264,"x_min":8,"x_max":1214,"o":"m 190 972 l 711 972 l 711 594 l 893 594 q 1128 519 1043 594 q 1214 297 1214 443 q 1128 76 1214 151 q 893 0 1043 0 l 531 0 l 531 800 l 353 800 l 314 264 q 226 65 304 131 q 8 0 149 0 l 8 172 q 60 174 38 172 q 100 187 83 176 q 126 219 117 197 q 139 278 136 240 l 190 972 m 711 428 l 711 167 l 876 167 q 997 201 961 167 q 1033 297 1033 235 q 997 394 1033 360 q 876 428 961 428 l 711 428 z "},"Њ":{"ha":1296,"x_min":107,"x_max":1246,"o":"m 563 972 l 743 972 l 743 594 l 925 594 q 1160 519 1075 594 q 1246 297 1246 443 q 1160 76 1246 151 q 925 0 1075 0 l 563 0 l 563 428 l 288 428 l 288 0 l 107 0 l 107 972 l 288 972 l 288 594 l 563 594 l 563 972 m 743 428 l 743 167 l 908 167 q 1029 201 993 167 q 1065 297 1065 235 q 1029 394 1065 360 q 908 428 993 428 l 743 428 z "},"Ћ":{"ha":986,"x_min":10,"x_max":900,"o":"m 10 972 l 729 972 l 729 806 l 460 806 l 460 588 q 549 676 493 640 q 682 711 606 711 q 841 660 782 711 q 900 500 900 608 l 900 0 l 728 0 l 728 439 q 624 564 728 564 q 565 549 594 564 q 512 501 535 533 q 474 417 489 468 q 460 296 460 367 l 460 0 l 279 0 l 279 806 l 10 806 l 10 972 z "},"Ќ":{"ha":875,"x_min":107,"x_max":869,"o":"m 288 972 l 288 611 l 619 972 l 842 972 l 447 538 l 869 0 l 640 0 l 288 464 l 288 0 l 107 0 l 107 972 l 288 972 m 432 1256 l 665 1256 l 475 1050 l 343 1050 l 432 1256 z "},"Ѝ":{"ha":942,"x_min":138,"x_max":867,"o":"m 561 1050 l 429 1050 l 239 1256 l 472 1256 l 561 1050 m 138 972 l 138 0 l 328 0 l 685 642 l 685 0 l 865 0 l 865 972 l 675 972 l 318 331 l 318 972 l 138 972 z "},"Ў":{"ha":722,"x_min":-3,"x_max":725,"o":"m 171 972 l 364 504 l 553 972 l 725 972 l 322 -11 l 156 -11 l 279 294 l -3 972 l 171 972 m 329 1244 q 340 1217 329 1228 q 367 1206 350 1206 q 394 1217 383 1206 q 404 1244 404 1228 l 531 1244 q 519 1187 531 1214 q 487 1139 508 1160 q 435 1106 465 1118 q 367 1093 404 1093 q 299 1106 329 1093 q 247 1139 268 1118 q 214 1187 225 1160 q 203 1244 203 1214 l 329 1244 z "},"Џ":{"ha":925,"x_min":107,"x_max":818,"o":"m 107 972 l 288 972 l 288 172 l 638 172 l 638 972 l 818 972 l 818 0 l 553 0 l 553 -172 l 372 -172 l 372 0 l 107 0 l 107 972 z "},"А":{"ha":853,"x_min":7,"x_max":846,"o":"m 581 229 l 272 229 l 201 0 l 7 0 l 336 972 l 517 972 l 846 0 l 651 0 l 581 229 m 324 396 l 529 396 l 426 733 l 324 396 z "},"Б":{"ha":840,"x_min":107,"x_max":790,"o":"m 469 594 q 705 519 619 594 q 790 297 790 443 q 705 76 790 151 q 469 0 619 0 l 107 0 l 107 972 l 699 972 l 699 806 l 288 806 l 288 594 l 469 594 m 288 428 l 288 167 l 453 167 q 574 201 538 167 q 610 297 610 235 q 574 394 610 360 q 453 428 538 428 l 288 428 z "},"В":{"ha":840,"x_min":107,"x_max":790,"o":"m 463 972 q 576 956 525 972 q 663 908 626 940 q 720 826 700 875 q 740 710 740 776 q 715 602 740 650 q 644 531 690 554 q 752 444 714 503 q 790 293 790 386 q 705 75 790 150 q 469 0 619 0 l 107 0 l 107 972 l 463 972 m 288 806 l 288 594 l 453 594 q 537 617 507 594 q 567 700 567 640 q 537 783 567 760 q 449 806 507 806 l 288 806 m 288 428 l 288 167 l 453 167 q 574 201 538 167 q 610 297 610 235 q 574 394 610 360 q 453 428 538 428 l 288 428 z "},"Г":{"ha":718,"x_min":107,"x_max":710,"o":"m 288 0 l 107 0 l 107 972 l 710 972 l 710 806 l 288 806 l 288 0 z "},"Д":{"ha":963,"x_min":60,"x_max":929,"o":"m 60 172 l 149 172 l 285 972 l 844 972 l 844 172 l 929 172 l 910 -172 l 754 -172 l 754 0 l 235 0 l 235 -172 l 79 -172 l 60 172 m 443 806 l 326 172 l 664 172 l 664 806 l 443 806 z "},"Е":{"ha":772,"x_min":107,"x_max":722,"o":"m 708 972 l 708 806 l 288 806 l 288 601 l 625 601 l 625 435 l 288 435 l 288 167 l 722 167 l 722 0 l 107 0 l 107 972 l 708 972 z "},"Ж":{"ha":1356,"x_min":6,"x_max":1350,"o":"m 768 972 l 768 611 l 1100 972 l 1322 972 l 928 538 l 1350 0 l 1121 0 l 768 464 l 768 0 l 588 0 l 588 464 l 235 0 l 6 0 l 428 538 l 33 972 l 256 972 l 588 611 l 588 972 l 768 972 z "},"З":{"ha":788,"x_min":57,"x_max":717,"o":"m 90 742 q 122 840 99 796 q 182 917 144 885 q 269 966 219 949 q 381 983 319 983 q 506 965 451 983 q 599 913 561 946 q 656 835 636 881 q 675 735 675 789 q 641 608 675 657 q 557 528 607 560 q 671 439 625 499 q 717 293 717 379 q 694 172 717 228 q 628 76 671 117 q 526 12 586 35 q 392 -11 465 -11 q 272 7 328 -11 q 172 58 215 25 q 99 140 128 92 q 57 250 69 189 l 226 310 q 281 192 238 233 q 389 150 325 150 q 495 190 451 150 q 539 294 539 229 q 523 363 539 335 q 481 408 507 390 q 421 434 454 426 q 353 442 388 442 l 306 442 l 306 592 l 344 592 q 466 624 421 592 q 511 721 511 657 q 474 800 511 769 q 381 831 436 831 q 288 797 322 831 q 243 711 254 763 l 90 742 z "},"И":{"ha":942,"x_min":107,"x_max":835,"o":"m 288 972 l 288 331 l 644 972 l 835 972 l 835 0 l 654 0 l 654 642 l 297 0 l 107 0 l 107 972 l 288 972 z "},"Й":{"ha":942,"x_min":138,"x_max":867,"o":"m 138 972 l 138 0 l 328 0 l 685 642 l 685 0 l 865 0 l 865 972 l 675 972 l 318 331 l 318 972 l 138 972 m 428 1244 q 438 1217 428 1228 q 465 1206 449 1206 q 492 1217 482 1206 q 503 1244 503 1228 l 629 1244 q 618 1187 629 1214 q 585 1139 607 1160 q 533 1106 564 1118 q 465 1093 503 1093 q 397 1106 428 1093 q 345 1139 367 1118 q 313 1187 324 1160 q 301 1244 301 1214 l 428 1244 z "},"К":{"ha":875,"x_min":107,"x_max":869,"o":"m 288 972 l 288 611 l 619 972 l 842 972 l 447 538 l 869 0 l 640 0 l 288 464 l 288 0 l 107 0 l 107 972 l 288 972 z "},"Л":{"ha":885,"x_min":8,"x_max":778,"o":"m 192 972 l 778 972 l 778 0 l 597 0 l 597 800 l 354 800 l 315 264 q 226 62 304 124 q 8 0 149 0 l 8 172 q 61 174 38 172 q 101 187 85 176 q 128 219 118 197 q 140 278 138 240 l 192 972 z "},"М":{"ha":1078,"x_min":107,"x_max":971,"o":"m 107 972 l 310 972 l 539 365 l 768 972 l 971 972 l 971 0 l 790 0 l 790 600 l 604 89 l 474 89 l 288 600 l 288 0 l 107 0 l 107 972 z "},"Н":{"ha":964,"x_min":107,"x_max":857,"o":"m 107 972 l 288 972 l 288 603 l 676 603 l 676 972 l 857 972 l 857 0 l 676 0 l 676 436 l 288 436 l 288 0 l 107 0 l 107 972 z "},"О":{"ha":1031,"x_min":57,"x_max":974,"o":"m 515 983 q 690 953 607 983 q 837 861 774 922 q 937 706 900 800 q 974 486 974 613 q 937 266 974 360 q 837 111 900 172 q 690 19 774 50 q 515 -11 607 -11 q 340 19 424 -11 q 194 111 257 50 q 94 266 131 172 q 57 486 57 360 q 94 706 57 613 q 194 861 131 800 q 340 953 257 922 q 515 983 424 983 m 515 817 q 411 797 461 817 q 323 738 361 778 q 263 635 285 697 q 240 486 240 572 q 263 338 240 400 q 323 235 285 275 q 411 175 361 194 q 515 156 461 156 q 619 175 569 156 q 708 235 669 194 q 768 338 746 275 q 790 486 790 400 q 768 635 790 572 q 708 738 746 697 q 619 797 669 778 q 515 817 569 817 z "},"П":{"ha":925,"x_min":107,"x_max":818,"o":"m 107 972 l 818 972 l 818 0 l 638 0 l 638 800 l 288 800 l 288 0 l 107 0 l 107 972 z "},"Р":{"ha":801,"x_min":107,"x_max":778,"o":"m 288 381 l 288 0 l 107 0 l 107 972 l 474 972 q 608 950 550 972 q 703 888 665 928 q 759 794 740 849 q 778 676 778 740 q 759 558 778 613 q 703 465 740 504 q 608 403 665 425 q 474 381 550 381 l 288 381 m 467 547 q 560 578 526 547 q 594 676 594 610 q 560 774 594 743 q 467 806 526 806 l 288 806 l 288 547 l 467 547 z "},"С":{"ha":957,"x_min":57,"x_max":919,"o":"m 757 647 q 674 769 729 721 q 517 817 618 817 q 410 797 460 817 q 322 735 360 776 q 263 633 285 694 q 240 486 240 571 q 263 340 240 401 q 322 237 285 278 q 410 176 360 196 q 517 156 460 156 q 674 203 618 156 q 757 325 729 251 l 919 283 q 781 66 885 143 q 517 -11 676 -11 q 342 21 425 -11 q 196 115 260 53 q 94 271 132 178 q 57 486 57 364 q 94 701 57 608 q 196 857 132 794 q 342 951 260 919 q 517 983 425 983 q 781 906 676 983 q 919 689 885 829 l 757 647 z "},"Т":{"ha":739,"x_min":10,"x_max":729,"o":"m 10 972 l 729 972 l 729 806 l 460 806 l 460 0 l 279 0 l 279 806 l 10 806 l 10 972 z "},"У":{"ha":722,"x_min":-3,"x_max":725,"o":"m 171 972 l 364 504 l 553 972 l 725 972 l 322 -11 l 156 -11 l 279 294 l -3 972 l 171 972 z "},"Ф":{"ha":1067,"x_min":51,"x_max":1015,"o":"m 619 0 l 447 0 l 447 100 l 435 100 q 278 131 349 100 q 158 215 208 163 q 79 338 107 268 q 51 486 51 408 q 79 634 51 564 q 158 757 107 704 q 278 841 208 810 q 435 872 349 872 l 447 872 l 447 972 l 619 972 l 619 872 l 632 872 q 788 841 717 872 q 909 757 858 810 q 988 634 960 704 q 1015 486 1015 564 q 988 338 1015 408 q 909 215 960 268 q 788 131 858 163 q 632 100 717 100 l 619 100 l 619 0 m 619 725 l 619 247 l 632 247 q 717 267 679 247 q 781 319 756 286 q 821 394 807 351 q 835 486 835 438 q 821 577 835 533 q 781 653 807 621 q 717 706 756 686 q 632 725 679 725 l 619 725 m 447 725 l 435 725 q 349 706 386 725 q 285 653 311 686 q 246 577 260 621 q 232 486 232 533 q 246 394 232 438 q 285 319 260 351 q 349 267 311 286 q 435 247 386 247 l 447 247 l 447 725 z "},"Х":{"ha":819,"x_min":8,"x_max":811,"o":"m 765 972 l 508 525 l 811 0 l 611 0 l 410 351 l 208 0 l 8 0 l 311 525 l 54 972 l 251 972 l 410 697 l 568 972 l 765 972 z "},"Ц":{"ha":953,"x_min":107,"x_max":919,"o":"m 107 972 l 288 972 l 288 172 l 638 172 l 638 972 l 818 972 l 818 172 l 919 172 l 894 -172 l 739 -172 l 739 0 l 107 0 l 107 972 z "},"Ч":{"ha":900,"x_min":88,"x_max":793,"o":"m 613 429 q 505 383 567 397 q 385 369 443 369 q 265 390 319 369 q 170 456 210 411 q 109 571 131 501 q 88 736 88 640 l 88 972 l 268 972 l 268 736 q 308 590 268 639 q 417 542 347 542 q 484 548 456 542 q 535 565 513 554 q 575 592 557 576 q 613 626 593 607 l 613 972 l 793 972 l 793 0 l 613 0 l 613 429 z "},"Ш":{"ha":1342,"x_min":107,"x_max":1235,"o":"m 581 972 l 761 972 l 761 172 l 1054 172 l 1054 972 l 1235 972 l 1235 0 l 107 0 l 107 972 l 288 972 l 288 172 l 581 172 l 581 972 z "},"Щ":{"ha":1369,"x_min":107,"x_max":1336,"o":"m 581 972 l 761 972 l 761 172 l 1054 172 l 1054 972 l 1235 972 l 1235 172 l 1336 172 l 1311 -172 l 1156 -172 l 1156 0 l 107 0 l 107 972 l 288 972 l 288 172 l 581 172 l 581 972 z "},"Ъ":{"ha":931,"x_min":13,"x_max":872,"o":"m 13 972 l 369 972 l 369 594 l 551 594 q 787 519 701 594 q 872 297 872 443 q 787 76 872 151 q 551 0 701 0 l 189 0 l 189 806 l 13 806 l 13 972 m 369 428 l 369 167 l 535 167 q 656 201 619 167 q 692 297 692 235 q 656 394 692 360 q 535 428 619 428 l 369 428 z "},"Ы":{"ha":1200,"x_min":107,"x_max":1093,"o":"m 107 972 l 288 972 l 288 594 l 469 594 q 705 519 619 594 q 790 297 790 443 q 705 76 790 151 q 469 0 619 0 l 107 0 l 107 972 m 288 428 l 288 167 l 453 167 q 574 201 538 167 q 610 297 610 235 q 574 394 610 360 q 453 428 538 428 l 288 428 m 1093 983 l 1093 0 l 921 0 l 921 983 l 1093 983 z "},"Ь":{"ha":849,"x_min":107,"x_max":790,"o":"m 107 972 l 288 972 l 288 594 l 469 594 q 705 519 619 594 q 790 297 790 443 q 705 76 790 151 q 469 0 619 0 l 107 0 l 107 972 m 288 428 l 288 167 l 453 167 q 574 201 538 167 q 610 297 610 235 q 574 394 610 360 q 453 428 538 428 l 288 428 z "},"Э":{"ha":936,"x_min":38,"x_max":879,"o":"m 251 569 l 690 569 q 605 756 671 696 q 442 817 539 817 q 356 803 393 817 q 288 766 318 789 q 237 711 258 743 q 200 644 215 679 l 38 689 q 98 808 60 754 q 188 901 136 863 q 304 962 240 940 q 442 983 368 983 q 616 951 536 983 q 754 857 696 919 q 846 701 813 794 q 879 486 879 608 q 846 271 879 364 q 754 115 813 178 q 616 21 696 53 q 442 -11 536 -11 q 304 10 368 -11 q 188 71 240 32 q 98 164 136 110 q 38 283 60 218 l 200 328 q 237 260 215 292 q 288 206 258 229 q 356 169 318 183 q 442 156 394 156 q 605 216 539 156 q 690 403 671 276 l 251 403 l 251 569 z "},"Ю":{"ha":1406,"x_min":107,"x_max":1349,"o":"m 890 983 q 1065 953 982 983 q 1212 861 1149 922 q 1312 706 1275 800 q 1349 486 1349 613 q 1312 266 1349 360 q 1212 111 1275 172 q 1065 19 1149 50 q 890 -11 982 -11 q 728 14 806 -11 q 590 90 651 39 q 488 219 529 142 q 435 403 447 297 l 288 403 l 288 0 l 107 0 l 107 972 l 288 972 l 288 569 l 435 569 q 488 753 447 675 q 590 882 529 831 q 728 958 651 933 q 890 983 806 983 m 890 817 q 786 797 836 817 q 698 738 736 778 q 638 635 660 697 q 615 486 615 572 q 638 338 615 400 q 698 235 660 275 q 786 175 736 194 q 890 156 836 156 q 994 175 944 156 q 1083 235 1044 194 q 1143 338 1121 275 q 1165 486 1165 400 q 1143 635 1165 572 q 1083 738 1121 697 q 994 797 1044 778 q 890 817 944 817 z "},"Я":{"ha":883,"x_min":69,"x_max":808,"o":"m 157 696 q 204 531 157 600 q 339 435 250 463 l 69 0 l 271 0 l 532 419 l 626 419 l 626 0 l 807 0 l 807 972 l 453 972 q 325 951 381 972 q 232 894 269 931 q 176 807 194 858 q 157 696 157 756 m 451 586 q 370 611 403 586 q 338 696 338 636 q 370 781 338 756 q 451 806 403 806 l 626 806 l 626 586 l 451 586 z "},"а":{"ha":835,"x_min":51,"x_max":740,"o":"m 51 350 q 74 497 51 431 q 139 611 96 564 q 244 685 182 658 q 385 711 306 711 q 494 687 443 711 q 568 633 544 663 l 568 700 l 740 700 l 740 0 l 568 0 l 568 72 q 497 13 543 38 q 385 -11 450 -11 q 244 15 306 -11 q 139 89 182 42 q 74 203 96 136 q 51 350 51 269 m 232 350 q 247 258 232 297 q 286 191 261 218 q 343 150 311 164 q 408 136 375 136 q 474 150 442 136 q 530 191 506 164 q 569 258 554 218 q 583 350 583 297 q 569 442 583 401 q 530 509 554 482 q 474 550 506 536 q 408 564 442 564 q 343 550 375 564 q 286 509 311 536 q 247 442 261 482 q 232 350 232 401 z "},"б":{"ha":814,"x_min":51,"x_max":763,"o":"m 51 431 q 78 689 51 585 q 153 856 106 793 q 268 945 201 918 q 415 972 335 972 l 465 972 q 528 987 501 972 q 569 1038 554 1001 l 676 1038 q 662 938 676 979 q 621 872 647 897 q 557 834 594 846 q 475 822 519 822 l 421 822 q 352 813 385 822 q 294 783 319 804 q 251 726 268 761 q 232 638 235 690 q 312 688 260 664 q 431 711 364 711 q 571 684 510 711 q 675 608 632 657 q 740 494 718 560 q 763 350 763 428 q 737 206 763 272 q 665 91 711 139 q 551 16 618 43 q 404 -11 485 -11 q 258 20 324 -11 q 147 108 193 51 q 76 247 101 165 q 51 431 51 329 m 232 350 q 244 268 232 307 q 278 200 256 229 q 333 153 300 171 q 407 136 365 136 q 481 153 449 136 q 536 200 514 171 q 570 268 558 229 q 582 350 582 307 q 570 432 582 393 q 536 500 558 471 q 481 547 514 529 q 407 564 449 564 q 333 547 365 564 q 278 500 300 529 q 244 432 256 471 q 232 350 232 393 z "},"в":{"ha":699,"x_min":94,"x_max":644,"o":"m 364 700 q 534 655 468 700 q 600 508 600 610 q 581 436 600 471 q 533 382 561 401 q 612 314 579 360 q 644 206 644 268 q 580 50 644 100 q 407 0 515 0 l 94 0 l 94 700 l 364 700 m 267 561 l 267 444 l 354 444 q 414 458 394 444 q 433 503 433 471 q 414 548 433 535 q 354 561 394 561 l 267 561 m 267 294 l 267 147 l 361 147 q 442 163 414 147 q 469 219 469 179 q 442 277 469 260 q 361 294 414 294 l 267 294 z "},"г":{"ha":581,"x_min":94,"x_max":568,"o":"m 94 0 l 94 700 l 568 700 l 568 553 l 267 553 l 267 0 l 94 0 z "},"д":{"ha":790,"x_min":42,"x_max":742,"o":"m 571 0 l 213 0 l 213 -158 l 64 -158 l 42 147 l 100 147 l 189 700 l 690 700 l 690 147 l 742 147 l 721 -158 l 571 -158 l 571 0 m 268 147 l 518 147 l 518 553 l 331 553 l 268 147 z "},"е":{"ha":757,"x_min":51,"x_max":714,"o":"m 714 294 l 232 294 q 244 237 233 265 q 276 186 256 208 q 327 150 297 164 q 397 136 357 136 q 494 162 457 136 q 563 236 532 188 l 701 185 q 653 106 681 142 q 588 44 625 69 q 501 3 550 18 q 388 -11 451 -11 q 233 22 297 -11 q 129 108 169 56 q 70 224 89 160 q 51 350 51 288 q 70 476 51 413 q 129 592 89 540 q 233 678 169 644 q 388 711 297 711 q 537 678 475 711 q 638 595 599 646 q 696 483 678 544 q 714 365 714 422 l 714 294 m 388 564 q 328 552 354 564 q 284 522 303 540 q 253 479 265 503 q 236 431 240 456 l 538 431 q 521 481 532 457 q 492 523 510 504 q 448 553 474 542 q 388 564 422 564 z "},"ж":{"ha":1097,"x_min":4,"x_max":1093,"o":"m 635 700 l 635 425 l 863 700 l 1075 700 l 794 378 l 1093 0 l 882 0 l 635 331 l 635 0 l 463 0 l 463 331 l 215 0 l 4 0 l 303 378 l 22 700 l 235 700 l 463 425 l 463 700 l 635 700 z "},"з":{"ha":601,"x_min":51,"x_max":560,"o":"m 206 224 q 241 156 211 179 q 307 133 271 133 q 371 157 346 133 q 396 219 396 181 q 360 283 396 260 q 276 306 325 306 l 243 306 l 243 422 l 276 422 q 353 444 325 422 q 381 503 381 465 q 360 556 381 535 q 301 578 340 578 q 243 557 265 578 q 213 501 221 536 l 69 539 q 96 605 78 574 q 143 660 114 636 q 213 697 172 683 q 304 711 253 711 q 403 696 361 711 q 474 656 446 681 q 515 598 501 631 q 528 529 528 565 q 510 438 528 474 q 451 376 492 403 q 530 315 500 357 q 560 210 560 274 q 542 119 560 160 q 491 49 524 78 q 412 5 458 21 q 307 -11 365 -11 q 210 5 254 -11 q 131 49 165 21 q 76 117 97 78 q 51 203 56 157 l 206 224 z "},"и":{"ha":789,"x_min":94,"x_max":694,"o":"m 267 700 l 267 268 l 507 700 l 694 700 l 694 0 l 522 0 l 522 432 l 282 0 l 94 0 l 94 700 l 267 700 z "},"й":{"ha":789,"x_min":94,"x_max":694,"o":"m 267 700 l 267 268 l 507 700 l 694 700 l 694 0 l 522 0 l 522 432 l 282 0 l 94 0 l 94 700 l 267 700 m 357 972 q 367 944 357 956 q 394 933 378 933 q 422 944 411 933 q 432 972 432 956 l 558 972 q 547 915 558 942 q 515 867 536 888 q 463 833 493 846 q 394 821 432 821 q 326 833 357 821 q 274 867 296 846 q 242 915 253 888 q 231 972 231 942 l 357 972 z "},"к":{"ha":729,"x_min":94,"x_max":725,"o":"m 267 700 l 267 425 l 494 700 l 707 700 l 426 378 l 725 0 l 514 0 l 267 331 l 267 0 l 94 0 l 94 700 l 267 700 z "},"л":{"ha":811,"x_min":36,"x_max":717,"o":"m 207 700 l 717 700 l 717 0 l 544 0 l 544 553 l 367 553 l 325 183 q 294 83 318 119 q 232 28 269 47 q 144 5 194 10 q 36 0 94 0 l 36 147 q 126 169 97 147 q 161 246 156 190 l 207 700 z "},"м":{"ha":867,"x_min":94,"x_max":772,"o":"m 94 700 l 275 700 l 433 297 l 592 700 l 772 700 l 772 0 l 600 0 l 600 350 l 493 64 l 374 64 l 267 350 l 267 0 l 94 0 l 94 700 z "},"н":{"ha":767,"x_min":94,"x_max":672,"o":"m 94 700 l 267 700 l 267 446 l 500 446 l 500 700 l 672 700 l 672 0 l 500 0 l 500 299 l 267 299 l 267 0 l 94 0 l 94 700 z "},"о":{"ha":814,"x_min":51,"x_max":763,"o":"m 51 350 q 75 492 51 426 q 144 607 99 558 q 256 683 190 656 q 407 711 322 711 q 558 683 492 711 q 669 607 624 656 q 739 492 715 558 q 763 350 763 426 q 739 208 763 274 q 669 93 715 142 q 558 17 624 44 q 407 -11 492 -11 q 256 17 322 -11 q 144 93 190 44 q 75 208 99 142 q 51 350 51 274 m 232 350 q 244 268 232 307 q 278 200 256 229 q 333 153 300 171 q 407 136 365 136 q 481 153 449 136 q 536 200 514 171 q 570 268 558 229 q 582 350 582 307 q 570 432 582 393 q 536 500 558 471 q 481 547 514 529 q 407 564 449 564 q 333 547 365 564 q 278 500 300 529 q 244 432 256 471 q 232 350 232 393 z "},"п":{"ha":763,"x_min":94,"x_max":668,"o":"m 94 700 l 668 700 l 668 0 l 496 0 l 496 553 l 267 553 l 267 0 l 94 0 l 94 700 z "},"р":{"ha":807,"x_min":94,"x_max":756,"o":"m 756 350 q 735 203 756 269 q 675 89 715 136 q 575 15 635 42 q 436 -11 515 -11 q 337 12 383 -11 q 267 64 290 35 l 267 -283 l 94 -283 l 94 700 l 267 700 l 267 628 q 289 656 274 642 q 326 683 304 671 q 376 703 349 696 q 436 711 404 711 q 575 685 515 711 q 675 611 635 658 q 735 497 715 564 q 756 350 756 431 m 575 350 q 528 509 575 454 q 413 564 481 564 q 298 509 344 564 q 251 350 251 454 q 298 191 251 246 q 413 136 344 136 q 528 191 481 136 q 575 350 575 246 z "},"с":{"ha":751,"x_min":51,"x_max":711,"o":"m 711 189 q 591 39 671 89 q 393 -11 511 -11 q 243 17 307 -11 q 137 95 179 46 q 73 210 94 144 q 51 350 51 276 q 73 490 51 424 q 137 605 94 556 q 243 683 179 654 q 393 711 307 711 q 591 661 511 711 q 711 511 671 611 l 557 449 q 490 534 529 504 q 393 564 451 564 q 272 503 311 564 q 232 350 232 443 q 272 197 232 257 q 393 136 311 136 q 490 166 451 136 q 557 251 529 196 l 711 189 z "},"т":{"ha":622,"x_min":38,"x_max":585,"o":"m 38 700 l 585 700 l 585 553 l 397 553 l 397 0 l 225 0 l 225 553 l 38 553 l 38 700 z "},"у":{"ha":668,"x_min":4,"x_max":665,"o":"m 178 700 l 340 261 l 493 700 l 665 700 l 304 -283 l 138 -283 l 258 44 l 4 700 l 178 700 z "},"ф":{"ha":986,"x_min":51,"x_max":935,"o":"m 579 -283 l 407 -283 l 407 -11 q 260 17 326 -11 q 148 94 194 46 q 76 209 101 143 q 51 350 51 275 q 76 491 51 425 q 148 606 101 557 q 260 683 194 654 q 407 711 326 711 l 407 983 l 579 983 l 579 711 q 726 683 660 711 q 838 606 792 654 q 910 491 885 557 q 935 350 935 425 q 910 209 935 275 q 838 94 885 143 q 726 17 792 46 q 579 -11 660 -11 l 579 -283 m 579 564 l 579 136 l 586 136 q 656 153 625 136 q 708 199 686 169 q 742 267 731 228 q 754 350 754 306 q 742 432 754 393 q 708 500 731 471 q 656 547 686 529 q 586 564 625 564 l 579 564 m 407 564 l 400 564 q 330 547 361 564 q 277 500 299 529 q 244 432 256 471 q 232 350 232 393 q 244 267 232 306 q 277 199 256 228 q 330 153 299 169 q 400 136 361 136 l 407 136 l 407 564 z "},"х":{"ha":667,"x_min":10,"x_max":657,"o":"m 628 700 l 425 374 l 657 0 l 476 0 l 333 228 l 190 0 l 10 0 l 242 374 l 39 700 l 219 700 l 333 518 l 447 700 l 628 700 z "},"ц":{"ha":768,"x_min":94,"x_max":719,"o":"m 94 700 l 267 700 l 267 147 l 496 147 l 496 700 l 668 700 l 668 147 l 719 147 l 699 -158 l 549 -158 l 549 0 l 94 0 l 94 700 z "},"ч":{"ha":769,"x_min":83,"x_max":675,"o":"m 503 0 l 503 290 q 408 231 454 247 q 297 214 361 214 q 142 267 201 214 q 83 424 83 321 l 83 700 l 256 700 l 256 486 q 282 397 256 424 q 356 369 308 369 q 435 401 397 369 q 503 496 472 433 l 503 700 l 675 700 l 675 0 l 503 0 z "},"ш":{"ha":1119,"x_min":94,"x_max":1025,"o":"m 94 700 l 267 700 l 267 147 l 474 147 l 474 700 l 646 700 l 646 147 l 853 147 l 853 700 l 1025 700 l 1025 0 l 94 0 l 94 700 z "},"щ":{"ha":1125,"x_min":94,"x_max":1076,"o":"m 94 700 l 267 700 l 267 147 l 474 147 l 474 700 l 646 700 l 646 147 l 853 147 l 853 700 l 1025 700 l 1025 147 l 1076 147 l 1056 -158 l 906 -158 l 906 0 l 94 0 l 94 700 z "},"ъ":{"ha":750,"x_min":33,"x_max":696,"o":"m 33 700 l 326 700 l 326 433 l 454 433 q 631 374 567 433 q 696 217 696 315 q 631 59 696 118 q 454 0 567 0 l 154 0 l 154 553 l 33 553 l 33 700 m 326 286 l 326 147 l 424 147 q 497 163 472 147 q 521 217 521 179 q 497 270 521 254 q 424 286 472 286 l 326 286 z "},"ы":{"ha":1049,"x_min":94,"x_max":954,"o":"m 94 700 l 267 700 l 267 433 l 394 433 q 572 374 507 433 q 636 217 636 315 q 572 59 636 118 q 394 0 507 0 l 94 0 l 94 700 m 267 286 l 267 147 l 364 147 q 437 163 413 147 q 461 217 461 179 q 437 270 461 254 q 364 286 413 286 l 267 286 m 954 700 l 954 0 l 782 0 l 782 700 l 954 700 z "},"ь":{"ha":690,"x_min":94,"x_max":636,"o":"m 94 700 l 267 700 l 267 433 l 394 433 q 572 374 507 433 q 636 217 636 315 q 572 59 636 118 q 394 0 507 0 l 94 0 l 94 700 m 267 286 l 267 147 l 364 147 q 437 163 413 147 q 461 217 461 179 q 437 270 461 254 q 364 286 413 286 l 267 286 z "},"э":{"ha":754,"x_min":40,"x_max":703,"o":"m 214 418 l 514 418 q 460 523 503 482 q 353 564 417 564 q 252 535 294 564 q 182 457 210 507 l 40 529 q 165 664 90 617 q 347 711 239 711 q 501 683 435 711 q 613 605 568 654 q 680 490 657 556 q 703 350 703 424 q 680 210 703 276 q 613 95 657 144 q 501 17 568 46 q 347 -11 435 -11 q 165 36 239 -11 q 40 171 90 83 l 182 243 q 252 165 210 193 q 353 136 294 136 q 460 177 417 136 q 514 282 503 218 l 214 282 l 214 418 z "},"ю":{"ha":1118,"x_min":94,"x_max":1067,"o":"m 94 700 l 267 700 l 267 424 l 361 424 q 399 538 371 486 q 472 629 428 590 q 577 690 517 668 q 711 711 638 711 q 862 683 796 711 q 974 607 928 656 q 1043 492 1019 558 q 1067 350 1067 426 q 1043 208 1067 274 q 974 93 1019 142 q 862 17 928 44 q 711 -11 796 -11 q 577 10 638 -11 q 472 70 517 32 q 399 161 428 108 q 361 276 371 214 l 267 276 l 267 0 l 94 0 l 94 700 m 536 350 q 548 268 536 307 q 582 200 560 229 q 637 153 604 171 q 711 136 669 136 q 785 153 753 136 q 840 200 818 171 q 874 268 863 229 q 886 350 886 307 q 874 432 886 393 q 840 500 863 471 q 785 547 818 529 q 711 564 753 564 q 637 547 669 564 q 582 500 604 529 q 548 432 560 471 q 536 350 536 393 z "},"я":{"ha":661,"x_min":22,"x_max":567,"o":"m 68 501 q 85 583 68 546 q 134 645 103 619 q 208 685 165 671 q 300 700 250 700 l 567 700 l 567 0 l 394 0 l 394 303 l 375 303 l 206 0 l 22 0 l 206 311 q 106 380 143 331 q 68 501 68 429 m 394 450 l 394 553 l 290 553 q 235 501 235 553 q 290 450 235 450 l 394 450 z "},"ѐ":{"ha":757,"x_min":51,"x_max":714,"o":"m 714 294 l 232 294 q 244 237 233 265 q 276 186 256 208 q 327 150 297 164 q 397 136 357 136 q 494 162 457 136 q 563 236 532 188 l 701 185 q 653 106 681 142 q 588 44 625 69 q 501 3 550 18 q 388 -11 451 -11 q 233 22 297 -11 q 129 108 169 56 q 70 224 89 160 q 51 350 51 288 q 70 476 51 413 q 129 592 89 540 q 233 678 169 644 q 388 711 297 711 q 537 678 475 711 q 638 595 599 646 q 696 483 678 544 q 714 365 714 422 l 714 294 m 388 564 q 328 552 354 564 q 284 522 303 540 q 253 479 265 503 q 236 431 240 456 l 538 431 q 521 481 532 457 q 492 523 510 504 q 448 553 474 542 q 388 564 422 564 m 481 778 l 349 778 l 158 983 l 392 983 l 481 778 z "},"ё":{"ha":757,"x_min":51,"x_max":714,"o":"m 714 294 l 232 294 q 244 237 233 265 q 276 186 256 208 q 327 150 297 164 q 397 136 357 136 q 494 162 457 136 q 563 236 532 188 l 701 185 q 653 106 681 142 q 588 44 625 69 q 501 3 550 18 q 388 -11 451 -11 q 233 22 297 -11 q 129 108 169 56 q 70 224 89 160 q 51 350 51 288 q 70 476 51 413 q 129 592 89 540 q 233 678 169 644 q 388 711 297 711 q 537 678 475 711 q 638 595 599 646 q 696 483 678 544 q 714 365 714 422 l 714 294 m 388 564 q 328 552 354 564 q 284 522 303 540 q 253 479 265 503 q 236 431 240 456 l 538 431 q 521 481 532 457 q 492 523 510 504 q 448 553 474 542 q 388 564 422 564 m 146 904 q 173 975 146 947 q 244 1003 200 1003 q 316 975 289 1003 q 343 904 343 947 q 316 833 343 861 q 244 806 289 806 q 173 833 200 806 q 146 904 146 861 m 433 904 q 460 975 433 947 q 532 1003 488 1003 q 603 975 576 1003 q 631 904 631 947 q 603 833 631 861 q 532 806 576 806 q 460 833 488 806 q 433 904 433 861 z "},"ђ":{"ha":808,"x_min":10,"x_max":722,"o":"m 282 776 l 282 588 q 372 676 315 640 q 504 711 428 711 q 663 660 604 711 q 722 500 722 608 l 722 81 q 704 -66 722 -3 q 649 -174 686 -129 q 558 -248 613 -218 q 429 -294 503 -278 l 388 -143 q 456 -119 425 -133 q 507 -81 486 -104 q 539 -24 528 -58 q 550 60 550 11 l 550 439 q 446 564 550 564 q 387 549 417 564 q 334 501 357 533 q 297 417 311 468 q 282 296 282 367 l 282 0 l 110 0 l 110 776 l 10 776 l 10 904 l 110 904 l 110 983 l 282 983 l 282 904 l 436 904 l 436 776 l 282 776 z "},"ѓ":{"ha":581,"x_min":94,"x_max":568,"o":"m 94 0 l 94 700 l 568 700 l 568 553 l 267 553 l 267 0 l 94 0 m 300 983 l 533 983 l 343 778 l 211 778 l 300 983 z "},"є":{"ha":754,"x_min":51,"x_max":714,"o":"m 540 282 l 240 282 q 294 177 251 218 q 401 136 338 136 q 502 165 460 136 q 572 243 544 193 l 714 171 q 590 36 664 83 q 407 -11 515 -11 q 253 17 319 -11 q 142 95 186 46 q 74 210 97 144 q 51 350 51 276 q 74 490 51 424 q 142 605 97 556 q 253 683 186 654 q 407 711 319 711 q 590 664 515 711 q 714 529 664 617 l 572 457 q 502 535 544 507 q 401 564 460 564 q 294 523 338 564 q 240 418 251 482 l 540 418 l 540 282 z "},"ѕ":{"ha":618,"x_min":43,"x_max":569,"o":"m 314 711 q 443 680 385 711 q 533 597 501 649 l 431 503 q 375 549 407 535 q 314 564 343 564 q 269 549 289 564 q 250 506 250 535 q 267 465 250 482 q 317 438 285 449 q 397 410 353 425 q 479 373 440 396 q 544 314 518 350 q 569 222 569 278 q 552 133 569 175 q 502 58 535 90 q 424 8 469 26 q 321 -11 378 -11 q 221 6 267 -11 q 140 51 175 24 q 81 112 106 78 q 43 178 56 146 l 181 251 q 235 168 200 200 q 321 136 269 136 q 384 154 361 136 q 407 211 407 172 q 392 247 407 233 q 351 273 376 261 q 295 294 326 285 q 232 318 264 304 q 177 346 203 331 q 132 383 151 361 q 101 436 113 406 q 90 507 90 467 q 106 584 90 547 q 151 649 122 621 q 222 694 181 678 q 314 711 263 711 z "},"і":{"ha":342,"x_min":60,"x_max":282,"o":"m 60 901 q 91 981 60 949 q 171 1013 122 1013 q 251 981 219 1013 q 282 901 282 949 q 251 822 282 854 q 171 790 219 790 q 91 822 122 790 q 60 901 60 854 m 257 700 l 257 0 l 85 0 l 85 700 l 257 700 z "},"ї":{"ha":344,"x_min":-68,"x_max":417,"o":"m 258 700 l 258 0 l 86 0 l 86 700 l 258 700 m -68 904 q -41 975 -68 947 q 31 1003 -14 1003 q 102 975 75 1003 q 129 904 129 947 q 102 833 129 861 q 31 806 75 806 q -41 833 -14 806 q -68 904 -68 861 m 219 904 q 247 975 219 947 q 318 1003 274 1003 q 390 975 363 1003 q 417 904 417 947 q 390 833 417 861 q 318 806 363 806 q 247 833 274 806 q 219 904 219 861 z "},"ј":{"ha":346,"x_min":-35,"x_max":286,"o":"m 261 700 l 261 -6 q 250 -126 261 -72 q 214 -217 239 -179 q 149 -274 189 -254 q 50 -294 108 -294 q -1 -291 18 -294 q -35 -282 -21 -287 l -35 -132 q 14 -143 -6 -143 q 72 -115 54 -143 q 89 -31 89 -87 l 89 700 l 261 700 m 64 901 q 95 981 64 949 q 175 1013 126 1013 q 255 981 224 1013 q 286 901 286 949 q 255 822 286 854 q 175 790 224 790 q 95 822 126 790 q 64 901 64 854 z "},"љ":{"ha":1090,"x_min":36,"x_max":1036,"o":"m 207 700 l 667 700 l 667 433 l 794 433 q 972 374 907 433 q 1036 217 1036 315 q 972 59 1036 118 q 794 0 907 0 l 494 0 l 494 553 l 367 553 l 325 183 q 294 83 318 119 q 232 28 269 47 q 144 5 194 10 q 36 0 94 0 l 36 147 q 126 169 97 147 q 161 246 156 190 l 207 700 m 667 286 l 667 147 l 764 147 q 837 163 813 147 q 861 217 861 179 q 837 270 861 254 q 764 286 813 286 l 667 286 z "},"њ":{"ha":1110,"x_min":94,"x_max":1056,"o":"m 94 700 l 267 700 l 267 433 l 514 433 l 514 700 l 686 700 l 686 433 l 814 433 q 991 374 926 433 q 1056 217 1056 315 q 991 59 1056 118 q 814 0 926 0 l 514 0 l 514 286 l 267 286 l 267 0 l 94 0 l 94 700 m 686 286 l 686 147 l 783 147 q 856 163 832 147 q 881 217 881 179 q 856 270 881 254 q 783 286 832 286 l 686 286 z "},"ћ":{"ha":808,"x_min":10,"x_max":722,"o":"m 10 904 l 110 904 l 110 983 l 282 983 l 282 904 l 436 904 l 436 776 l 282 776 l 282 588 q 372 676 315 640 q 504 711 428 711 q 663 660 604 711 q 722 500 722 608 l 722 0 l 550 0 l 550 439 q 446 564 550 564 q 387 549 417 564 q 334 501 357 533 q 297 417 311 468 q 282 296 282 367 l 282 0 l 110 0 l 110 776 l 10 776 l 10 904 z "},"ќ":{"ha":729,"x_min":94,"x_max":725,"o":"m 267 700 l 267 425 l 494 700 l 707 700 l 426 378 l 725 0 l 514 0 l 267 331 l 267 0 l 94 0 l 94 700 l 267 700 m 375 983 l 608 983 l 418 778 l 286 778 l 375 983 z "},"ѝ":{"ha":789,"x_min":94,"x_max":694,"o":"m 267 700 l 267 268 l 507 700 l 694 700 l 694 0 l 522 0 l 522 432 l 282 0 l 94 0 l 94 700 l 267 700 m 490 778 l 358 778 l 168 983 l 401 983 l 490 778 z "},"ў":{"ha":668,"x_min":4,"x_max":665,"o":"m 178 700 l 340 261 l 493 700 l 665 700 l 304 -283 l 138 -283 l 258 44 l 4 700 l 178 700 m 303 972 q 313 944 303 956 q 340 933 324 933 q 367 944 357 933 q 378 972 378 956 l 504 972 q 493 915 504 942 q 460 867 482 888 q 408 833 439 846 q 340 821 378 821 q 272 833 303 821 q 220 867 242 846 q 188 915 199 888 q 176 972 176 942 l 303 972 z "},"џ":{"ha":764,"x_min":94,"x_max":669,"o":"m 94 700 l 267 700 l 267 147 l 497 147 l 497 700 l 669 700 l 669 0 l 468 0 l 468 -158 l 296 -158 l 296 0 l 94 0 l 94 700 z "},"–":{"ha":788,"x_min":78,"x_max":710,"o":"m 78 515 l 710 515 l 710 365 l 78 365 l 78 515 z "},"—":{"ha":1046,"x_min":78,"x_max":968,"o":"m 78 515 l 968 515 l 968 365 l 78 365 l 78 515 z "},"‘":{"ha":446,"x_min":60,"x_max":394,"o":"m 394 644 l 267 644 l 60 983 l 286 983 l 394 644 z "},"’":{"ha":446,"x_min":60,"x_max":394,"o":"m 168 983 l 394 983 l 188 644 l 60 644 l 168 983 z "},"‚":{"ha":446,"x_min":51,"x_max":386,"o":"m 160 319 l 386 319 l 179 -19 l 51 -19 l 160 319 z "},"“":{"ha":751,"x_min":60,"x_max":700,"o":"m 700 644 l 572 644 l 365 983 l 592 983 l 700 644 m 394 644 l 267 644 l 60 983 l 286 983 l 394 644 z "},"”":{"ha":751,"x_min":51,"x_max":692,"o":"m 160 983 l 386 983 l 179 644 l 51 644 l 160 983 m 465 983 l 692 983 l 485 644 l 357 644 l 465 983 z "},"„":{"ha":751,"x_min":51,"x_max":692,"o":"m 160 319 l 386 319 l 179 -19 l 51 -19 l 160 319 m 465 319 l 692 319 l 485 -19 l 357 -19 l 465 319 z "},"†":{"ha":708,"x_min":63,"x_max":646,"o":"m 63 700 l 269 700 l 269 1042 l 439 1042 l 439 700 l 646 700 l 646 550 l 439 550 l 439 -69 l 269 -69 l 269 550 l 63 550 l 63 700 z "},"‡":{"ha":708,"x_min":63,"x_max":646,"o":"m 63 700 l 269 700 l 269 1042 l 439 1042 l 439 700 l 646 700 l 646 550 l 439 550 l 439 422 l 646 422 l 646 272 l 439 272 l 439 -69 l 269 -69 l 269 272 l 63 272 l 63 422 l 269 422 l 269 550 l 63 550 l 63 700 z "},"•":{"ha":514,"x_min":93,"x_max":421,"o":"m 93 458 q 106 522 93 492 q 142 574 119 551 q 194 609 164 596 q 257 622 224 622 q 320 609 290 622 q 372 574 350 596 q 408 522 394 551 q 421 458 421 492 q 408 395 421 425 q 372 343 394 365 q 320 308 350 321 q 257 294 290 294 q 194 308 224 294 q 142 343 164 321 q 106 395 119 365 q 93 458 93 425 z "},"…":{"ha":1317,"x_min":94,"x_max":1222,"o":"m 94 108 q 128 192 94 158 q 211 225 161 225 q 294 192 261 225 q 328 108 328 158 q 294 25 328 58 q 211 -8 261 -8 q 128 25 161 -8 q 94 108 94 58 m 542 108 q 575 192 542 158 q 658 225 608 225 q 742 192 708 225 q 775 108 775 158 q 742 25 775 58 q 658 -8 708 -8 q 575 25 608 -8 q 542 108 542 58 m 989 108 q 1022 192 989 158 q 1106 225 1056 225 q 1189 192 1156 225 q 1222 108 1222 158 q 1189 25 1222 58 q 1106 -8 1156 -8 q 1022 25 1056 -8 q 989 108 989 58 z "},"‰":{"ha":1699,"x_min":63,"x_max":1636,"o":"m 63 761 q 80 849 63 808 q 127 919 97 889 q 199 966 157 949 q 290 983 240 983 q 382 966 340 983 q 453 919 424 949 q 501 849 483 889 q 518 761 518 808 q 501 674 518 714 q 453 603 483 633 q 382 556 424 574 q 290 539 340 539 q 199 556 240 539 q 127 603 157 574 q 80 674 97 633 q 63 761 63 714 m 204 761 q 227 697 204 722 q 290 671 250 671 q 353 697 331 671 q 376 761 376 722 q 353 826 376 800 q 290 851 331 851 q 227 826 250 851 q 204 761 204 800 m 626 211 q 644 299 626 258 q 691 369 661 339 q 763 416 721 399 q 854 433 804 433 q 946 416 904 433 q 1017 369 988 399 q 1065 299 1047 339 q 1082 211 1082 258 q 1065 124 1082 164 q 1017 53 1047 83 q 946 6 988 24 q 854 -11 904 -11 q 763 6 804 -11 q 691 53 721 24 q 644 124 661 83 q 626 211 626 164 m 768 211 q 791 147 768 172 q 854 121 814 121 q 917 147 894 121 q 940 211 940 172 q 917 276 940 250 q 854 301 894 301 q 791 276 814 301 q 768 211 768 250 m 1181 211 q 1198 299 1181 258 q 1245 369 1215 339 q 1317 416 1275 399 q 1408 433 1358 433 q 1500 416 1458 433 q 1572 369 1542 399 q 1619 299 1601 339 q 1636 211 1636 258 q 1619 124 1636 164 q 1572 53 1601 83 q 1500 6 1542 24 q 1408 -11 1458 -11 q 1317 6 1358 -11 q 1245 53 1275 24 q 1198 124 1215 83 q 1181 211 1181 164 m 1322 211 q 1345 147 1322 172 q 1408 121 1368 121 q 1472 147 1449 121 q 1494 211 1494 172 q 1472 276 1494 250 q 1408 301 1449 301 q 1345 276 1368 301 q 1322 211 1322 250 m 1004 946 l 257 -53 l 157 28 l 904 1025 l 1004 946 z "},"‹":{"ha":542,"x_min":53,"x_max":482,"o":"m 53 488 l 482 790 l 482 613 l 225 431 l 482 249 l 482 71 l 53 374 l 53 488 z "},"›":{"ha":542,"x_min":60,"x_max":489,"o":"m 489 374 l 60 71 l 60 249 l 317 431 l 60 613 l 60 790 l 489 488 l 489 374 z "},"⁄":{"ha":856,"x_min":4,"x_max":851,"o":"m 851 946 l 104 -53 l 4 28 l 751 1025 l 851 946 z "},"⁰":{"ha":558,"x_min":49,"x_max":510,"o":"m 279 978 q 448 905 386 978 q 510 694 510 832 q 448 485 510 558 q 279 411 386 411 q 110 485 172 411 q 49 694 49 558 q 110 905 49 832 q 279 978 172 978 m 279 863 q 241 853 260 863 q 208 825 222 844 q 185 773 193 806 q 176 694 176 740 q 208 565 176 603 q 279 526 239 526 q 351 565 319 526 q 382 694 382 603 q 374 773 382 740 q 351 825 365 806 q 317 853 336 844 q 279 863 299 863 z "},"⁴":{"ha":478,"x_min":33,"x_max":449,"o":"m 265 507 l 33 507 l 33 569 l 257 972 l 389 972 l 389 622 l 449 622 l 449 507 l 389 507 l 389 417 l 265 417 l 265 507 m 265 622 l 265 792 l 178 622 l 265 622 z "},"⁵":{"ha":479,"x_min":50,"x_max":446,"o":"m 171 589 q 197 543 178 560 q 242 526 215 526 q 297 548 278 526 q 317 608 317 569 q 242 685 317 685 q 161 653 197 685 l 63 674 l 92 972 l 411 972 l 411 857 l 196 857 l 182 764 q 221 779 199 774 q 269 785 243 785 q 346 771 313 785 q 401 733 379 757 q 435 678 424 710 q 446 608 446 646 q 390 463 446 515 q 242 411 335 411 q 172 424 204 411 q 113 458 139 436 q 70 509 86 479 q 50 575 54 539 l 171 589 z "},"⁶":{"ha":501,"x_min":58,"x_max":449,"o":"m 256 772 q 281 776 265 776 q 343 766 313 776 q 397 733 374 756 q 435 676 421 711 q 449 594 449 642 q 394 462 449 513 q 253 411 340 411 q 112 461 165 411 q 58 594 58 511 q 83 699 58 654 l 240 978 l 379 978 l 256 772 m 253 661 q 206 644 225 661 q 188 594 188 626 q 206 545 188 564 q 253 526 225 526 q 299 545 281 526 q 318 594 318 564 q 299 644 318 626 q 253 661 281 661 z "},"⁷":{"ha":428,"x_min":47,"x_max":410,"o":"m 410 924 l 201 417 l 69 417 l 253 857 l 47 857 l 47 972 l 410 972 l 410 924 z "},"⁸":{"ha":486,"x_min":51,"x_max":435,"o":"m 243 978 q 317 965 285 978 q 371 932 349 953 q 405 884 393 911 q 417 828 417 857 q 354 717 417 751 q 409 674 383 703 q 435 592 435 644 q 383 460 435 508 q 243 411 331 411 q 103 460 156 411 q 51 592 51 508 q 77 674 51 644 q 132 717 103 703 q 69 828 69 751 q 81 884 69 857 q 115 932 93 911 q 169 965 138 953 q 243 978 201 978 m 243 657 q 197 638 214 657 q 181 592 181 619 q 197 545 181 564 q 243 526 214 526 q 289 545 272 526 q 306 592 306 564 q 289 638 306 619 q 243 657 272 657 m 243 885 q 201 868 215 885 q 186 824 186 851 q 201 779 186 796 q 243 763 215 763 q 285 779 271 763 q 300 824 300 796 q 285 868 300 851 q 243 885 271 885 z "},"⁹":{"ha":501,"x_min":53,"x_max":443,"o":"m 246 617 q 221 613 235 613 q 158 623 189 613 q 104 656 128 633 q 67 712 81 678 q 53 794 53 746 q 107 927 53 876 q 249 978 161 978 q 390 928 336 978 q 443 794 443 878 q 437 740 443 767 q 418 690 431 713 l 261 411 l 122 411 l 246 617 m 249 728 q 295 745 276 728 q 314 794 314 763 q 295 844 314 825 q 249 863 276 863 q 202 844 221 863 q 183 794 183 825 q 202 745 183 763 q 249 728 221 728 z "},"₀":{"ha":558,"x_min":49,"x_max":510,"o":"m 279 279 q 448 206 386 279 q 510 -4 510 133 q 448 -214 510 -140 q 279 -287 386 -287 q 110 -214 172 -287 q 49 -4 49 -140 q 110 206 49 133 q 279 279 172 279 m 279 164 q 241 155 260 164 q 208 126 222 146 q 185 74 193 107 q 176 -4 176 42 q 208 -134 176 -96 q 279 -172 239 -172 q 351 -134 319 -172 q 382 -4 382 -96 q 374 74 382 42 q 351 126 365 107 q 317 155 336 146 q 279 164 299 164 z "},"₁":{"ha":399,"x_min":63,"x_max":304,"o":"m 304 274 l 304 -282 l 181 -282 l 181 104 l 63 51 l 63 183 l 253 274 l 304 274 z "},"₂":{"ha":506,"x_min":64,"x_max":440,"o":"m 64 -233 l 265 13 q 295 62 288 39 q 303 107 303 85 q 288 149 303 135 q 250 164 274 164 q 207 149 226 164 q 179 90 188 135 l 68 122 q 127 236 76 193 q 250 279 178 279 q 381 234 331 279 q 432 110 432 189 q 416 33 432 67 q 376 -28 400 0 l 263 -167 l 440 -167 l 440 -282 l 64 -282 l 64 -233 z "},"₃":{"ha":518,"x_min":64,"x_max":453,"o":"m 175 -99 q 205 -154 182 -136 q 256 -172 228 -172 q 324 -90 324 -172 q 304 -34 324 -51 q 257 -17 285 -17 q 230 -20 240 -17 q 206 -31 219 -24 l 150 39 l 242 158 l 89 158 l 89 274 l 418 274 l 418 225 l 294 67 q 358 53 329 67 q 408 19 388 40 q 441 -32 429 -3 q 453 -94 453 -61 q 406 -234 453 -181 q 258 -287 358 -287 q 181 -274 215 -287 q 121 -237 146 -261 q 81 -182 96 -214 q 64 -112 65 -150 l 175 -99 z "},"₄":{"ha":478,"x_min":33,"x_max":449,"o":"m 265 -192 l 33 -192 l 33 -129 l 257 274 l 389 274 l 389 -76 l 449 -76 l 449 -192 l 389 -192 l 389 -282 l 265 -282 l 265 -192 m 265 -76 l 265 93 l 178 -76 l 265 -76 z "},"₅":{"ha":479,"x_min":50,"x_max":446,"o":"m 171 -110 q 197 -156 178 -139 q 242 -172 215 -172 q 297 -151 278 -172 q 317 -90 317 -129 q 242 -14 317 -14 q 161 -46 197 -14 l 63 -25 l 92 274 l 411 274 l 411 158 l 196 158 l 182 65 q 221 81 199 75 q 269 86 243 86 q 346 72 313 86 q 401 35 379 58 q 435 -21 424 11 q 446 -90 446 -53 q 390 -235 446 -183 q 242 -287 335 -287 q 172 -275 204 -287 q 113 -241 139 -262 q 70 -190 86 -219 q 50 -124 54 -160 l 171 -110 z "},"₆":{"ha":501,"x_min":58,"x_max":449,"o":"m 256 74 q 281 78 265 78 q 343 67 313 78 q 397 35 374 57 q 435 -22 421 13 q 449 -104 449 -57 q 394 -237 449 -186 q 253 -287 340 -287 q 112 -237 165 -287 q 58 -104 58 -187 q 83 0 58 -44 l 240 279 l 379 279 l 256 74 m 253 -37 q 206 -55 225 -37 q 188 -104 188 -72 q 206 -153 188 -135 q 253 -172 225 -172 q 299 -153 281 -172 q 318 -104 318 -135 q 299 -55 318 -72 q 253 -37 281 -37 z "},"₇":{"ha":428,"x_min":47,"x_max":410,"o":"m 410 225 l 201 -282 l 69 -282 l 253 158 l 47 158 l 47 274 l 410 274 l 410 225 z "},"₈":{"ha":486,"x_min":51,"x_max":435,"o":"m 243 279 q 317 267 285 279 q 371 233 349 254 q 405 185 393 213 q 417 129 417 158 q 354 18 417 53 q 409 -25 383 4 q 435 -107 435 -54 q 383 -239 435 -190 q 243 -287 331 -287 q 103 -239 156 -287 q 51 -107 51 -190 q 77 -25 51 -54 q 132 18 103 4 q 69 129 69 53 q 81 185 69 158 q 115 233 93 213 q 169 267 138 254 q 243 279 201 279 m 243 -42 q 197 -60 214 -42 q 181 -107 181 -79 q 197 -153 181 -135 q 243 -172 214 -172 q 289 -153 272 -172 q 306 -107 306 -135 q 289 -60 306 -79 q 243 -42 272 -42 m 243 186 q 201 169 215 186 q 186 125 186 153 q 201 81 186 97 q 243 64 215 64 q 285 81 271 64 q 300 125 300 97 q 285 169 300 153 q 243 186 271 186 z "},"₉":{"ha":501,"x_min":53,"x_max":443,"o":"m 246 -82 q 221 -86 235 -86 q 158 -76 189 -86 q 104 -43 128 -65 q 67 13 81 -21 q 53 96 53 47 q 107 228 53 178 q 249 279 161 279 q 390 229 336 279 q 443 96 443 179 q 437 41 443 68 q 418 -8 431 14 l 261 -287 l 122 -287 l 246 -82 m 249 29 q 295 47 276 29 q 314 96 314 64 q 295 145 314 126 q 249 164 276 164 q 202 145 221 164 q 183 96 183 126 q 202 47 183 64 q 249 29 221 29 z "},"€":{"ha":883,"x_min":31,"x_max":840,"o":"m 100 672 l 169 672 q 305 906 206 828 q 540 983 404 983 q 724 941 649 983 q 840 821 799 899 l 690 732 q 628 799 667 776 q 540 822 589 822 q 420 788 471 822 q 346 672 369 753 l 638 672 l 568 522 l 326 522 l 326 450 l 638 450 l 568 300 l 346 300 q 420 184 369 218 q 540 150 471 150 q 628 173 589 150 q 690 240 667 196 l 840 151 q 724 31 799 74 q 540 -11 649 -11 q 305 67 404 -11 q 169 300 206 144 l 31 300 l 100 450 l 154 450 l 154 522 l 31 522 l 100 672 z "},"™":{"ha":1164,"x_min":28,"x_max":1074,"o":"m 28 972 l 451 972 l 451 847 l 307 847 l 307 417 l 172 417 l 172 847 l 28 847 l 28 972 m 535 972 l 669 972 l 804 649 l 939 972 l 1074 972 l 1074 417 l 939 417 l 939 685 l 849 468 l 760 468 l 669 685 l 669 417 l 535 417 l 535 972 z "},"Ω":{"ha":939,"x_min":82,"x_max":857,"o":"m 857 0 l 517 0 l 517 56 q 585 229 554 138 q 633 408 611 308 q 654 611 654 507 q 607 774 654 714 q 469 833 560 833 q 332 774 379 833 q 285 611 285 714 q 306 408 285 507 q 353 229 326 308 q 422 56 383 138 l 422 0 l 82 0 l 82 150 l 263 150 q 188 290 221 215 q 136 437 160 354 q 113 611 113 519 q 137 760 113 692 q 207 878 161 828 q 319 956 253 928 q 469 983 386 983 q 619 956 553 983 q 732 878 686 928 q 802 760 778 828 q 826 611 826 692 q 803 437 826 519 q 751 290 779 354 q 676 150 718 215 l 857 150 l 857 0 z "},"⅓":{"ha":1214,"x_min":79,"x_max":1149,"o":"m 997 946 l 250 -53 l 150 28 l 897 1025 l 997 946 m 321 972 l 321 417 l 197 417 l 197 803 l 79 750 l 79 882 l 269 972 l 321 972 m 871 185 q 901 129 878 147 q 951 111 924 111 q 1019 193 1019 111 q 1000 249 1019 232 q 953 267 981 267 q 926 263 936 267 q 901 253 915 260 l 846 322 l 938 442 l 785 442 l 785 557 l 1114 557 l 1114 508 l 990 350 q 1054 337 1025 350 q 1104 302 1083 324 q 1137 251 1125 281 q 1149 189 1149 222 q 1101 49 1149 103 q 954 -4 1054 -4 q 876 9 911 -4 q 817 46 842 22 q 776 101 792 69 q 760 171 761 133 l 871 185 z "},"⅔":{"ha":1258,"x_min":43,"x_max":1193,"o":"m 1047 946 l 300 -53 l 200 28 l 947 1025 l 1047 946 m 43 465 l 244 711 q 274 760 267 738 q 282 806 282 783 q 267 848 282 833 q 229 863 253 863 q 186 848 206 863 q 158 789 167 833 l 47 821 q 106 935 56 892 q 229 978 157 978 q 360 933 310 978 q 411 808 411 888 q 395 732 411 765 q 356 671 379 699 l 242 532 l 419 532 l 419 417 l 43 417 l 43 465 m 915 185 q 945 129 922 147 q 996 111 968 111 q 1064 193 1064 111 q 1044 249 1064 232 q 997 267 1025 267 q 970 263 981 267 q 946 253 960 260 l 890 322 l 982 442 l 829 442 l 829 557 l 1158 557 l 1158 508 l 1035 350 q 1099 337 1069 350 q 1149 302 1128 324 q 1181 251 1169 281 q 1193 189 1193 222 q 1146 49 1193 103 q 999 -4 1099 -4 q 921 9 956 -4 q 861 46 886 22 q 821 101 836 69 q 804 171 806 133 l 915 185 z "},"⅛":{"ha":1185,"x_min":79,"x_max":1121,"o":"m 999 946 l 251 -53 l 151 28 l 899 1025 l 999 946 m 321 972 l 321 417 l 197 417 l 197 803 l 79 750 l 79 882 l 269 972 l 321 972 m 929 563 q 1003 550 971 563 q 1057 517 1035 538 q 1091 469 1079 496 q 1103 413 1103 442 q 1040 301 1103 336 q 1095 258 1069 288 q 1121 176 1121 229 q 1069 44 1121 93 q 929 -4 1017 -4 q 790 44 842 -4 q 738 176 738 93 q 763 258 738 229 q 818 301 789 288 q 756 413 756 336 q 767 469 756 442 q 801 517 779 496 q 856 550 824 538 q 929 563 888 563 m 929 242 q 883 223 900 242 q 867 176 867 204 q 883 130 867 149 q 929 111 900 111 q 975 130 958 111 q 992 176 992 149 q 975 223 992 204 q 929 242 958 242 m 929 469 q 887 453 901 469 q 872 408 872 436 q 887 364 872 381 q 929 347 901 347 q 972 364 957 347 q 986 408 986 381 q 972 453 986 436 q 929 469 957 469 z "},"⅜":{"ha":1225,"x_min":64,"x_max":1161,"o":"m 1039 946 l 292 -53 l 192 28 l 939 1025 l 1039 946 m 175 600 q 205 544 182 563 q 256 526 228 526 q 324 608 324 526 q 304 665 324 647 q 257 682 285 682 q 230 678 240 682 q 206 668 219 675 l 150 738 l 242 857 l 89 857 l 89 972 l 418 972 l 418 924 l 294 765 q 358 752 329 765 q 408 717 388 739 q 441 667 429 696 q 453 604 453 638 q 406 465 453 518 q 258 411 358 411 q 181 424 215 411 q 121 461 146 438 q 81 517 96 485 q 64 586 65 549 l 175 600 m 969 563 q 1043 550 1011 563 q 1097 517 1075 538 q 1131 469 1119 496 q 1143 413 1143 442 q 1081 301 1143 336 q 1135 258 1110 288 q 1161 176 1161 229 q 1109 44 1161 93 q 969 -4 1057 -4 q 830 44 882 -4 q 778 176 778 93 q 803 258 778 229 q 858 301 829 288 q 796 413 796 336 q 808 469 796 442 q 842 517 819 496 q 896 550 864 538 q 969 563 928 563 m 969 242 q 924 223 940 242 q 907 176 907 204 q 924 130 907 149 q 969 111 940 111 q 1015 130 999 111 q 1032 176 1032 149 q 1015 223 1032 204 q 969 242 999 242 m 969 469 q 927 453 942 469 q 913 408 913 436 q 927 364 913 381 q 969 347 942 347 q 1012 364 997 347 q 1026 408 1026 381 q 1012 453 1026 436 q 969 469 997 469 z "},"⅝":{"ha":1228,"x_min":49,"x_max":1164,"o":"m 1042 946 l 294 -53 l 194 28 l 942 1025 l 1042 946 m 169 589 q 195 543 176 560 q 240 526 214 526 q 296 548 276 526 q 315 608 315 569 q 240 685 315 685 q 160 653 196 685 l 61 674 l 90 972 l 410 972 l 410 857 l 194 857 l 181 764 q 219 779 197 774 q 268 785 242 785 q 344 771 311 785 q 400 733 378 757 q 433 678 422 710 q 444 608 444 646 q 389 463 444 515 q 240 411 333 411 q 170 424 203 411 q 111 458 138 436 q 69 509 85 479 q 49 575 53 539 l 169 589 m 972 563 q 1046 550 1014 563 q 1100 517 1078 538 q 1134 469 1122 496 q 1146 413 1146 442 q 1083 301 1146 336 q 1138 258 1113 288 q 1164 176 1164 229 q 1112 44 1164 93 q 972 -4 1060 -4 q 833 44 885 -4 q 781 176 781 93 q 806 258 781 229 q 861 301 832 288 q 799 413 799 336 q 810 469 799 442 q 844 517 822 496 q 899 550 867 538 q 972 563 931 563 m 972 242 q 926 223 943 242 q 910 176 910 204 q 926 130 910 149 q 972 111 943 111 q 1018 130 1001 111 q 1035 176 1035 149 q 1018 223 1035 204 q 972 242 1001 242 m 972 469 q 930 453 944 469 q 915 408 915 436 q 930 364 915 381 q 972 347 944 347 q 1015 364 1000 347 q 1029 408 1029 381 q 1015 453 1029 436 q 972 469 1000 469 z "},"⅞":{"ha":1136,"x_min":60,"x_max":1072,"o":"m 949 946 l 201 -53 l 101 28 l 849 1025 l 949 946 m 422 924 l 214 417 l 82 417 l 265 857 l 60 857 l 60 972 l 422 972 l 422 924 m 881 563 q 954 550 922 563 q 1008 517 986 538 q 1042 469 1031 496 q 1054 413 1054 442 q 992 301 1054 336 q 1047 258 1021 288 q 1072 176 1072 229 q 1020 44 1072 93 q 881 -4 968 -4 q 741 44 793 -4 q 689 176 689 93 q 715 258 689 229 q 769 301 740 288 q 707 413 707 336 q 719 469 707 442 q 753 517 731 496 q 807 550 775 538 q 881 563 839 563 m 881 242 q 835 223 851 242 q 818 176 818 204 q 835 130 818 149 q 881 111 851 111 q 926 130 910 111 q 943 176 943 149 q 926 223 943 204 q 881 242 910 242 m 881 469 q 838 453 853 469 q 824 408 824 436 q 838 364 824 381 q 881 347 853 347 q 923 364 908 347 q 938 408 938 381 q 923 453 938 436 q 881 469 908 469 z "},"∂":{"ha":856,"x_min":53,"x_max":788,"o":"m 133 782 q 176 862 146 825 q 246 926 206 899 q 334 968 286 953 q 433 983 382 983 q 595 953 528 983 q 705 863 663 922 q 767 715 747 803 q 788 511 788 626 q 765 312 788 407 q 692 145 743 217 q 559 31 642 74 q 356 -11 476 -11 q 235 10 290 -11 q 139 72 179 32 q 76 167 99 111 q 53 290 53 222 q 85 459 53 382 q 175 592 118 536 q 311 680 232 649 q 485 711 390 711 q 547 703 515 711 q 606 681 579 696 q 556 798 593 760 q 450 836 519 836 q 360 813 403 836 q 290 733 318 790 l 133 782 m 469 564 q 378 541 419 564 q 306 481 336 518 q 260 396 276 443 q 243 301 243 349 q 251 240 243 269 q 275 187 258 210 q 319 150 292 164 q 383 136 346 136 q 474 158 435 136 q 539 216 513 179 q 579 300 565 253 q 593 399 593 347 q 565 522 593 479 q 469 564 538 564 z "},"∆":{"ha":947,"x_min":58,"x_max":889,"o":"m 58 44 l 403 972 l 544 972 l 889 44 l 889 0 l 58 0 l 58 44 m 261 150 l 686 150 l 474 761 l 261 150 z "},"∏":{"ha":776,"x_min":104,"x_max":672,"o":"m 104 972 l 672 972 l 672 0 l 500 0 l 500 822 l 276 822 l 276 0 l 104 0 l 104 972 z "},"∑":{"ha":746,"x_min":63,"x_max":675,"o":"m 63 0 l 63 76 l 321 486 l 63 896 l 63 972 l 675 972 l 675 822 l 297 822 l 493 506 l 493 467 l 297 150 l 675 150 l 675 0 l 63 0 z "},"−":{"ha":801,"x_min":71,"x_max":732,"o":"m 71 515 l 732 515 l 732 365 l 71 365 l 71 515 z "},"√":{"ha":822,"x_min":63,"x_max":799,"o":"m 63 540 l 318 540 l 417 226 l 632 983 l 799 983 l 493 0 l 351 0 l 224 385 l 63 385 l 63 540 z "}}}
